{
.appVersion = "1287";
classes = (
{
code = "A Aacute Adieresis Agrave Aring AE B C D E Eacute Ecircumflex Egrave F G H I Iacute Igrave J K L M N O Oacute Ocircumflex Odieresis Ograve Oslash P Q R S T U Uacute Udieresis Ugrave V W X Y Z\012";
name = Uppercase;
}
);
copyright = "Monokrom Skriftforlag AS";
customParameters = (
{
name = "Family Alignment Zones";
value = (
"{720, 15}",
"{700, 15}",
"{495, 20}",
"{0, -15}",
"{-210, -15}"
);
},
{
name = Axes;
value = (
{
Name = Weight;
Tag = wght;
},
{
Name = "Diagonal cuts";
Tag = DIAG;
},
{
Name = Slant;
Tag = slnt;
}
);
},
{
name = "Has WWS Names";
value = 1;
},
{
name = vendorID;
value = MNKR;
}
);
date = "2018-03-22 16:00:57 +0000";
designer = "Sindre Bremnes, Frode Helland";
familyName = Geologisk;
featurePrefixes = (
{
code = "languagesystem DFLT dflt;\012languagesystem latn dflt;";
name = Languagesystems;
}
);
features = (
{
code = "feature ccmp;\012feature sups;\012feature frac;\012feature case;";
name = aalt;
},
{
code = "lookup ccmp_Other_1 {\012	@CombiningTopAccents = [acutecomb circumflexcomb dieresiscomb dotaccentcomb gravecomb ringcomb];\012	sub [i j]' @CombiningTopAccents by [idotless jdotless];\012	@Markscomb = [dieresiscomb gravecomb acutecomb circumflexcomb ringcomb];\012	@MarkscombCase = [dieresiscomb.case gravecomb.case acutecomb.case circumflexcomb.case ringcomb.case];\012	sub @Markscomb @Markscomb' by @MarkscombCase;\012	sub @Uppercase @Markscomb' by @MarkscombCase;\012} ccmp_Other_1;\012\012lookup ccmp_Other_2 {\012	sub @Markscomb' @MarkscombCase by @MarkscombCase;\012	sub @MarkscombCase @Markscomb' by @MarkscombCase;\012} ccmp_Other_2;";
name = ccmp;
},
{
code = "sub [zero one two three four five six seven eight nine] by [zero.tnum one.tnum two.tnum three.tnum four.tnum five.tnum six.tnum seven.tnum eight.tnum nine.tnum];";
name = tnum;
},
{
code = "sub one by onesuperior;\012sub two by twosuperior;\012sub three by threesuperior;";
name = sups;
},
{

glyphs = (
{
color = 4;
glyphname = A;
lastChange = "2020-02-06 09:58:30 +0000";
layers = (
{
anchors = (
{
name = bottom;
position = "{375, 0}";
},
{
name = ogonek;
position = "{749, 0}";
},
{
name = top;
position = "{375, 700}";
},
{
name = topleft;
position = "{130, 700}";
}
);
layerId = "E991CF0C-7E17-4C48-B08A-36C8E595ED17";
paths = (
{
closed = 1;
nodes = (
"222 0 LINE",
"261 125 LINE",
"482 125 LINE",
"521 0 LINE",
"749 0 LINE",
"495 700 LINE",
"255 700 LINE",
"0 0 LINE"
);
},
{
closed = 1;
nodes = (
"372 492 LINE",
"438 292 LINE",
"304 292 LINE"
);
}
);
width = 749;
},
{
anchors = (
{
name = bottom;
position = "{325, 0}";
},
{
name = ogonek;
position = "{644, 0}";
},
{
name = top;
position = "{325, 700}";
},
{
name = topleft;
position = "{166, 700}";
}
);
layerId = "38FA562F-EF2C-4367-983C-F15B205514DC";
paths = (
{
closed = 1;
nodes = (
"81 0 LINE",
"157 192 LINE",
"499 192 LINE",
"579 0 LINE",
"644 0 LINE",
"350 700 LINE",
"300 700 LINE",
"18 0 LINE"
);
},
{
closed = 1;
nodes = (
"323 614 LINE",
"477 246 LINE",
"178 246 LINE"
);
}
);
width = 662;
}
);
leftKerningGroup = A;
rightKerningGroup = A;
rightMetricsKey = "=|";
unicode = 0041;
},
{
color = 6;
glyphname = AE;
lastChange = "2019-12-20 09:16:47 +0000";
layers = (
{
anchors = (
{
name = top;
position = "{592, 700}";
}
);
background = {
paths = (
{
closed = 1;
nodes = (
"164 0 LINE",
"215 125 LINE",
"390 125 LINE",
"390 0 LINE",
"871 0 LINE",
"871 176 LINE",
"592 176 LINE",
"592 275 LINE",
"826 275 LINE",
"826 435 LINE",
"592 435 LINE",
"592 526 LINE",
"867 526 LINE",
"867 700 LINE",
"253 700 LINE",
"-50 0 LINE"
);
},
{
closed = 1;
nodes = (
"377 526 LINE",
"390 526 LINE",
"390 283 LINE",
"279 283 LINE"
);
}
);
};
layerId = "E991CF0C-7E17-4C48-B08A-36C8E595ED17";
paths = (
{
closed = 1;
nodes = (
"164 0 LINE",
"215 125 LINE",
"390 125 LINE",
"390 0 LINE",
"871 0 LINE",
"871 176 LINE",
"592 176 LINE",
"592 275 LINE",
"826 275 LINE",
"826 435 LINE",
"592 435 LINE",
"592 526 LINE",
"867 526 LINE",
"867 700 LINE",
"253 700 LINE",
"-50 0 LINE"
);
},
{
closed = 1;
nodes = (
"390 557 LINE",
"390 283 LINE",
"279 283 LINE"
);
}
);
width = 923;
},
{
anchors = (
{
name = top;
position = "{564, 700}";
}
);
background = {
paths = (
{
closed = 1;
nodes = (
"58 0 LINE",
"151 190 LINE",
"386 190 LINE",
"386 0 LINE",
"796 0 LINE",
"796 54 LINE",
"444 54 LINE",
"444 344 LINE",
"758 344 LINE",
"758 398 LINE",
"444 398 LINE",
"444 646 LINE",
"792 646 LINE",
"792 700 LINE",
"351 700 LINE",
"-5 0 LINE"
);
},
{
closed = 1;
nodes = (
"381 646 LINE",
"386 646 LINE",
"386 242 LINE",
"174 242 LINE"
);
}
);
};
layerId = "38FA562F-EF2C-4367-983C-F15B205514DC";
paths = (
{
closed = 1;
nodes = (
"58 0 LINE",
"151 190 LINE",
"386 190 LINE",
"386 0 LINE",
"796 0 LINE",
"796 54 LINE",
"444 54 LINE",
"444 344 LINE",
"758 344 LINE",
"758 398 LINE",
"444 398 LINE",
"444 646 LINE",
"792 646 LINE",
"792 700 LINE",
"351 700 LINE",
"-5 0 LINE"
);
},
{
closed = 1;
nodes = (
"386 656 LINE",
"386 242 LINE",
"174 242 LINE"
);
}
);
width = 871;
}
);
leftKerningGroup = A;
rightKerningGroup = E;
rightMetricsKey = E;
unicode = 00C6;
},
{
color = 4;
glyphname = B;
lastChange = "2019-12-20 09:13:02 +0000";
layers = (
{
layerId = "E991CF0C-7E17-4C48-B08A-36C8E595ED17";
paths = (
{
closed = 1;
nodes = (
"373 0 LINE SMOOTH",
"539 0 OFFCURVE",
"642 80 OFFCURVE",
"642 211 CURVE SMOOTH",
"642 293 OFFCURVE",
"595 359 OFFCURVE",
"521 387 CURVE",
"575 415 OFFCURVE",
"612 460 OFFCURVE",
"612 522 CURVE SMOOTH",
"612 640 OFFCURVE",
"518 700 OFFCURVE",
"370 700 CURVE SMOOTH",
"78 700 LINE",
"78 0 LINE"
);
},
{
closed = 1;
nodes = (
"280 287 LINE",
"356 287 LINE SMOOTH",
"404 287 OFFCURVE",
"431 260 OFFCURVE",
"431 216 CURVE SMOOTH",
"431 170 OFFCURVE",
"402 145 OFFCURVE",
"346 145 CURVE SMOOTH",
"280 145 LINE"
);
},
{
closed = 1;
nodes = (
"280 555 LINE",
"341 555 LINE SMOOTH",
"390 555 OFFCURVE",
"417 531 OFFCURVE",
"417 489 CURVE SMOOTH",
"417 446 OFFCURVE",
"390 421 OFFCURVE",
"344 421 CURVE SMOOTH",
"280 421 LINE"
);
}
);
width = 672;
},
{
layerId = "38FA562F-EF2C-4367-983C-F15B205514DC";
paths = (
{
closed = 1;
nodes = (
"325 0 LINE SMOOTH",
"460 0 OFFCURVE",
"545 72 OFFCURVE",
"545 188 CURVE SMOOTH",
"545 285 OFFCURVE",
"493 353 OFFCURVE",
"409 369 CURVE",
"480 388 OFFCURVE",
"523 448 OFFCURVE",
"523 524 CURVE SMOOTH",
"523 635 OFFCURVE",
"435 700 OFFCURVE",
"309 700 CURVE SMOOTH",
"100 700 LINE",
"100 0 LINE"
);
},
{
closed = 1;
nodes = (
"158 335 LINE",
"322 335 LINE SMOOTH",
"432 335 OFFCURVE",
"487 286 OFFCURVE",
"487 193 CURVE SMOOTH",
"487 98 OFFCURVE",
"430 54 OFFCURVE",
"311 54 CURVE SMOOTH",
"158 54 LINE"
);
},
{
closed = 1;
nodes = (
"158 646 LINE",
"296 646 LINE SMOOTH",
"404 646 OFFCURVE",
"465 603 OFFCURVE",
"465 523 CURVE SMOOTH",
"465 439 OFFCURVE",
"398 389 OFFCURVE",
"287 389 CURVE SMOOTH",
"158 389 LINE"
);
}
);
width = 605;
}
);
leftKerningGroup = H;
leftMetricsKey = I;
rightKerningGroup = B;
unicode = 0042;
},
{
color = 6;
glyphname = C;
lastChange = "2020-01-27 18:13:45 +0000";
layers = (
{
anchors = (
{
name = bottom;
position = "{391, 0}";
},
{
name = top;
position = "{391, 700}";
}
);
layerId = "E991CF0C-7E17-4C48-B08A-36C8E595ED17";
paths = (
{
closed = 1;
nodes = (
"539 -15 OFFCURVE",
"630 21 OFFCURVE",
"693 69 CURVE",
"601 238 LINE",
"547 199 OFFCURVE",
"486 182 OFFCURVE",
"429 182 CURVE SMOOTH",
"317 182 OFFCURVE",
"252 245 OFFCURVE",
"252 350 CURVE SMOOTH",
"252 453 OFFCURVE",
"314 518 OFFCURVE",
"427 518 CURVE SMOOTH",
"490 518 OFFCURVE",
"543 498 OFFCURVE",
"579 459 CURVE",
"678 625 LINE",
"610 682 OFFCURVE",
"538 715 OFFCURVE",
"414 715 CURVE SMOOTH",
"196 715 OFFCURVE",
"40 564 OFFCURVE",
"40 347 CURVE SMOOTH",
"40 124 OFFCURVE",
"193 -15 OFFCURVE",
"411 -15 CURVE SMOOTH"
);
}
);
width = 716;
},
{
anchors = (
{
name = bottom;
position = "{393, 0}";
},
{
name = top;
position = "{393, 700}";
}
);
layerId = "38FA562F-EF2C-4367-983C-F15B205514DC";
paths = (
{
closed = 1;
nodes = (
"508 -15 OFFCURVE",
"590 9 OFFCURVE",
"661 65 CURVE",
"633 115 LINE",
"573 62 OFFCURVE",
"503 41 OFFCURVE",
"425 41 CURVE SMOOTH",
"237 41 OFFCURVE",
"116 154 OFFCURVE",
"116 351 CURVE SMOOTH",
"116 541 OFFCURVE",
"236 660 OFFCURVE",
"418 660 CURVE SMOOTH",
"493 660 OFFCURVE",
"556 640 OFFCURVE",
"605 599 CURVE",
"639 646 LINE",
"586 690 OFFCURVE",
"509 715 OFFCURVE",
"413 715 CURVE SMOOTH",
"205 715 OFFCURVE",
"56 557 OFFCURVE",
"56 342 CURVE SMOOTH",
"56 128 OFFCURVE",
"196 -15 OFFCURVE",
"413 -15 CURVE SMOOTH"
);
}
);
width = 712;
}
);
leftKerningGroup = O;
leftMetricsKey = O;
rightKerningGroup = C;
unicode = 0043;
},
{
color = 4;
glyphname = D;
lastChange = "2019-12-20 09:13:02 +0000";
layers = (
{
anchors = (
{
name = bar;
position = "{220, 356}";
},
{
name = top;
position = "{362, 700}";
}
);
layerId = "E991CF0C-7E17-4C48-B08A-36C8E595ED17";
paths = (
{
closed = 1;
nodes = (
"332 0 LINE SMOOTH",
"557 0 OFFCURVE",
"705 140 OFFCURVE",
"705 350 CURVE SMOOTH",
"705 558 OFFCURVE",
"556 700 OFFCURVE",
"332 700 CURVE SMOOTH",
"78 700 LINE",
"78 0 LINE"
);
},
{
closed = 1;
nodes = (
"280 512 LINE",
"327 512 LINE SMOOTH",
"425 512 OFFCURVE",
"493 460 OFFCURVE",
"493 350 CURVE SMOOTH",
"493 240 OFFCURVE",
"425 188 OFFCURVE",
"327 188 CURVE SMOOTH",
"280 188 LINE"
);
}
);
width = 745;
},
{
anchors = (
{
name = bar;
position = "{218, 371}";
},
{
name = top;
position = "{338, 700}";
}
);
layerId = "38FA562F-EF2C-4367-983C-F15B205514DC";
paths = (
{
closed = 1;
nodes = (
"298 0 LINE SMOOTH",
"497 0 OFFCURVE",
"642 147 OFFCURVE",
"642 349 CURVE SMOOTH",
"642 554 OFFCURVE",
"497 700 OFFCURVE",
"298 700 CURVE SMOOTH",
"100 700 LINE",
"100 0 LINE"
);
},
{
closed = 1;
nodes = (
"158 646 LINE",
"279 646 LINE SMOOTH",
"463 646 OFFCURVE",
"582 528 OFFCURVE",
"582 349 CURVE SMOOTH",
"582 172 OFFCURVE",
"462 54 OFFCURVE",
"279 54 CURVE SMOOTH",
"158 54 LINE"
);
}
);
width = 698;
}
);
leftKerningGroup = H;
leftMetricsKey = I;
rightKerningGroup = O;
rightMetricsKey = O;
unicode = 0044;
},
{
color = 4;
glyphname = Eth;
lastChange = "2019-12-20 09:16:59 +0000";
layers = (
{
components = (
{
name = D;
transform = "{1, 0, 0, 1, 40, 0}";
}
);
layerId = "38FA562F-EF2C-4367-983C-F15B205514DC";
paths = (
{
closed = 1;
nodes = (
"464 349 LINE",
"464 393 LINE",
"52 393 LINE",
"52 349 LINE"
);
}
);
width = 738;
},
{
components = (
{
name = D;
transform = "{1, 0, 0, 1, 40, 0}";
}
);
layerId = "E991CF0C-7E17-4C48-B08A-36C8E595ED17";
paths = (
{
closed = 1;
nodes = (
"452 279 LINE",
"452 433 LINE",
"9 433 LINE",
"9 279 LINE"
);
}
);
width = 785;
}
);
widthMetricsKey = "=D+40";
rightMetricsKey = D;
unicode = 00D0;
},
{
color = 6;
glyphname = E;
lastChange = "2020-02-06 09:53:28 +0000";
layers = (
{
anchors = (
{
name = bottom;
position = "{335, 0}";
},
{
name = ogonek;
position = "{540, 0}";
},
{
name = top;
position = "{335, 700}";
},
{
name = topleft;
position = "{20, 700}";
}
);
layerId = "E991CF0C-7E17-4C48-B08A-36C8E595ED17";
paths = (
{
closed = 1;
nodes = (
"601 0 LINE",
"601 176 LINE",
"280 176 LINE",
"280 276 LINE",
"540 276 LINE",
"540 435 LINE",
"280 435 LINE",
"280 526 LINE",
"597 526 LINE",
"597 700 LINE",
"78 700 LINE",
"78 0 LINE"
);
}
);
width = 653;
},
{
anchors = (
{
name = bottom;
position = "{301, 0}";
},
{
name = ogonek;
position = "{472, 0}";
},
{
name = top;
position = "{301, 700}";
},
{
name = topleft;
position = "{60, 700}";
}
);
layerId = "38FA562F-EF2C-4367-983C-F15B205514DC";
paths = (
{
closed = 1;
nodes = (
"515 0 LINE",
"515 54 LINE",
"158 54 LINE",
"158 344 LINE",
"472 344 LINE",
"472 398 LINE",
"158 398 LINE",
"158 646 LINE",
"512 646 LINE",
"512 700 LINE",
"100 700 LINE",
"100 0 LINE"
);
}
);
width = 590;
}
);
leftKerningGroup = H;
leftMetricsKey = I;
rightKerningGroup = E;
unicode = 0045;
},
{
color = 4;
glyphname = F;
lastChange = "2019-12-20 09:13:02 +0000";
layers = (
{
layerId = "E991CF0C-7E17-4C48-B08A-36C8E595ED17";
paths = (
{
closed = 1;
nodes = (
"280 0 LINE",
"280 233 LINE",
"527 233 LINE",
"527 409 LINE",
"280 409 LINE",
"280 516 LINE",
"558 516 LINE",
"558 700 LINE",
"78 700 LINE",
"78 0 LINE"
);
}
);
width = 608;
},
{
layerId = "38FA562F-EF2C-4367-983C-F15B205514DC";
paths = (
{
closed = 1;
nodes = (
"158 0 LINE",
"158 334 LINE",
"474 334 LINE",
"474 388 LINE",
"158 388 LINE",
"158 646 LINE",
"504 646 LINE",
"504 700 LINE",
"100 700 LINE",
"100 0 LINE"
);
}
);
width = 566;
}
);
leftKerningGroup = H;
leftMetricsKey = I;
rightKerningGroup = F;
unicode = 0046;
},
{
color = 6;
glyphname = G;
lastChange = "2020-01-27 11:41:24 +0000";
layers = (
{
anchors = (
{
name = bottom;
position = "{430, 0}";
},
{
name = top;
position = "{400, 700}";
}
);
layerId = "E991CF0C-7E17-4C48-B08A-36C8E595ED17";
paths = (
{
closed = 1;
nodes = (
"517 -16 OFFCURVE",
"625 6 OFFCURVE",
"693 42 CURVE",
"693 419 LINE",
"385 419 LINE",
"385 261 LINE",
"518 261 LINE",
"518 167 LINE",
"495 162 OFFCURVE",
"471 159 OFFCURVE",
"450 159 CURVE SMOOTH",
"341 159 OFFCURVE",
"248 220 OFFCURVE",
"248 348 CURVE SMOOTH",
"248 464 OFFCURVE",
"320 534 OFFCURVE",
"446 534 CURVE SMOOTH",
"506 534 OFFCURVE",
"555 520 OFFCURVE",
"601 490 CURVE",
"726 724 LINE",
"744 600 LINE",
"636 696 OFFCURVE",
"519 715 OFFCURVE",
"430 715 CURVE SMOOTH",
"217 715 OFFCURVE",
"40 577 OFFCURVE",
"40 350 CURVE SMOOTH",
"40 120 OFFCURVE",
"224 -16 OFFCURVE",
"437 -16 CURVE SMOOTH"
);
}
);
width = 761;
},
{
anchors = (
{
name = bottom;
position = "{430, 0}";
},
{
name = top;
position = "{400, 700}";
}
);
layerId = "38FA562F-EF2C-4367-983C-F15B205514DC";
paths = (
{
closed = 1;
nodes = (
"505 -15 OFFCURVE",
"613 8 OFFCURVE",
"660 46 CURVE",
"660 343 LINE",
"430 343 LINE",
"430 289 LINE",
"604 289 LINE",
"604 75 LINE",
"575 56 OFFCURVE",
"518 39 OFFCURVE",
"444 39 CURVE SMOOTH",
"246 39 OFFCURVE",
"116 155 OFFCURVE",
"116 350 CURVE SMOOTH",
"116 539 OFFCURVE",
"239 659 OFFCURVE",
"425 659 CURVE SMOOTH",
"489 659 OFFCURVE",
"556 642 OFFCURVE",
"610 608 CURVE",
"651 678 LINE",
"650 646 LINE",
"595 693 OFFCURVE",
"513 715 OFFCURVE",
"430 715 CURVE SMOOTH",
"209 715 OFFCURVE",
"56 566 OFFCURVE",
"56 348 CURVE SMOOTH",
"56 131 OFFCURVE",
"216 -15 OFFCURVE",
"443 -15 CURVE SMOOTH"
);
}
);
width = 750;
}
);
leftKerningGroup = O;
leftMetricsKey = O;
rightKerningGroup = G;
rightMetricsKey = "=I-10";
unicode = 0047;
},
{
color = 4;
glyphname = H;
lastChange = "2020-02-06 09:56:26 +0000";
layers = (
{
anchors = (
{
name = top;
position = "{397, 700}";
},
{
name = topleft;
position = "{20, 700}";
}
);
layerId = "E991CF0C-7E17-4C48-B08A-36C8E595ED17";
paths = (
{
closed = 1;
nodes = (
"280 0 LINE",
"280 269 LINE",
"514 269 LINE",
"514 0 LINE",
"716 0 LINE",
"716 700 LINE",
"514 700 LINE",
"514 453 LINE",
"280 453 LINE",
"280 700 LINE",
"78 700 LINE",
"78 0 LINE"
);
}
);
width = 794;
},
{
anchors = (
{
name = top;
position = "{359, 700}";
},
{
name = topleft;
position = "{60, 700}";
}
);
layerId = "38FA562F-EF2C-4367-983C-F15B205514DC";
paths = (
{
closed = 1;
nodes = (
"158 0 LINE",
"158 349 LINE",
"560 349 LINE",
"560 0 LINE",
"618 0 LINE",
"618 700 LINE",
"560 700 LINE",
"560 403 LINE",
"158 403 LINE",
"158 700 LINE",
"100 700 LINE",
"100 0 LINE"
);
}
);
width = 718;
}
);
leftKerningGroup = H;
leftMetricsKey = I;
rightKerningGroup = H;
rightMetricsKey = I;
unicode = 0048;
},
{
color = 4;
glyphname = Hbar;
lastChange = "2019-12-20 09:13:02 +0000";
layers = (
{
layerId = "38FA562F-EF2C-4367-983C-F15B205514DC";
paths = (
{
closed = 1;
nodes = (
"628 0 LINE",
"628 700 LINE",
"570 700 LINE",
"570 0 LINE"
);
},
{
closed = 1;
nodes = (
"168 0 LINE",
"168 700 LINE",
"110 700 LINE",
"110 0 LINE"
);
},
{
closed = 1;
nodes = (
"584 329 LINE",
"584 383 LINE",
"155 383 LINE",
"155 329 LINE"
);
},
{
closed = 1;
nodes = (
"728 515 LINE",
"728 559 LINE",
"10 559 LINE",
"10 515 LINE"
);
}
);
width = 738;
},
{
layerId = "E991CF0C-7E17-4C48-B08A-36C8E595ED17";
paths = (
{
closed = 1;
nodes = (
"726 0 LINE",
"726 700 LINE",
"524 700 LINE",
"524 0 LINE"
);
},
{
closed = 1;
nodes = (
"290 0 LINE",
"290 700 LINE",
"88 700 LINE",
"88 0 LINE"
);
},
{
closed = 1;
nodes = (
"540 229 LINE",
"540 413 LINE",
"274 413 LINE",
"274 229 LINE"
);
},
{
closed = 1;
nodes = (
"806 478 LINE",
"806 632 LINE",
"8 632 LINE",
"8 478 LINE"
);
}
);
width = 814;
}
);
leftKerningGroup = H;
rightKerningGroup = H;
rightMetricsKey = "=|";
unicode = 0126;
},
{
color = 4;
glyphname = I;
lastChange = "2020-02-06 09:56:38 +0000";
layers = (
{
anchors = (
{
name = bottom;
position = "{179, 0}";
},
{
name = ogonek;
position = "{280, 0}";
},
{
name = top;
position = "{179, 700}";
},
{
name = topleft;
position = "{20, 700}";
}
);
layerId = "E991CF0C-7E17-4C48-B08A-36C8E595ED17";
paths = (
{
closed = 1;
nodes = (
"280 0 LINE",
"280 700 LINE",
"78 700 LINE",
"78 0 LINE"
);
}
);
width = 358;
},
{
anchors = (
{
name = bottom;
position = "{129, 0}";
},
{
name = ogonek;
position = "{158, 0}";
},
{
name = top;
position = "{129, 700}";
},
{
name = topleft;
position = "{60, 700}";
}
);
layerId = "38FA562F-EF2C-4367-983C-F15B205514DC";
paths = (
{
closed = 1;
nodes = (
"158 0 LINE",
"158 700 LINE",
"100 700 LINE",
"100 0 LINE"
);
}
);
width = 258;
}
);
leftKerningGroup = H;
rightKerningGroup = H;
rightMetricsKey = "=|";
unicode = 0049;
},
{
color = 6;
glyphname = J;
lastChange = "2020-01-27 11:43:07 +0000";
layers = (
{
anchors = (
{
name = top;
position = "{372, 700}";
}
);
layerId = "E991CF0C-7E17-4C48-B08A-36C8E595ED17";
paths = (
{
closed = 1;
nodes = (
"378 -15 OFFCURVE",
"473 83 OFFCURVE",
"473 224 CURVE SMOOTH",
"473 700 LINE",
"271 700 LINE",
"271 269 LINE SMOOTH",
"271 200 OFFCURVE",
"237 169 OFFCURVE",
"183 169 CURVE SMOOTH",
"145 169 OFFCURVE",
"105 183 OFFCURVE",
"57 209 CURVE",
"-30 -38 LINE",
"-39 80 LINE",
"16 24 OFFCURVE",
"104 -15 OFFCURVE",
"212 -15 CURVE SMOOTH"
);
}
);
width = 549;
},
{
anchors = (
{
name = top;
position = "{347, 700}";
}
);
layerId = "38FA562F-EF2C-4367-983C-F15B205514DC";
paths = (
{
closed = 1;
nodes = (
"302 -15 OFFCURVE",
"376 60 OFFCURVE",
"376 181 CURVE SMOOTH",
"376 700 LINE",
"318 700 LINE",
"318 183 LINE SMOOTH",
"318 80 OFFCURVE",
"265 39 OFFCURVE",
"163 39 CURVE SMOOTH",
"122 39 OFFCURVE",
"84 51 OFFCURVE",
"50 72 CURVE",
"14 -1 LINE",
"9 31 LINE",
"61 0 OFFCURVE",
"113 -15 OFFCURVE",
"168 -15 CURVE SMOOTH"
);
}
);
width = 474;
}
);
leftKerningGroup = J;
rightKerningGroup = U;
rightMetricsKey = "=I-2";
unicode = 004A;
},
{
color = 4;
glyphname = K;
lastChange = "2019-12-20 09:13:02 +0000";
layers = (
{
anchors = (
{
name = bottom;
position = "{396, 0}";
}
);
layerId = "E991CF0C-7E17-4C48-B08A-36C8E595ED17";
paths = (
{
closed = 1;
nodes = (
"280 0 LINE",
"280 156 LINE",
"342 223 LINE",
"507 0 LINE",
"766 0 LINE",
"475 375 LINE",
"736 700 LINE",
"483 700 LINE",
"280 441 LINE",
"280 700 LINE",
"78 700 LINE",
"78 0 LINE"
);
}
);
width = 761;
},
{
anchors = (
{
name = bottom;
position = "{346, 0}";
}
);
layerId = "38FA562F-EF2C-4367-983C-F15B205514DC";
paths = (
{
closed = 1;
nodes = (
"158 0 LINE",
"158 197 LINE",
"277 342 LINE",
"536 0 LINE",
"612 0 LINE",
"315 388 LINE",
"568 700 LINE",
"499 700 LINE",
"158 282 LINE",
"158 700 LINE",
"100 700 LINE",
"100 0 LINE"
);
}
);
width = 657;
}
);
leftKerningGroup = H;
leftMetricsKey = I;
rightKerningGroup = K;
unicode = 004B;
},
{
color = 6;
glyphname = L;
lastChange = "2019-12-20 09:17:36 +0000";
layers = (
{
anchors = (
{
name = bottom;
position = "{312, 0}";
},
{
name = caron;
position = "{280, 720}";
},
{
name = top;
position = "{179, 700}";
}
);
layerId = "E991CF0C-7E17-4C48-B08A-36C8E595ED17";
paths = (
{
closed = 1;
nodes = (
"545 0 LINE",
"545 184 LINE",
"280 184 LINE",
"280 700 LINE",
"78 700 LINE",
"78 0 LINE"
);
}
);
width = 575;
},
{
anchors = (
{
name = bottom;
position = "{294, 0}";
},
{
name = caron;
position = "{158, 720}";
},
{
name = top;
position = "{129, 700}";
}
);
layerId = "38FA562F-EF2C-4367-983C-F15B205514DC";
paths = (
{
closed = 1;
nodes = (
"487 0 LINE",
"487 54 LINE",
"158 54 LINE",
"158 700 LINE",
"100 700 LINE",
"100 0 LINE"
);
}
);
width = 527;
}
);
leftKerningGroup = H;
leftMetricsKey = I;
rightKerningGroup = L;
unicode = 004C;
},
{
color = 4;
glyphname = Lslash;
lastChange = "2019-12-20 09:18:21 +0000";
layers = (
{
components = (
{
name = L;
transform = "{1, 0, 0, 1, 40, 0}";
}
);
layerId = "38FA562F-EF2C-4367-983C-F15B205514DC";
paths = (
{
closed = 1;
nodes = (
"167 307 LINE",
"167 302 LINE",
"474 446 LINE",
"474 495 LINE",
"167 351 LINE",
"167 356 LINE",
"52 302 LINE",
"52 253 LINE"
);
}
);
width = 567;
},
{
components = (
{
name = L;
transform = "{1, 0, 0, 1, 40, 0}";
}
);
layerId = "E991CF0C-7E17-4C48-B08A-36C8E595ED17";
paths = (
{
closed = 1;
nodes = (
"205 269 LINE",
"205 249 LINE",
"532 402 LINE",
"532 576 LINE",
"205 423 LINE",
"205 443 LINE",
"9 352 LINE",
"9 178 LINE"
);
}
);
width = 615;
}
);
leftKerningGroup = Lslash;
widthMetricsKey = "=L+40";
rightKerningGroup = L;
rightMetricsKey = L;
unicode = 0141;
},
{
color = 4;
glyphname = M;
lastChange = "2019-12-20 09:13:02 +0000";
layers = (
{
layerId = "E991CF0C-7E17-4C48-B08A-36C8E595ED17";
paths = (
{
closed = 1;
nodes = (
"273 0 LINE",
"270 356 LINE",
"412 119 LINE",
"542 119 LINE",
"684 356 LINE",
"681 0 LINE",
"876 0 LINE",
"876 700 LINE",
"682 700 LINE",
"479 351 LINE",
"272 700 LINE",
"78 700 LINE",
"78 0 LINE"
);
}
);
width = 954;
},
{
layerId = "38FA562F-EF2C-4367-983C-F15B205514DC";
paths = (
{
closed = 1;
nodes = (
"158 0 LINE",
"158 589 LINE",
"420 170 LINE",
"473 170 LINE",
"734 589 LINE",
"734 0 LINE",
"792 0 LINE",
"792 700 LINE",
"738 700 LINE",
"449 233 LINE",
"157 700 LINE",
"100 700 LINE",
"100 0 LINE"
);
}
);
width = 892;
}
);
leftKerningGroup = H;
leftMetricsKey = I;
rightKerningGroup = H;
rightMetricsKey = I;
unicode = 004D;
},
{
color = 4;
glyphname = N;
lastChange = "2019-12-20 09:13:02 +0000";
layers = (
{
anchors = (
{
name = bottom;
position = "{399, 0}";
},
{
name = top;
position = "{399, 700}";
}
);
layerId = "E991CF0C-7E17-4C48-B08A-36C8E595ED17";
paths = (
{
closed = 1;
nodes = (
"273 0 LINE",
"273 382 LINE",
"518 0 LINE",
"720 0 LINE",
"720 700 LINE",
"525 700 LINE",
"525 324 LINE",
"280 700 LINE",
"78 700 LINE",
"78 0 LINE"
);
}
);
width = 798;
},
{
anchors = (
{
name = bottom;
position = "{363, 0}";
},
{
name = top;
position = "{363, 700}";
}
);
layerId = "38FA562F-EF2C-4367-983C-F15B205514DC";
paths = (
{
closed = 1;
nodes = (
"158 0 LINE",
"158 594 LINE",
"576 0 LINE",
"626 0 LINE",
"626 700 LINE",
"568 700 LINE",
"568 112 LINE",
"150 700 LINE",
"100 700 LINE",
"100 0 LINE"
);
}
);
width = 726;
}
);
leftKerningGroup = H;
leftMetricsKey = I;
rightKerningGroup = H;
rightMetricsKey = I;
unicode = 004E;
},
{
color = 4;
glyphname = Eng;
lastChange = "2019-12-20 09:51:52 +0000";
layers = (
{
guideLines = (
{
angle = 270;
position = "{568, 406}";
}
);
layerId = "38FA562F-EF2C-4367-983C-F15B205514DC";
paths = (
{
closed = 1;
nodes = (
"577 99 LINE",
"150 700 LINE",
"100 700 LINE",
"100 0 LINE",
"158 0 LINE",
"158 594 LINE",
"577 -1 LINE"
);
},
{
closed = 1;
nodes = (
"582 -225 OFFCURVE",
"626 -178 OFFCURVE",
"626 -97 CURVE SMOOTH",
"626 700 LINE",
"568 700 LINE",
"568 -87 LINE SMOOTH",
"568 -142 OFFCURVE",
"552 -171 OFFCURVE",
"502 -171 CURVE SMOOTH",
"475 -171 OFFCURVE",
"461 -165 OFFCURVE",
"445 -157 CURVE",
"426 -205 LINE",
"446 -215 OFFCURVE",
"476 -225 OFFCURVE",
"510 -225 CURVE SMOOTH"
);
}
);
width = 726;
},
{
layerId = "E991CF0C-7E17-4C48-B08A-36C8E595ED17";
paths = (
{
closed = 1;
nodes = (
"534 311 LINE",
"280 700 LINE",
"78 700 LINE",
"78 0 LINE",
"273 0 LINE",
"273 382 LINE",
"534 -25 LINE"
);
},
{
closed = 1;
nodes = (
"636 -225 OFFCURVE",
"720 -140 OFFCURVE",
"720 -18 CURVE SMOOTH",
"720 700 LINE",
"525 700 LINE",
"525 -20 LINE SMOOTH",
"525 -46 OFFCURVE",
"507 -63 OFFCURVE",
"472 -63 CURVE SMOOTH",
"452 -63 OFFCURVE",
"435 -59 OFFCURVE",
"417 -50 CURVE",
"380 -195 LINE",
"422 -218 OFFCURVE",
"455 -225 OFFCURVE",
"514 -225 CURVE SMOOTH"
);
}
);
width = 798;
}
);
leftMetricsKey = H;
rightMetricsKey = H;
unicode = 014A;
},
{
color = 4;
glyphname = O;
lastChange = "2020-02-06 09:57:42 +0000";
layers = (
{
anchors = (
{
name = bottom;
position = "{417, 0}";
},
{
name = horn;
position = "{619, 700}";
},
{
name = ogonek;
position = "{529, 0}";
},
{
name = top;
position = "{417, 700}";
},
{
name = topleft;
position = "{50, 700}";
}
);
layerId = "E991CF0C-7E17-4C48-B08A-36C8E595ED17";
paths = (
{
closed = 1;
nodes = (
"635 -15 OFFCURVE",
"794 143 OFFCURVE",
"794 350 CURVE SMOOTH",
"794 554 OFFCURVE",
"635 715 OFFCURVE",
"417 715 CURVE SMOOTH",
"198 715 OFFCURVE",
"40 558 OFFCURVE",
"40 350 CURVE SMOOTH",
"40 143 OFFCURVE",
"198 -15 OFFCURVE",
"417 -15 CURVE SMOOTH"
);
},
{
closed = 1;
nodes = (
"320 174 OFFCURVE",
"252 242 OFFCURVE",
"252 350 CURVE SMOOTH",
"252 458 OFFCURVE",
"320 526 OFFCURVE",
"417 526 CURVE SMOOTH",
"514 526 OFFCURVE",
"582 458 OFFCURVE",
"582 350 CURVE SMOOTH",
"582 242 OFFCURVE",
"514 174 OFFCURVE",
"417 174 CURVE SMOOTH"
);
}
);
width = 834;
},
{
anchors = (
{
name = bottom;
position = "{419, 0}";
},
{
name = horn;
position = "{620, 700}";
},
{
name = ogonek;
position = "{525, 0}";
},
{
name = top;
position = "{419, 700}";
},
{
name = topleft;
position = "{76, 700}";
}
);
layerId = "38FA562F-EF2C-4367-983C-F15B205514DC";
paths = (
{
closed = 1;
nodes = (
"623 -15 OFFCURVE",
"782 143 OFFCURVE",
"782 350 CURVE SMOOTH",
"782 554 OFFCURVE",
"623 715 OFFCURVE",
"419 715 CURVE SMOOTH",
"213 715 OFFCURVE",
"56 558 OFFCURVE",
"56 350 CURVE SMOOTH",
"56 143 OFFCURVE",
"213 -15 OFFCURVE",
"419 -15 CURVE SMOOTH"
);
},
{
closed = 1;
nodes = (
"251 41 OFFCURVE",
"116 164 OFFCURVE",
"116 350 CURVE SMOOTH",
"116 536 OFFCURVE",
"251 659 OFFCURVE",
"419 659 CURVE SMOOTH",
"587 659 OFFCURVE",
"722 536 OFFCURVE",
"722 350 CURVE SMOOTH",
"722 164 OFFCURVE",
"587 41 OFFCURVE",
"419 41 CURVE SMOOTH"
);
}
);
width = 838;
}
);
leftKerningGroup = O;
rightKerningGroup = O;
unicode = 004F;
},
{
color = 4;
glyphname = Oslash;
lastChange = "2019-12-20 10:40:19 +0000";
layers = (
{
anchors = (
{
name = top;
position = "{417, 700}";
}
);
background = {
paths = (
{
closed = 1;
nodes = (
"241 27 LINE",
"293 0 OFFCURVE",
"353 -15 OFFCURVE",
"417 -15 CURVE SMOOTH",
"631 -15 OFFCURVE",
"794 143 OFFCURVE",
"794 350 CURVE SMOOTH",
"794 442 OFFCURVE",
"763 528 OFFCURVE",
"707 592 CURVE",
"770 667 LINE",
"653 770 LINE",
"578 679 LINE",
"534 701 OFFCURVE",
"480 715 OFFCURVE",
"417 715 CURVE SMOOTH",
"202 715 OFFCURVE",
"40 557 OFFCURVE",
"40 350 CURVE SMOOTH",
"40 262 OFFCURVE",
"67 183 OFFCURVE",
"116 120 CURVE",
"51 42 LINE",
"168 -62 LINE"
);
},
{
closed = 1;
nodes = (
"251 305 OFFCURVE",
"247 326 OFFCURVE",
"247 350 CURVE SMOOTH",
"247 462 OFFCURVE",
"317 533 OFFCURVE",
"417 533 CURVE SMOOTH",
"430 533 OFFCURVE",
"444 531 OFFCURVE",
"457 527 CURVE",
"258 286 LINE"
);
},
{
closed = 1;
nodes = (
"395 167 OFFCURVE",
"376 171 OFFCURVE",
"358 177 CURVE",
"571 434 LINE",
"582 409 OFFCURVE",
"587 379 OFFCURVE",
"587 350 CURVE SMOOTH",
"587 240 OFFCURVE",
"520 167 OFFCURVE",
"417 167 CURVE SMOOTH"
);
}
);
};
layerId = "E991CF0C-7E17-4C48-B08A-36C8E595ED17";
paths = (
{
closed = 1;
nodes = (
"241 27 LINE",
"293 0 OFFCURVE",
"353 -15 OFFCURVE",
"417 -15 CURVE SMOOTH",
"631 -15 OFFCURVE",
"794 143 OFFCURVE",
"794 350 CURVE SMOOTH",
"794 442 OFFCURVE",
"763 528 OFFCURVE",
"707 592 CURVE",
"770 667 LINE",
"653 770 LINE",
"578 679 LINE",
"534 701 OFFCURVE",
"480 715 OFFCURVE",
"417 715 CURVE SMOOTH",
"202 715 OFFCURVE",
"40 557 OFFCURVE",
"40 350 CURVE SMOOTH",
"40 262 OFFCURVE",
"67 183 OFFCURVE",
"116 120 CURVE",
"51 42 LINE",
"168 -62 LINE"
);
},
{
closed = 1;
nodes = (
"251 305 OFFCURVE",
"247 326 OFFCURVE",
"247 350 CURVE SMOOTH",
"247 462 OFFCURVE",
"317 533 OFFCURVE",
"417 533 CURVE SMOOTH",
"430 533 OFFCURVE",
"444 531 OFFCURVE",
"457 527 CURVE",
"258 286 LINE"
);
},
{
closed = 1;
nodes = (
"395 167 OFFCURVE",
"376 171 OFFCURVE",
"358 177 CURVE",
"571 434 LINE",
"582 409 OFFCURVE",
"587 379 OFFCURVE",
"587 350 CURVE SMOOTH",
"587 240 OFFCURVE",
"520 167 OFFCURVE",
"417 167 CURVE SMOOTH"
);
}
);
width = 834;
},
{
anchors = (
{
name = top;
position = "{419, 700}";
}
);
background = {
paths = (
{
closed = 1;
nodes = (
"206 51 LINE",
"265 9 OFFCURVE",
"338 -15 OFFCURVE",
"419 -15 CURVE SMOOTH",
"623 -15 OFFCURVE",
"782 143 OFFCURVE",
"782 350 CURVE SMOOTH",
"782 454 OFFCURVE",
"741 547 OFFCURVE",
"673 613 CURVE",
"736 689 LINE",
"696 725 LINE",
"632 648 LINE",
"572 690 OFFCURVE",
"499 715 OFFCURVE",
"419 715 CURVE SMOOTH",
"213 715 OFFCURVE",
"56 558 OFFCURVE",
"56 350 CURVE SMOOTH",
"56 244 OFFCURVE",
"97 152 OFFCURVE",
"164 86 CURVE",
"102 11 LINE",
"142 -25 LINE"
);
},
{
closed = 1;
nodes = (
"148 183 OFFCURVE",
"116 259 OFFCURVE",
"116 350 CURVE SMOOTH",
"116 536 OFFCURVE",
"251 659 OFFCURVE",
"419 659 CURVE SMOOTH",
"485 659 OFFCURVE",
"547 640 OFFCURVE",
"596 605 CURVE",
"201 130 LINE"
);
},
{
closed = 1;
nodes = (
"353 41 OFFCURVE",
"291 60 OFFCURVE",
"242 95 CURVE",
"637 570 LINE",
"690 517 OFFCURVE",
"722 441 OFFCURVE",
"722 350 CURVE SMOOTH",
"722 164 OFFCURVE",
"587 41 OFFCURVE",
"419 41 CURVE SMOOTH"
);
}
);
};
layerId = "38FA562F-EF2C-4367-983C-F15B205514DC";
paths = (
{
closed = 1;
nodes = (
"206 51 LINE",
"265 9 OFFCURVE",
"338 -15 OFFCURVE",
"419 -15 CURVE SMOOTH",
"623 -15 OFFCURVE",
"782 143 OFFCURVE",
"782 350 CURVE SMOOTH",
"782 454 OFFCURVE",
"741 547 OFFCURVE",
"673 613 CURVE",
"736 689 LINE",
"696 725 LINE",
"632 648 LINE",
"572 690 OFFCURVE",
"499 715 OFFCURVE",
"419 715 CURVE SMOOTH",
"213 715 OFFCURVE",
"56 558 OFFCURVE",
"56 350 CURVE SMOOTH",
"56 244 OFFCURVE",
"97 152 OFFCURVE",
"164 86 CURVE",
"102 11 LINE",
"142 -25 LINE"
);
},
{
closed = 1;
nodes = (
"148 183 OFFCURVE",
"116 259 OFFCURVE",
"116 350 CURVE SMOOTH",
"116 536 OFFCURVE",
"251 659 OFFCURVE",
"419 659 CURVE SMOOTH",
"485 659 OFFCURVE",
"547 640 OFFCURVE",
"596 605 CURVE",
"201 130 LINE"
);
},
{
closed = 1;
nodes = (
"353 41 OFFCURVE",
"291 60 OFFCURVE",
"242 95 CURVE",
"637 570 LINE",
"690 517 OFFCURVE",
"722 441 OFFCURVE",
"722 350 CURVE SMOOTH",
"722 164 OFFCURVE",
"587 41 OFFCURVE",
"419 41 CURVE SMOOTH"
);
}
);
width = 838;
}
);
leftKerningGroup = O;
leftMetricsKey = O;
rightKerningGroup = O;
rightMetricsKey = O;
unicode = 00D8;
},
{
color = 6;
glyphname = OE;
lastChange = "2019-12-20 09:52:38 +0000";
layers = (
{
layerId = "38FA562F-EF2C-4367-983C-F15B205514DC";
paths = (
{
closed = 1;
nodes = (
"553 -15 OFFCURVE",
"669 57 OFFCURVE",
"730 168 CURVE",
"722 179 LINE",
"722 0 LINE",
"1137 0 LINE",
"1137 54 LINE",
"780 54 LINE",
"780 344 LINE",
"1094 344 LINE",
"1094 398 LINE",
"780 398 LINE",
"780 646 LINE",
"1134 646 LINE",
"1134 700 LINE",
"722 700 LINE",
"722 520 LINE",
"730 531 LINE",
"669 642 OFFCURVE",
"553 715 OFFCURVE",
"416 715 CURVE SMOOTH",
"212 715 OFFCURVE",
"56 558 OFFCURVE",
"56 350 CURVE SMOOTH",
"56 143 OFFCURVE",
"212 -15 OFFCURVE",
"416 -15 CURVE SMOOTH"
);
},
{
closed = 1;
nodes = (
"251 41 OFFCURVE",
"116 164 OFFCURVE",
"116 350 CURVE SMOOTH",
"116 536 OFFCURVE",
"251 659 OFFCURVE",
"419 659 CURVE SMOOTH",
"587 659 OFFCURVE",
"722 536 OFFCURVE",
"722 350 CURVE SMOOTH",
"722 164 OFFCURVE",
"587 41 OFFCURVE",
"419 41 CURVE SMOOTH"
);
}
);
width = 1212;
},
{
layerId = "E991CF0C-7E17-4C48-B08A-36C8E595ED17";
paths = (
{
closed = 1;
nodes = (
"501 -15 OFFCURVE",
"584 17 OFFCURVE",
"649 70 CURVE",
"602 127 LINE",
"602 0 LINE",
"1105 0 LINE",
"1105 176 LINE",
"784 176 LINE",
"784 276 LINE",
"1044 276 LINE",
"1044 435 LINE",
"784 435 LINE",
"784 526 LINE",
"1101 526 LINE",
"1101 700 LINE",
"602 700 LINE",
"602 572 LINE",
"649 628 LINE",
"584 683 OFFCURVE",
"501 715 OFFCURVE",
"407 715 CURVE SMOOTH",
"194 715 OFFCURVE",
"40 558 OFFCURVE",
"40 350 CURVE SMOOTH",
"40 143 OFFCURVE",
"194 -15 OFFCURVE",
"407 -15 CURVE SMOOTH"
);
},
{
closed = 1;
nodes = (
"320 174 OFFCURVE",
"252 242 OFFCURVE",
"252 350 CURVE SMOOTH",
"252 458 OFFCURVE",
"320 526 OFFCURVE",
"417 526 CURVE SMOOTH",
"514 526 OFFCURVE",
"582 458 OFFCURVE",
"582 350 CURVE SMOOTH",
"582 242 OFFCURVE",
"514 174 OFFCURVE",
"417 174 CURVE SMOOTH"
);
}
);
width = 1157;
}
);
leftKerningGroup = O;
leftMetricsKey = O;
rightKerningGroup = E;
rightMetricsKey = E;
unicode = 0152;
},
{
color = 4;
glyphname = P;
lastChange = "2019-12-20 09:13:02 +0000";
layers = (
{
layerId = "E991CF0C-7E17-4C48-B08A-36C8E595ED17";
paths = (
{
closed = 1;
nodes = (
"280 0 LINE",
"280 216 LINE",
"372 216 LINE SMOOTH",
"552 216 OFFCURVE",
"656 304 OFFCURVE",
"656 458 CURVE SMOOTH",
"656 611 OFFCURVE",
"538 700 OFFCURVE",
"377 700 CURVE SMOOTH",
"78 700 LINE",
"78 0 LINE"
);
},
{
closed = 1;
nodes = (
"280 528 LINE",
"365 528 LINE SMOOTH",
"417 528 OFFCURVE",
"454 511 OFFCURVE",
"454 455 CURVE SMOOTH",
"454 401 OFFCURVE",
"420 383 OFFCURVE",
"364 383 CURVE SMOOTH",
"280 383 LINE"
);
}
);
width = 686;
},
{
layerId = "38FA562F-EF2C-4367-983C-F15B205514DC";
paths = (
{
closed = 1;
nodes = (
"158 0 LINE",
"158 302 LINE",
"325 302 LINE SMOOTH",
"479 302 OFFCURVE",
"565 371 OFFCURVE",
"565 500 CURVE SMOOTH",
"565 625 OFFCURVE",
"468 700 OFFCURVE",
"326 700 CURVE SMOOTH",
"100 700 LINE",
"100 0 LINE"
);
},
{
closed = 1;
nodes = (
"158 646 LINE",
"333 646 LINE SMOOTH",
"441 646 OFFCURVE",
"507 588 OFFCURVE",
"507 498 CURVE SMOOTH",
"507 405 OFFCURVE",
"443 356 OFFCURVE",
"332 356 CURVE SMOOTH",
"158 356 LINE"
);
}
);
width = 620;
}
);
leftKerningGroup = H;
leftMetricsKey = I;
rightKerningGroup = P;
unicode = 0050;
},
{
color = 4;
glyphname = Thorn;
lastChange = "2019-12-20 09:13:02 +0000";
layers = (
{
layerId = "38FA562F-EF2C-4367-983C-F15B205514DC";
paths = (
{
closed = 1;
nodes = (
"158 0 LINE",
"158 161 LINE",
"335 161 LINE SMOOTH",
"489 161 OFFCURVE",
"575 230 OFFCURVE",
"575 359 CURVE SMOOTH",
"575 484 OFFCURVE",
"478 559 OFFCURVE",
"336 559 CURVE SMOOTH",
"158 559 LINE",
"158 700 LINE",
"100 700 LINE",
"100 0 LINE"
);
},
{
closed = 1;
nodes = (
"158 505 LINE",
"343 505 LINE SMOOTH",
"451 505 OFFCURVE",
"517 447 OFFCURVE",
"517 357 CURVE SMOOTH",
"517 264 OFFCURVE",
"453 215 OFFCURVE",
"342 215 CURVE SMOOTH",
"158 215 LINE"
);
}
);
width = 615;
},
{
layerId = "E991CF0C-7E17-4C48-B08A-36C8E595ED17";
paths = (
{
closed = 1;
nodes = (
"280 0 LINE",
"280 118 LINE",
"381 118 LINE SMOOTH",
"561 118 OFFCURVE",
"665 206 OFFCURVE",
"665 360 CURVE SMOOTH",
"665 513 OFFCURVE",
"547 602 OFFCURVE",
"386 602 CURVE SMOOTH",
"280 602 LINE",
"280 700 LINE",
"78 700 LINE",
"78 0 LINE"
);
},
{
closed = 1;
nodes = (
"280 430 LINE",
"374 430 LINE SMOOTH",
"426 430 OFFCURVE",
"463 413 OFFCURVE",
"463 357 CURVE SMOOTH",
"463 303 OFFCURVE",
"429 285 OFFCURVE",
"373 285 CURVE SMOOTH",
"280 285 LINE"
);
}
);
width = 690;
}
);
leftKerningGroup = H;
leftMetricsKey = H;
rightKerningGroup = Thorn;
rightMetricsKey = o;
unicode = 00DE;
},
{
color = 4;
glyphname = Q;
lastChange = "2019-12-20 09:13:02 +0000";
layers = (
{
background = {
paths = (
{
closed = 1;
nodes = (
"787 37 LINE",
"711 120 LINE",
"763 182 OFFCURVE",
"794 263 OFFCURVE",
"794 354 CURVE SMOOTH",
"794 560 OFFCURVE",
"627 715 OFFCURVE",
"417 715 CURVE SMOOTH",
"201 715 OFFCURVE",
"40 558 OFFCURVE",
"40 350 CURVE SMOOTH",
"40 138 OFFCURVE",
"203 -15 OFFCURVE",
"409 -15 CURVE SMOOTH",
"475 -15 OFFCURVE",
"537 0 OFFCURVE",
"593 27 CURVE",
"673 -62 LINE"
);
},
{
closed = 1;
nodes = (
"313 153 OFFCURVE",
"240 234 OFFCURVE",
"240 350 CURVE SMOOTH",
"240 466 OFFCURVE",
"313 539 OFFCURVE",
"417 539 CURVE SMOOTH",
"521 539 OFFCURVE",
"602 466 OFFCURVE",
"602 350 CURVE SMOOTH",
"602 314 OFFCURVE",
"595 283 OFFCURVE",
"583 257 CURVE",
"504 346 LINE",
"400 256 LINE",
"479 163 LINE",
"459 156 OFFCURVE",
"437 153 OFFCURVE",
"417 153 CURVE SMOOTH"
);
}
);
};
layerId = "E991CF0C-7E17-4C48-B08A-36C8E595ED17";
paths = (
{
closed = 1;
nodes = (
"787 37 LINE",
"711 120 LINE",
"763 182 OFFCURVE",
"794 263 OFFCURVE",
"794 354 CURVE SMOOTH",
"794 560 OFFCURVE",
"627 715 OFFCURVE",
"417 715 CURVE SMOOTH",
"201 715 OFFCURVE",
"40 558 OFFCURVE",
"40 350 CURVE SMOOTH",
"40 138 OFFCURVE",
"203 -15 OFFCURVE",
"409 -15 CURVE SMOOTH",
"475 -15 OFFCURVE",
"537 0 OFFCURVE",
"593 27 CURVE",
"673 -62 LINE"
);
},
{
closed = 1;
nodes = (
"313 153 OFFCURVE",
"240 234 OFFCURVE",
"240 350 CURVE SMOOTH",
"240 466 OFFCURVE",
"313 539 OFFCURVE",
"417 539 CURVE SMOOTH",
"521 539 OFFCURVE",
"602 466 OFFCURVE",
"602 350 CURVE SMOOTH",
"602 314 OFFCURVE",
"595 283 OFFCURVE",
"583 257 CURVE",
"504 346 LINE",
"400 256 LINE",
"479 163 LINE",
"459 156 OFFCURVE",
"437 153 OFFCURVE",
"417 153 CURVE SMOOTH"
);
}
);
width = 834;
},
{
background = {
paths = (
{
closed = 1;
nodes = (
"746 9 LINE",
"677 90 LINE",
"742 156 OFFCURVE",
"782 247 OFFCURVE",
"782 350 CURVE SMOOTH",
"782 554 OFFCURVE",
"623 715 OFFCURVE",
"419 715 CURVE SMOOTH",
"213 715 OFFCURVE",
"56 558 OFFCURVE",
"56 350 CURVE SMOOTH",
"56 143 OFFCURVE",
"213 -15 OFFCURVE",
"419 -15 CURVE SMOOTH",
"503 -15 OFFCURVE",
"579 12 OFFCURVE",
"640 57 CURVE",
"709 -25 LINE"
);
},
{
closed = 1;
nodes = (
"251 41 OFFCURVE",
"116 164 OFFCURVE",
"116 350 CURVE SMOOTH",
"116 536 OFFCURVE",
"251 659 OFFCURVE",
"419 659 CURVE SMOOTH",
"587 659 OFFCURVE",
"722 536 OFFCURVE",
"722 350 CURVE SMOOTH",
"722 261 OFFCURVE",
"691 187 OFFCURVE",
"641 133 CURVE",
"518 274 LINE",
"481 240 LINE",
"603 100 LINE",
"552 62 OFFCURVE",
"489 41 OFFCURVE",
"419 41 CURVE SMOOTH"
);
}
);
};
layerId = "38FA562F-EF2C-4367-983C-F15B205514DC";
paths = (
{
closed = 1;
nodes = (
"746 9 LINE",
"677 90 LINE",
"742 156 OFFCURVE",
"782 247 OFFCURVE",
"782 350 CURVE SMOOTH",
"782 554 OFFCURVE",
"623 715 OFFCURVE",
"419 715 CURVE SMOOTH",
"213 715 OFFCURVE",
"56 558 OFFCURVE",
"56 350 CURVE SMOOTH",
"56 143 OFFCURVE",
"213 -15 OFFCURVE",
"419 -15 CURVE SMOOTH",
"503 -15 OFFCURVE",
"579 12 OFFCURVE",
"640 57 CURVE",
"709 -25 LINE"
);
},
{
closed = 1;
nodes = (
"251 41 OFFCURVE",
"116 164 OFFCURVE",
"116 350 CURVE SMOOTH",
"116 536 OFFCURVE",
"251 659 OFFCURVE",
"419 659 CURVE SMOOTH",
"587 659 OFFCURVE",
"722 536 OFFCURVE",
"722 350 CURVE SMOOTH",
"722 261 OFFCURVE",
"691 187 OFFCURVE",
"641 133 CURVE",
"518 274 LINE",
"481 240 LINE",
"603 100 LINE",
"552 62 OFFCURVE",
"489 41 OFFCURVE",
"419 41 CURVE SMOOTH"
);
}
);
width = 838;
}
);
leftKerningGroup = O;
leftMetricsKey = O;
rightKerningGroup = O;
rightMetricsKey = O;
unicode = 0051;
},
{
color = 4;
glyphname = R;
lastChange = "2019-12-20 09:13:02 +0000";
layers = (
{
anchors = (
{
name = bottom;
position = "{367, 0}";
},
{
name = top;
position = "{334, 700}";
}
);
layerId = "E991CF0C-7E17-4C48-B08A-36C8E595ED17";
paths = (
{
closed = 1;
nodes = (
"280 0 LINE",
"280 241 LINE",
"319 241 LINE",
"450 0 LINE",
"688 0 LINE",
"515 286 LINE",
"587 316 OFFCURVE",
"647 380 OFFCURVE",
"647 482 CURVE SMOOTH",
"647 621 OFFCURVE",
"539 700 OFFCURVE",
"375 700 CURVE SMOOTH",
"78 700 LINE",
"78 0 LINE"
);
},
{
closed = 1;
nodes = (
"280 536 LINE",
"355 536 LINE SMOOTH",
"409 536 OFFCURVE",
"443 519 OFFCURVE",
"443 468 CURVE SMOOTH",
"443 417 OFFCURVE",
"409 400 OFFCURVE",
"354 400 CURVE SMOOTH",
"280 400 LINE"
);
}
);
width = 705;
},
{
anchors = (
{
name = bottom;
position = "{342, 0}";
},
{
name = top;
position = "{309, 700}";
}
);
layerId = "38FA562F-EF2C-4367-983C-F15B205514DC";
paths = (
{
closed = 1;
nodes = (
"158 0 LINE",
"158 307 LINE",
"287 307 LINE",
"518 0 LINE",
"592 0 LINE",
"358 308 LINE",
"484 320 OFFCURVE",
"562 393 OFFCURVE",
"562 499 CURVE SMOOTH",
"562 620 OFFCURVE",
"479 700 OFFCURVE",
"345 700 CURVE SMOOTH",
"100 700 LINE",
"100 0 LINE"
);
},
{
closed = 1;
nodes = (
"158 646 LINE",
"340 646 LINE SMOOTH",
"452 646 OFFCURVE",
"504 587 OFFCURVE",
"504 499 CURVE SMOOTH",
"504 414 OFFCURVE",
"439 361 OFFCURVE",
"328 361 CURVE SMOOTH",
"158 361 LINE"
);
}
);
width = 642;
}
);
leftKerningGroup = H;
leftMetricsKey = I;
rightKerningGroup = R;
unicode = 0052;
},
{
color = 6;
glyphname = S;
lastChange = "2020-01-27 11:57:33 +0000";
layers = (
{
anchors = (
{
name = bottom;
position = "{334, 0}";
},
{
name = top;
position = "{344, 700}";
}
);
layerId = "E991CF0C-7E17-4C48-B08A-36C8E595ED17";
paths = (
{
closed = 1;
nodes = (
"508 -15 OFFCURVE",
"623 81 OFFCURVE",
"623 220 CURVE SMOOTH",
"623 323 OFFCURVE",
"561 384 OFFCURVE",
"409 429 CURVE SMOOTH",
"358 444 LINE SMOOTH",
"287 465 OFFCURVE",
"263 473 OFFCURVE",
"263 498 CURVE SMOOTH",
"263 526 OFFCURVE",
"297 546 OFFCURVE",
"350 546 CURVE SMOOTH",
"417 546 OFFCURVE",
"487 517 OFFCURVE",
"522 476 CURVE",
"669 696 LINE",
"648 583 LINE",
"603 663 OFFCURVE",
"480 714 OFFCURVE",
"344 714 CURVE SMOOTH",
"186 714 OFFCURVE",
"68 616 OFFCURVE",
"68 489 CURVE SMOOTH",
"68 388 OFFCURVE",
"128 313 OFFCURVE",
"280 272 CURVE SMOOTH",
"332 258 LINE SMOOTH",
"404 239 OFFCURVE",
"426 224 OFFCURVE",
"426 197 CURVE SMOOTH",
"426 169 OFFCURVE",
"387 153 OFFCURVE",
"334 153 CURVE SMOOTH",
"263 153 OFFCURVE",
"171 185 OFFCURVE",
"130 233 CURVE",
"-11 8 LINE",
"0 123 LINE",
"68 34 OFFCURVE",
"201 -15 OFFCURVE",
"334 -15 CURVE SMOOTH"
);
}
);
width = 649;
},
{
anchors = (
{
name = bottom;
position = "{311, 0}";
},
{
name = top;
position = "{323, 700}";
}
);
layerId = "38FA562F-EF2C-4367-983C-F15B205514DC";
paths = (
{
closed = 1;
nodes = (
"470 -15 OFFCURVE",
"555 64 OFFCURVE",
"555 180 CURVE SMOOTH",
"555 274 OFFCURVE",
"500 329 OFFCURVE",
"384 363 CURVE SMOOTH",
"293 390 LINE SMOOTH",
"171 426 OFFCURVE",
"136 463 OFFCURVE",
"136 525 CURVE SMOOTH",
"136 614 OFFCURVE",
"208 662 OFFCURVE",
"312 662 CURVE SMOOTH",
"380 662 OFFCURVE",
"447 641 OFFCURVE",
"495 604 CURVE",
"542 670 LINE",
"538 640 LINE",
"490 685 OFFCURVE",
"412 715 OFFCURVE",
"323 715 CURVE SMOOTH",
"181 715 OFFCURVE",
"82 642 OFFCURVE",
"82 521 CURVE SMOOTH",
"82 432 OFFCURVE",
"137 379 OFFCURVE",
"258 343 CURVE SMOOTH",
"342 318 LINE SMOOTH",
"464 282 OFFCURVE",
"501 240 OFFCURVE",
"501 176 CURVE SMOOTH",
"501 86 OFFCURVE",
"426 39 OFFCURVE",
"312 39 CURVE SMOOTH",
"234 39 OFFCURVE",
"163 61 OFFCURVE",
"108 102 CURVE",
"62 33 LINE",
"65 63 LINE",
"121 12 OFFCURVE",
"217 -15 OFFCURVE",
"311 -15 CURVE SMOOTH"
);
}
);
width = 617;
}
);
leftKerningGroup = S;
rightKerningGroup = S;
unicode = 0053;
},
{
color = 4;
glyphname = Germandbls;
lastChange = "2020-01-27 13:22:25 +0000";
layers = (
{
background = {
paths = (
{
closed = 1;
nodes = (
"533 -15 OFFCURVE",
"618 43 OFFCURVE",
"618 128 CURVE SMOOTH",
"618 211 OFFCURVE",
"554 246 OFFCURVE",
"488 278 CURVE SMOOTH",
"441 301 OFFCURVE",
"390 324 OFFCURVE",
"390 367 CURVE SMOOTH",
"390 397 OFFCURVE",
"425 420 OFFCURVE",
"454 445 CURVE SMOOTH",
"497 482 OFFCURVE",
"549 512 OFFCURVE",
"549 571 CURVE SMOOTH",
"549 658 OFFCURVE",
"457 715 OFFCURVE",
"325 715 CURVE SMOOTH",
"187 715 OFFCURVE",
"98 637 OFFCURVE",
"98 529 CURVE SMOOTH",
"98 0 LINE",
"156 0 LINE",
"156 514 LINE SMOOTH",
"156 606 OFFCURVE",
"215 660 OFFCURVE",
"328 660 CURVE SMOOTH",
"418 660 OFFCURVE",
"485 626 OFFCURVE",
"485 569 CURVE SMOOTH",
"485 531 OFFCURVE",
"451 509 OFFCURVE",
"407 472 CURVE SMOOTH",
"379 448 OFFCURVE",
"325 414 OFFCURVE",
"325 362 CURVE SMOOTH",
"325 297 OFFCURVE",
"399 261 OFFCURVE",
"452 234 CURVE SMOOTH",
"506 207 OFFCURVE",
"555 180 OFFCURVE",
"555 126 CURVE SMOOTH",
"555 71 OFFCURVE",
"499 38 OFFCURVE",
"411 38 CURVE SMOOTH",
"365 38 OFFCURVE",
"323 46 OFFCURVE",
"286 57 CURVE",
"286 -2 LINE",
"329 -11 OFFCURVE",
"376 -15 OFFCURVE",
"405 -15 CURVE SMOOTH"
);
}
);
};
guideLines = (
{
angle = 40.0608;
position = "{429, 491}";
},
{
angle = 220.7108;
position = "{476, 464}";
}
);
layerId = "38FA562F-EF2C-4367-983C-F15B205514DC";
paths = (
{
closed = 1;
nodes = (
"573 -15 OFFCURVE",
"658 47 OFFCURVE",
"658 148 CURVE SMOOTH",
"658 286 OFFCURVE",
"430 295 OFFCURVE",
"430 407 CURVE SMOOTH",
"430 457 OFFCURVE",
"460 493 OFFCURVE",
"576 611 CURVE",
"576 659 LINE",
"525 687 OFFCURVE",
"460 715 OFFCURVE",
"358 715 CURVE SMOOTH",
"206 715 OFFCURVE",
"98 605 OFFCURVE",
"98 454 CURVE SMOOTH",
"98 0 LINE",
"156 0 LINE",
"156 454 LINE SMOOTH",
"156 580 OFFCURVE",
"232 660 OFFCURVE",
"358 660 CURVE SMOOTH",
"436 660 OFFCURVE",
"476 640 OFFCURVE",
"512 625 CURVE",
"411 525 OFFCURVE",
"365 475 OFFCURVE",
"365 402 CURVE SMOOTH",
"365 249 OFFCURVE",
"595 261 OFFCURVE",
"595 141 CURVE SMOOTH",
"595 75 OFFCURVE",
"539 38 OFFCURVE",
"451 38 CURVE SMOOTH",
"405 38 OFFCURVE",
"363 46 OFFCURVE",
"326 57 CURVE",
"326 -2 LINE",
"369 -11 OFFCURVE",
"416 -15 OFFCURVE",
"445 -15 CURVE SMOOTH"
);
}
);
userData = {
RMXScaler = {
height = 97.3;
weight = 2;
width = 116;
};
};
width = 710;
},
{
background = {
guideLines = (
{
angle = 53.9726;
position = "{655, 427}";
},
{
angle = 53.9726;
position = "{461, 434}";
}
);
paths = (
{
closed = 1;
nodes = (
"661 -13 OFFCURVE",
"773 71 OFFCURVE",
"773 182 CURVE SMOOTH",
"773 247 OFFCURVE",
"722 292 OFFCURVE",
"677 328 CURVE SMOOTH",
"647 352 OFFCURVE",
"630 365 OFFCURVE",
"630 377 CURVE SMOOTH",
"630 387 OFFCURVE",
"637 401 OFFCURVE",
"655 427 CURVE SMOOTH",
"674 455 OFFCURVE",
"699 493 OFFCURVE",
"699 541 CURVE SMOOTH",
"699 644 OFFCURVE",
"581 715 OFFCURVE",
"410 715 CURVE SMOOTH",
"204 715 OFFCURVE",
"76 614 OFFCURVE",
"76 447 CURVE SMOOTH",
"76 0 LINE",
"296 0 LINE",
"296 438 LINE SMOOTH",
"296 500 OFFCURVE",
"336 537 OFFCURVE",
"404 537 CURVE SMOOTH",
"453 537 OFFCURVE",
"487 518 OFFCURVE",
"487 487 CURVE SMOOTH",
"487 467 OFFCURVE",
"469 445 OFFCURVE",
"453 423 CURVE SMOOTH",
"434 397 OFFCURVE",
"415 367 OFFCURVE",
"415 344 CURVE SMOOTH",
"415 302 OFFCURVE",
"454 273 OFFCURVE",
"492 245 CURVE SMOOTH",
"519 225 OFFCURVE",
"546 208 OFFCURVE",
"546 189 CURVE SMOOTH",
"546 162 OFFCURVE",
"515 145 OFFCURVE",
"470 145 CURVE SMOOTH",
"435 145 OFFCURVE",
"398 158 OFFCURVE",
"360 180 CURVE",
"360 4 LINE",
"424 -8 OFFCURVE",
"473 -13 OFFCURVE",
"513 -13 CURVE SMOOTH"
);
}
);
};
layerId = "E991CF0C-7E17-4C48-B08A-36C8E595ED17";
paths = (
{
closed = 1;
nodes = (
"661 -13 OFFCURVE",
"773 75 OFFCURVE",
"773 192 CURVE SMOOTH",
"773 314 OFFCURVE",
"630 346 OFFCURVE",
"630 419 CURVE SMOOTH",
"630 450 OFFCURVE",
"648 481 OFFCURVE",
"710 519 CURVE",
"710 638 LINE",
"625 686 OFFCURVE",
"533 715 OFFCURVE",
"410 715 CURVE SMOOTH",
"215 715 OFFCURVE",
"76 600 OFFCURVE",
"76 408 CURVE SMOOTH",
"76 0 LINE",
"296 0 LINE",
"296 408 LINE SMOOTH",
"296 486 OFFCURVE",
"336 537 OFFCURVE",
"404 537 CURVE SMOOTH",
"446 537 OFFCURVE",
"478 524 OFFCURVE",
"498 508 CURVE",
"441 470 OFFCURVE",
"415 421 OFFCURVE",
"415 389 CURVE SMOOTH",
"415 278 OFFCURVE",
"546 254 OFFCURVE",
"546 197 CURVE SMOOTH",
"546 165 OFFCURVE",
"515 145 OFFCURVE",
"470 145 CURVE SMOOTH",
"435 145 OFFCURVE",
"398 158 OFFCURVE",
"360 180 CURVE",
"360 4 LINE",
"424 -8 OFFCURVE",
"473 -13 OFFCURVE",
"513 -13 CURVE SMOOTH"
);
}
);
userData = {
RMXScaler = {
height = 97.3;
weight = 20;
width = 110;
};
};
width = 802;
}
);
leftMetricsKey = "=H-2";
rightMetricsKey = "=germandbls-10";
unicode = 1E9E;
userData = {
RMXScaler = {
source = germandbls;
};
};
},
{
color = 6;
glyphname = Schwa;
lastChange = "2020-01-27 18:09:08 +0000";
layers = (
{
layerId = "38FA562F-EF2C-4367-983C-F15B205514DC";
paths = (
{
closed = 1;
nodes = (
"598 -15 OFFCURVE",
"744 144 OFFCURVE",
"744 360 CURVE SMOOTH",
"744 571 OFFCURVE",
"600 715 OFFCURVE",
"390 715 CURVE SMOOTH",
"273 715 OFFCURVE",
"169 672 OFFCURVE",
"100 610 CURVE",
"96 640 LINE",
"145 575 LINE",
"204 629 OFFCURVE",
"292 659 OFFCURVE",
"390 659 CURVE SMOOTH",
"569 659 OFFCURVE",
"684 542 OFFCURVE",
"684 360 CURVE SMOOTH",
"684 170 OFFCURVE",
"569 41 OFFCURVE",
"389 41 CURVE SMOOTH",
"233 41 OFFCURVE",
"122 155 OFFCURVE",
"121 320 CURVE",
"97 301 LINE",
"704 301 LINE",
"704 355 LINE",
"57 355 LINE",
"47 142 OFFCURVE",
"187 -15 OFFCURVE",
"389 -15 CURVE SMOOTH"
);
}
);
userData = {
RMXScaler = {
height = 144.3;
verticalShift = 8;
width = 140;
};
};
width = 800;
},
{
background = {
paths = (
{
closed = 1;
nodes = (
"608 -13 OFFCURVE",
"774 147 OFFCURVE",
"774 353 CURVE SMOOTH",
"774 579 OFFCURVE",
"625 715 OFFCURVE",
"382 715 CURVE SMOOTH",
"281 715 OFFCURVE",
"160 678 OFFCURVE",
"91 628 CURVE",
"170 486 LINE",
"225 527 OFFCURVE",
"297 549 OFFCURVE",
"375 549 CURVE SMOOTH",
"513 549 OFFCURVE",
"586 480 OFFCURVE",
"586 353 CURVE SMOOTH",
"586 217 OFFCURVE",
"520 143 OFFCURVE",
"397 143 CURVE SMOOTH",
"284 143 OFFCURVE",
"221 214 OFFCURVE",
"230 338 CURVE",
"150 264 LINE",
"645 264 LINE",
"645 411 LINE",
"40 411 LINE",
"2 175 OFFCURVE",
"163 -13 OFFCURVE",
"399 -13 CURVE SMOOTH"
);
}
);
};
layerId = "E991CF0C-7E17-4C48-B08A-36C8E595ED17";
paths = (
{
closed = 1;
nodes = (
"629 -15 OFFCURVE",
"774 153 OFFCURVE",
"774 350 CURVE SMOOTH",
"774 584 OFFCURVE",
"613 715 OFFCURVE",
"380 715 CURVE SMOOTH",
"221 715 OFFCURVE",
"116 650 OFFCURVE",
"51 589 CURVE",
"40 696 LINE",
"175 462 LINE",
"223 506 OFFCURVE",
"295 528 OFFCURVE",
"367 528 CURVE SMOOTH",
"500 528 OFFCURVE",
"567 460 OFFCURVE",
"567 350 CURVE SMOOTH",
"567 229 OFFCURVE",
"515 154 OFFCURVE",
"395 154 CURVE SMOOTH",
"295 154 OFFCURVE",
"230 214 OFFCURVE",
"238 342 CURVE",
"153 263 LINE",
"650 263 LINE",
"653 411 LINE",
"45 411 LINE",
"10 145 OFFCURVE",
"157 -15 OFFCURVE",
"394 -15 CURVE SMOOTH"
);
}
);
userData = {
RMXScaler = {
height = 135.5;
verticalShift = 7;
width = 140;
};
};
width = 814;
}
);
leftMetricsKey = O;
rightMetricsKey = O;
unicode = 018F;
userData = {
RMXScaler = {
source = schwa;
};
};
},
{
color = 6;
glyphname = T;
lastChange = "2019-12-20 09:18:40 +0000";
layers = (
{
anchors = (
{
name = bar;
position = "{297, 322}";
},
{
name = bottom;
position = "{296, 0}";
},
{
name = top;
position = "{296, 700}";
}
);
layerId = "E991CF0C-7E17-4C48-B08A-36C8E595ED17";
paths = (
{
closed = 1;
nodes = (
"398 0 LINE",
"398 516 LINE",
"578 516 LINE",
"578 700 LINE",
"15 700 LINE",
"15 516 LINE",
"195 516 LINE",
"195 0 LINE"
);
}
);
width = 593;
},
{
anchors = (
{
name = bar;
position = "{271, 361}";
},
{
name = bottom;
position = "{271, 0}";
},
{
name = top;
position = "{271, 700}";
}
);
layerId = "38FA562F-EF2C-4367-983C-F15B205514DC";
paths = (
{
closed = 1;
nodes = (
"300 0 LINE",
"300 646 LINE",
"507 646 LINE",
"507 700 LINE",
"35 700 LINE",
"35 646 LINE",
"242 646 LINE",
"242 0 LINE"
);
}
);
width = 542;
}
);
leftKerningGroup = T;
rightKerningGroup = T;
unicode = 0054;
},
{
color = 4;
glyphname = U;
lastChange = "2019-12-20 09:13:02 +0000";
layers = (
{
anchors = (
{
name = bottom;
position = "{383, 0}";
},
{
name = horn;
position = "{694, 700}";
},
{
name = ogonek;
position = "{495, 0}";
},
{
name = top;
position = "{383, 700}";
}
);
layerId = "E991CF0C-7E17-4C48-B08A-36C8E595ED17";
paths = (
{
closed = 1;
nodes = (
"586 -15 OFFCURVE",
"694 113 OFFCURVE",
"694 298 CURVE SMOOTH",
"694 700 LINE",
"491 700 LINE",
"491 287 LINE SMOOTH",
"491 210 OFFCURVE",
"452 174 OFFCURVE",
"383 174 CURVE SMOOTH",
"313 174 OFFCURVE",
"274 210 OFFCURVE",
"274 287 CURVE SMOOTH",
"274 700 LINE",
"72 700 LINE",
"72 298 LINE SMOOTH",
"72 112 OFFCURVE",
"180 -15 OFFCURVE",
"383 -15 CURVE SMOOTH"
);
}
);
width = 766;
},
{
anchors = (
{
name = bottom;
position = "{360, 0}";
},
{
name = horn;
position = "{626, 700}";
},
{
name = ogonek;
position = "{458, 0}";
},
{
name = top;
position = "{360, 700}";
}
);
layerId = "38FA562F-EF2C-4367-983C-F15B205514DC";
paths = (
{
closed = 1;
nodes = (
"538 -15 OFFCURVE",
"626 109 OFFCURVE",
"626 258 CURVE SMOOTH",
"626 700 LINE",
"568 700 LINE",
"568 266 LINE SMOOTH",
"568 115 OFFCURVE",
"486 41 OFFCURVE",
"360 41 CURVE SMOOTH",
"234 41 OFFCURVE",
"152 115 OFFCURVE",
"152 266 CURVE SMOOTH",
"152 700 LINE",
"94 700 LINE",
"94 258 LINE SMOOTH",
"94 109 OFFCURVE",
"182 -15 OFFCURVE",
"360 -15 CURVE SMOOTH"
);
}
);
width = 720;
}
);
leftKerningGroup = U;
leftMetricsKey = "=I-6";
rightKerningGroup = U;
rightMetricsKey = "=|";
unicode = 0055;
},
{
color = 4;
glyphname = V;
lastChange = "2019-12-20 09:13:02 +0000";
layers = (
{
layerId = "E991CF0C-7E17-4C48-B08A-36C8E595ED17";
paths = (
{
closed = 1;
nodes = (
"477 0 LINE",
"729 700 LINE",
"505 700 LINE",
"362 252 LINE",
"219 700 LINE",
"-9 700 LINE",
"242 0 LINE"
);
}
);
width = 720;
},
{
layerId = "38FA562F-EF2C-4367-983C-F15B205514DC";
paths = (
{
closed = 1;
nodes = (
"345 0 LINE",
"613 700 LINE",
"550 700 LINE",
"321 88 LINE",
"80 700 LINE",
"15 700 LINE",
"295 0 LINE"
);
}
);
width = 628;
}
);
leftKerningGroup = V;
rightKerningGroup = V;
rightMetricsKey = "=|";
unicode = 0056;
},
{
color = 4;
glyphname = W;
lastChange = "2019-12-20 09:13:02 +0000";
layers = (
{
anchors = (
{
name = top;
position = "{526, 700}";
}
);
layerId = "E991CF0C-7E17-4C48-B08A-36C8E595ED17";
paths = (
{
closed = 1;
nodes = (
"415 0 LINE",
"525 403 LINE",
"635 0 LINE",
"828 0 LINE",
"1042 700 LINE",
"839 700 LINE",
"739 309 LINE",
"628 700 LINE",
"429 700 LINE",
"318 309 LINE",
"218 700 LINE",
"10 700 LINE",
"224 0 LINE"
);
}
);
width = 1052;
},
{
anchors = (
{
name = top;
position = "{501, 700}";
}
);
layerId = "38FA562F-EF2C-4367-983C-F15B205514DC";
paths = (
{
closed = 1;
nodes = (
"315 0 LINE",
"502 609 LINE",
"686 0 LINE",
"760 0 LINE",
"968 700 LINE",
"907 700 LINE",
"723 64 LINE",
"535 700 LINE",
"468 700 LINE",
"279 63 LINE",
"95 700 LINE",
"32 700 LINE",
"241 0 LINE"
);
}
);
width = 1000;
}
);
leftKerningGroup = V;
rightKerningGroup = V;
unicode = 0057;
},
{
color = 4;
glyphname = X;
lastChange = "2019-12-20 09:13:02 +0000";
layers = (
{
background = {
paths = (
{
closed = 1;
nodes = (
"247 0 LINE",
"349 193 LINE",
"357 193 LINE",
"459 0 LINE",
"705 0 LINE",
"499 352 LINE",
"702 700 LINE",
"464 700 LINE",
"365 517 LINE",
"357 517 LINE",
"258 700 LINE",
"14 700 LINE",
"217 355 LINE",
"7 0 LINE"
);
}
);
};
layerId = "E991CF0C-7E17-4C48-B08A-36C8E595ED17";
paths = (
{
closed = 1;
nodes = (
"247 0 LINE",
"353 201 LINE",
"459 0 LINE",
"705 0 LINE",
"499 352 LINE",
"702 700 LINE",
"464 700 LINE",
"361 510 LINE",
"258 700 LINE",
"14 700 LINE",
"217 355 LINE",
"7 0 LINE"
);
}
);
width = 712;
},
{
background = {
paths = (
{
closed = 1;
nodes = (
"104 0 LINE",
"315 318 LINE",
"317 318 LINE",
"539 0 LINE",
"607 0 LINE",
"358 358 LINE",
"598 700 LINE",
"533 700 LINE",
"320 401 LINE",
"318 401 LINE",
"122 700 LINE",
"54 700 LINE",
"276 361 LINE",
"39 0 LINE"
);
}
);
};
layerId = "38FA562F-EF2C-4367-983C-F15B205514DC";
paths = (
{
closed = 1;
nodes = (
"104 0 LINE",
"316 320 LINE",
"539 0 LINE",
"607 0 LINE",
"358 358 LINE",
"598 700 LINE",
"533 700 LINE",
"319 400 LINE",
"122 700 LINE",
"54 700 LINE",
"276 361 LINE",
"39 0 LINE"
);
}
);
width = 646;
}
);
leftKerningGroup = X;
rightKerningGroup = X;
rightMetricsKey = "=|";
unicode = 0058;
},
{
color = 4;
glyphname = Y;
lastChange = "2020-02-06 12:38:49 +0000";
layers = (
{
anchors = (
{
name = bottom;
position = "{336, 0}";
},
{
name = top;
position = "{335, 700}";
},
{
name = topleft;
position = "{-30, 700}";
}
);
layerId = "E991CF0C-7E17-4C48-B08A-36C8E595ED17";
paths = (
{
closed = 1;
nodes = (
"437 0 LINE",
"437 284 LINE",
"681 700 LINE",
"462 700 LINE",
"339 479 LINE",
"215 700 LINE",
"-10 700 LINE",
"234 286 LINE",
"234 0 LINE"
);
}
);
width = 671;
},
{
anchors = (
{
name = bottom;
position = "{295, 0}";
},
{
name = top;
position = "{295, 700}";
},
{
name = topleft;
position = "{-10, 700}";
}
);
layerId = "38FA562F-EF2C-4367-983C-F15B205514DC";
paths = (
{
closed = 1;
nodes = (
"324 0 LINE",
"324 312 LINE",
"573 700 LINE",
"505 700 LINE",
"297 369 LINE",
"87 700 LINE",
"17 700 LINE",
"266 312 LINE",
"266 0 LINE"
);
}
);
width = 590;
}
);
leftKerningGroup = Y;
rightKerningGroup = Y;
rightMetricsKey = "=|";
unicode = 0059;
},
{
color = 6;
glyphname = Z;
lastChange = "2020-02-06 12:00:45 +0000";
layers = (
{
anchors = (
{
name = top;
position = "{299, 700}";
}
);
layerId = "E991CF0C-7E17-4C48-B08A-36C8E595ED17";
paths = (
{
closed = 1;
nodes = (
"562 0 LINE",
"562 184 LINE",
"282 184 LINE",
"560 533 LINE",
"560 700 LINE",
"47 700 LINE",
"47 516 LINE",
"315 516 LINE",
"35 168 LINE",
"35 0 LINE"
);
}
);
width = 597;
},
{
anchors = (
{
name = top;
position = "{293, 700}";
}
);
layerId = "38FA562F-EF2C-4367-983C-F15B205514DC";
paths = (
{
closed = 1;
nodes = (
"531 0 LINE",
"531 54 LINE",
"123 54 LINE",
"527 651 LINE",
"527 700 LINE",
"64 700 LINE",
"64 646 LINE",
"458 646 LINE",
"53 49 LINE",
"53 0 LINE"
);
}
);
width = 578;
}
);
leftKerningGroup = Z;
rightKerningGroup = Z;
unicode = 005A;
},
{
color = 6;
glyphname = a;
lastChange = "2020-01-27 18:37:05 +0000";
layers = (
{
anchors = (
{
name = bottom;
position = "{255, 0}";
},
{
name = ogonek;
position = "{453, 0}";
},
{
name = top;
position = "{255, 480}";
}
);
background = {
paths = (
{
closed = 1;
nodes = (
"204 -15 OFFCURVE",
"256 9 OFFCURVE",
"285 51 CURVE",
"285 0 LINE",
"455 0 LINE",
"455 310 LINE SMOOTH",
"455 473 OFFCURVE",
"360 541 OFFCURVE",
"209 541 CURVE SMOOTH",
"131 541 OFFCURVE",
"53 519 OFFCURVE",
"-10 475 CURVE",
"37 345 LINE",
"72 374 OFFCURVE",
"126 391 OFFCURVE",
"166 391 CURVE SMOOTH",
"223 391 OFFCURVE",
"265 375 OFFCURVE",
"265 326 CURVE",
"72 338 OFFCURVE",
"-35 273 OFFCURVE",
"-35 154 CURVE SMOOTH",
"-35 47 OFFCURVE",
"43 -15 OFFCURVE",
"136 -15 CURVE SMOOTH"
);
},
{
closed = 1;
nodes = (
"159 125 OFFCURVE",
"145 138 OFFCURVE",
"145 164 CURVE SMOOTH",
"145 201 OFFCURVE",
"198 217 OFFCURVE",
"265 206 CURVE",
"265 181 LINE SMOOTH",
"265 148 OFFCURVE",
"235 125 OFFCURVE",
"191 125 CURVE SMOOTH"
);
}
);
};
layerId = "38FA562F-EF2C-4367-983C-F15B205514DC";
paths = (
{
closed = 1;
nodes = (
"297 -15 OFFCURVE",
"362 12 OFFCURVE",
"397 63 CURVE",
"397 0 LINE",
"453 0 LINE",
"453 322 LINE SMOOTH",
"453 437 OFFCURVE",
"387 500 OFFCURVE",
"256 500 CURVE SMOOTH",
"198 500 OFFCURVE",
"130 485 OFFCURVE",
"69 434 CURVE",
"75 469 LINE",
"105 396 LINE",
"154 432 OFFCURVE",
"204 446 OFFCURVE",
"255 446 CURVE SMOOTH",
"344 446 OFFCURVE",
"397 399 OFFCURVE",
"397 322 CURVE SMOOTH",
"397 175 LINE SMOOTH",
"397 97 OFFCURVE",
"326 39 OFFCURVE",
"232 39 CURVE SMOOTH",
"157 39 OFFCURVE",
"113 75 OFFCURVE",
"113 135 CURVE SMOOTH",
"113 203 OFFCURVE",
"187 258 OFFCURVE",
"423 229 CURVE",
"420 279 LINE",
"152 309 OFFCURVE",
"57 234 OFFCURVE",
"57 135 CURVE SMOOTH",
"57 45 OFFCURVE",
"119 -15 OFFCURVE",
"224 -15 CURVE SMOOTH"
);
}
);
width = 534;
},
{
anchors = (
{
name = bottom;
position = "{294, 0}";
},
{
name = ogonek;
position = "{553, 0}";
},
{
name = top;
position = "{294, 520}";
}
);
layerId = "E991CF0C-7E17-4C48-B08A-36C8E595ED17";
paths = (
{
closed = 1;
nodes = (
"293 -15 OFFCURVE",
"351 9 OFFCURVE",
"383 51 CURVE",
"383 0 LINE",
"553 0 LINE",
"553 310 LINE SMOOTH",
"553 472 OFFCURVE",
"443 540 OFFCURVE",
"294 540 CURVE SMOOTH",
"193 540 OFFCURVE",
"81 505 OFFCURVE",
"7 435 CURVE",
"32 559 LINE",
"111 344 LINE",
"150 373 OFFCURVE",
"210 390 OFFCURVE",
"253 390 CURVE SMOOTH",
"343 390 OFFCURVE",
"363 355 OFFCURVE",
"363 307 CURVE SMOOTH",
"363 201 LINE SMOOTH",
"363 148 OFFCURVE",
"325 125 OFFCURVE",
"280 125 CURVE SMOOTH",
"242 125 OFFCURVE",
"218 138 OFFCURVE",
"218 164 CURVE SMOOTH",
"218 216 OFFCURVE",
"299 225 OFFCURVE",
"390 205 CURVE",
"389 324 LINE",
"160 343 OFFCURVE",
"37 278 OFFCURVE",
"37 154 CURVE SMOOTH",
"37 47 OFFCURVE",
"120 -15 OFFCURVE",
"220 -15 CURVE SMOOTH"
);
}
);
width = 613;
}
);
rightMetricsKey = n;
unicode = 0061;
},
{
color = 6;
glyphname = ae;
lastChange = "2020-01-27 15:07:11 +0000";
layers = (
{
anchors = (
{
name = top;
position = "{482, 520}";
}
);
background = {
paths = (
{
closed = 1;
nodes = (
"334 -15 OFFCURVE",
"384 2 OFFCURVE",
"419 31 CURVE",
"419 0 LINE",
"534 0 LINE",
"534 31 LINE",
"575 0 OFFCURVE",
"626 -15 OFFCURVE",
"693 -15 CURVE SMOOTH",
"769 -15 OFFCURVE",
"868 14 OFFCURVE",
"911 49 CURVE",
"854 181 LINE",
"797 149 OFFCURVE",
"745 135 OFFCURVE",
"684 135 CURVE SMOOTH",
"621 135 OFFCURVE",
"574 163 OFFCURVE",
"570 204 CURVE",
"941 204 LINE",
"978 391 OFFCURVE",
"868 535 OFFCURVE",
"688 535 CURVE SMOOTH",
"633 535 OFFCURVE",
"581 519 OFFCURVE",
"534 489 CURVE",
"534 520 LINE",
"419 520 LINE",
"419 489 LINE",
"384 518 OFFCURVE",
"334 535 OFFCURVE",
"277 535 CURVE SMOOTH",
"134 535 OFFCURVE",
"25 430 OFFCURVE",
"25 260 CURVE SMOOTH",
"25 90 OFFCURVE",
"134 -15 OFFCURVE",
"277 -15 CURVE SMOOTH"
);
},
{
closed = 1;
nodes = (
"261 155 OFFCURVE",
"218 195 OFFCURVE",
"218 260 CURVE SMOOTH",
"218 325 OFFCURVE",
"261 365 OFFCURVE",
"314 365 CURVE SMOOTH",
"367 365 OFFCURVE",
"410 325 OFFCURVE",
"410 260 CURVE SMOOTH",
"410 195 OFFCURVE",
"367 155 OFFCURVE",
"314 155 CURVE SMOOTH"
);
},
{
closed = 1;
nodes = (
"585 370 OFFCURVE",
"623 395 OFFCURVE",
"676 395 CURVE SMOOTH",
"724 395 OFFCURVE",
"759 370 OFFCURVE",
"759 334 CURVE",
"583 334 LINE"
);
}
);
};
layerId = "E991CF0C-7E17-4C48-B08A-36C8E595ED17";
paths = (
{
closed = 1;
nodes = (
"356 -15 OFFCURVE",
"422 18 OFFCURVE",
"453 71 CURVE",
"419 121 LINE",
"419 0 LINE",
"534 0 LINE",
"534 121 LINE",
"494 70 LINE",
"541 13 OFFCURVE",
"602 -15 OFFCURVE",
"693 -15 CURVE SMOOTH",
"769 -15 OFFCURVE",
"868 14 OFFCURVE",
"911 49 CURVE",
"854 181 LINE",
"797 149 OFFCURVE",
"745 135 OFFCURVE",
"684 135 CURVE SMOOTH",
"621 135 OFFCURVE",
"574 163 OFFCURVE",
"570 204 CURVE",
"941 204 LINE",
"978 391 OFFCURVE",
"868 535 OFFCURVE",
"688 535 CURVE SMOOTH",
"613 535 OFFCURVE",
"543 505 OFFCURVE",
"484 450 CURVE",
"534 399 LINE",
"534 520 LINE",
"419 520 LINE",
"419 399 LINE",
"453 449 LINE",
"422 502 OFFCURVE",
"356 535 OFFCURVE",
"277 535 CURVE SMOOTH",
"134 535 OFFCURVE",
"25 430 OFFCURVE",
"25 260 CURVE SMOOTH",
"25 90 OFFCURVE",
"134 -15 OFFCURVE",
"277 -15 CURVE SMOOTH"
);
},
{
closed = 1;
nodes = (
"261 155 OFFCURVE",
"218 195 OFFCURVE",
"218 260 CURVE SMOOTH",
"218 325 OFFCURVE",
"261 365 OFFCURVE",
"314 365 CURVE SMOOTH",
"367 365 OFFCURVE",
"410 325 OFFCURVE",
"410 260 CURVE SMOOTH",
"410 195 OFFCURVE",
"367 155 OFFCURVE",
"314 155 CURVE SMOOTH"
);
},
{
closed = 1;
nodes = (
"585 370 OFFCURVE",
"623 395 OFFCURVE",
"676 395 CURVE SMOOTH",
"724 395 OFFCURVE",
"759 370 OFFCURVE",
"759 334 CURVE",
"583 334 LINE"
);
}
);
width = 973;
},
{
anchors = (
{
name = top;
position = "{518, 480}";
}
);
background = {
paths = (
{
closed = 1;
nodes = (
"390 -15 OFFCURVE",
"450 30 OFFCURVE",
"491 88 CURVE",
"482 101 LINE",
"482 0 LINE",
"538 0 LINE",
"538 102 LINE",
"529 90 LINE",
"573 24 OFFCURVE",
"649 -15 OFFCURVE",
"741 -15 CURVE SMOOTH",
"804 -15 OFFCURVE",
"873 4 OFFCURVE",
"923 45 CURVE",
"890 92 LINE",
"854 58 OFFCURVE",
"799 39 OFFCURVE",
"748 39 CURVE SMOOTH",
"620 39 OFFCURVE",
"542 117 OFFCURVE",
"548 234 CURVE",
"955 234 LINE",
"969 382 OFFCURVE",
"880 495 OFFCURVE",
"732 495 CURVE SMOOTH",
"646 495 OFFCURVE",
"572 455 OFFCURVE",
"529 389 CURVE",
"538 377 LINE",
"538 480 LINE",
"482 480 LINE",
"482 377 LINE",
"491 390 LINE",
"450 449 OFFCURVE",
"390 495 OFFCURVE",
"292 495 CURVE SMOOTH",
"142 495 OFFCURVE",
"40 379 OFFCURVE",
"40 240 CURVE SMOOTH",
"40 101 OFFCURVE",
"142 -15 OFFCURVE",
"292 -15 CURVE SMOOTH"
);
},
{
closed = 1;
nodes = (
"180 39 OFFCURVE",
"100 117 OFFCURVE",
"100 240 CURVE SMOOTH",
"100 363 OFFCURVE",
"180 441 OFFCURVE",
"293 441 CURVE SMOOTH",
"406 441 OFFCURVE",
"486 363 OFFCURVE",
"486 240 CURVE SMOOTH",
"486 117 OFFCURVE",
"406 39 OFFCURVE",
"293 39 CURVE SMOOTH"
);
},
{
closed = 1;
nodes = (
"556 384 OFFCURVE",
"631 441 OFFCURVE",
"732 441 CURVE SMOOTH",
"836 441 OFFCURVE",
"896 384 OFFCURVE",
"895 286 CURVE",
"550 286 LINE"
);
}
);
};
layerId = "38FA562F-EF2C-4367-983C-F15B205514DC";
paths = (
{
closed = 1;
nodes = (
"390 -15 OFFCURVE",
"450 30 OFFCURVE",
"491 88 CURVE",
"482 101 LINE",
"482 0 LINE",
"538 0 LINE",
"538 102 LINE",
"529 90 LINE",
"573 24 OFFCURVE",
"649 -15 OFFCURVE",
"741 -15 CURVE SMOOTH",
"804 -15 OFFCURVE",
"873 4 OFFCURVE",
"923 45 CURVE",
"890 92 LINE",
"854 58 OFFCURVE",
"799 39 OFFCURVE",
"748 39 CURVE SMOOTH",
"620 39 OFFCURVE",
"542 117 OFFCURVE",
"548 234 CURVE",
"955 234 LINE",
"969 382 OFFCURVE",
"880 495 OFFCURVE",
"732 495 CURVE SMOOTH",
"646 495 OFFCURVE",
"572 455 OFFCURVE",
"529 389 CURVE",
"538 377 LINE",
"538 480 LINE",
"482 480 LINE",
"482 377 LINE",
"491 390 LINE",
"450 449 OFFCURVE",
"390 495 OFFCURVE",
"292 495 CURVE SMOOTH",
"142 495 OFFCURVE",
"40 379 OFFCURVE",
"40 240 CURVE SMOOTH",
"40 101 OFFCURVE",
"142 -15 OFFCURVE",
"292 -15 CURVE SMOOTH"
);
},
{
closed = 1;
nodes = (
"180 39 OFFCURVE",
"100 117 OFFCURVE",
"100 240 CURVE SMOOTH",
"100 363 OFFCURVE",
"180 441 OFFCURVE",
"293 441 CURVE SMOOTH",
"406 441 OFFCURVE",
"486 363 OFFCURVE",
"486 240 CURVE SMOOTH",
"486 117 OFFCURVE",
"406 39 OFFCURVE",
"293 39 CURVE SMOOTH"
);
},
{
closed = 1;
nodes = (
"556 384 OFFCURVE",
"631 441 OFFCURVE",
"732 441 CURVE SMOOTH",
"836 441 OFFCURVE",
"896 384 OFFCURVE",
"895 286 CURVE",
"550 286 LINE"
);
}
);
width = 996;
}
);
leftKerningGroup = o;
leftMetricsKey = o;
rightKerningGroup = o;
rightMetricsKey = e;
unicode = 00E6;
},
{
color = 6;
glyphname = b;
lastChange = "2020-01-27 18:16:36 +0000";
layers = (
{
layerId = "E991CF0C-7E17-4C48-B08A-36C8E595ED17";
paths = (
{
closed = 1;
nodes = (
"546 -15 OFFCURVE",
"657 90 OFFCURVE",
"657 260 CURVE SMOOTH",
"657 417 OFFCURVE",
"548 535 OFFCURVE",
"396 535 CURVE SMOOTH",
"326 535 OFFCURVE",
"265 509 OFFCURVE",
"217 450 CURVE",
"263 404 LINE",
"263 720 LINE",
"64 720 LINE",
"64 0 LINE",
"234 0 LINE",
"234 141 LINE",
"207 96 LINE",
"232 29 OFFCURVE",
"307 -15 OFFCURVE",
"400 -15 CURVE SMOOTH"
);
},
{
closed = 1;
nodes = (
"307 155 OFFCURVE",
"263 195 OFFCURVE",
"263 260 CURVE SMOOTH",
"263 325 OFFCURVE",
"306 365 OFFCURVE",
"363 365 CURVE SMOOTH",
"420 365 OFFCURVE",
"463 325 OFFCURVE",
"463 260 CURVE SMOOTH",
"463 195 OFFCURVE",
"419 155 OFFCURVE",
"363 155 CURVE SMOOTH"
);
}
);
width = 682;
},
{
layerId = "38FA562F-EF2C-4367-983C-F15B205514DC";
paths = (
{
closed = 1;
nodes = (
"489 -15 OFFCURVE",
"587 101 OFFCURVE",
"587 240 CURVE SMOOTH",
"587 379 OFFCURVE",
"489 495 OFFCURVE",
"344 495 CURVE SMOOTH",
"242 495 OFFCURVE",
"174 445 OFFCURVE",
"132 379 CURVE",
"141 367 LINE",
"141 720 LINE",
"85 720 LINE",
"85 0 LINE",
"141 0 LINE",
"141 113 LINE",
"132 101 LINE",
"174 34 OFFCURVE",
"242 -15 OFFCURVE",
"344 -15 CURVE SMOOTH"
);
},
{
closed = 1;
nodes = (
"221 39 OFFCURVE",
"141 117 OFFCURVE",
"141 240 CURVE SMOOTH",
"141 363 OFFCURVE",
"221 441 OFFCURVE",
"334 441 CURVE SMOOTH",
"447 441 OFFCURVE",
"527 363 OFFCURVE",
"527 240 CURVE SMOOTH",
"527 117 OFFCURVE",
"447 39 OFFCURVE",
"334 39 CURVE SMOOTH"
);
}
);
width = 627;
}
);
leftKerningGroup = h;
leftMetricsKey = l;
rightKerningGroup = o;
rightMetricsKey = o;
unicode = 0062;
},
{
color = 6;
glyphname = c;
lastChange = "2020-01-29 20:33:53 +0000";
layers = (
{
anchors = (
{
name = bottom;
position = "{296, 0}";
},
{
name = top;
position = "{302, 520}";
}
);
layerId = "E991CF0C-7E17-4C48-B08A-36C8E595ED17";
paths = (
{
closed = 1;
nodes = (
"414 -15 OFFCURVE",
"522 27 OFFCURVE",
"579 94 CURVE",
"579 -23 LINE",
"461 212 LINE",
"422 173 OFFCURVE",
"382 155 OFFCURVE",
"337 155 CURVE SMOOTH",
"265 155 OFFCURVE",
"222 194 OFFCURVE",
"222 260 CURVE SMOOTH",
"222 327 OFFCURVE",
"264 365 OFFCURVE",
"336 365 CURVE SMOOTH",
"376 365 OFFCURVE",
"415 350 OFFCURVE",
"448 314 CURVE",
"580 544 LINE",
"576 426 LINE",
"516 497 OFFCURVE",
"426 535 OFFCURVE",
"322 535 CURVE SMOOTH",
"154 535 OFFCURVE",
"25 416 OFFCURVE",
"25 260 CURVE SMOOTH",
"25 103 OFFCURVE",
"150 -15 OFFCURVE",
"316 -15 CURVE SMOOTH"
);
}
);
width = 555;
},
{
anchors = (
{
name = bottom;
position = "{277, 0}";
},
{
name = top;
position = "{283, 480}";
}
);
layerId = "38FA562F-EF2C-4367-983C-F15B205514DC";
paths = (
{
closed = 1;
nodes = (
"365 -15 OFFCURVE",
"424 11 OFFCURVE",
"477 55 CURVE",
"480 25 LINE",
"425 87 LINE",
"400 60 OFFCURVE",
"352 39 OFFCURVE",
"300 39 CURVE SMOOTH",
"177 39 OFFCURVE",
"100 115 OFFCURVE",
"100 241 CURVE SMOOTH",
"100 367 OFFCURVE",
"178 441 OFFCURVE",
"301 441 CURVE SMOOTH",
"347 441 OFFCURVE",
"389 428 OFFCURVE",
"418 404 CURVE",
"467 470 LINE",
"466 439 LINE",
"419 478 OFFCURVE",
"368 495 OFFCURVE",
"305 495 CURVE SMOOTH",
"151 495 OFFCURVE",
"40 389 OFFCURVE",
"40 240 CURVE SMOOTH",
"40 93 OFFCURVE",
"146 -15 OFFCURVE",
"297 -15 CURVE SMOOTH"
);
}
);
width = 505;
}
);
leftKerningGroup = o;
leftMetricsKey = o;
rightKerningGroup = c;
unicode = 0063;
},
{
color = 6;
glyphname = d;
lastChange = "2019-12-20 09:34:51 +0000";
layers = (
{
anchors = (
{
name = bar;
position = "{499, 612}";
},
{
name = caron;
position = "{618, 720}";
}
);
layerId = "E991CF0C-7E17-4C48-B08A-36C8E595ED17";
paths = (
{
closed = 1;
nodes = (
"375 -15 OFFCURVE",
"450 29 OFFCURVE",
"475 96 CURVE",
"448 141 LINE",
"448 0 LINE",
"618 0 LINE",
"618 720 LINE",
"418 720 LINE",
"418 404 LINE",
"465 450 LINE",
"417 509 OFFCURVE",
"356 535 OFFCURVE",
"286 535 CURVE SMOOTH",
"134 535 OFFCURVE",
"25 417 OFFCURVE",
"25 260 CURVE SMOOTH",
"25 90 OFFCURVE",
"136 -15 OFFCURVE",
"282 -15 CURVE SMOOTH"
);
},
{
closed = 1;
nodes = (
"263 155 OFFCURVE",
"219 195 OFFCURVE",
"219 260 CURVE SMOOTH",
"219 325 OFFCURVE",
"262 365 OFFCURVE",
"319 365 CURVE SMOOTH",
"376 365 OFFCURVE",
"419 325 OFFCURVE",
"419 260 CURVE SMOOTH",
"419 195 OFFCURVE",
"375 155 OFFCURVE",
"319 155 CURVE SMOOTH"
);
}
);
width = 682;
},
{
anchors = (
{
name = bar;
position = "{486, 602}";
},
{
name = caron;
position = "{542, 720}";
}
);
layerId = "38FA562F-EF2C-4367-983C-F15B205514DC";
paths = (
{
closed = 1;
nodes = (
"392 -15 OFFCURVE",
"452 32 OFFCURVE",
"495 93 CURVE",
"486 106 LINE",
"486 0 LINE",
"542 0 LINE",
"542 720 LINE",
"486 720 LINE",
"486 371 LINE",
"495 383 LINE",
"453 449 OFFCURVE",
"385 495 OFFCURVE",
"283 495 CURVE SMOOTH",
"138 495 OFFCURVE",
"40 379 OFFCURVE",
"40 240 CURVE SMOOTH",
"40 101 OFFCURVE",
"138 -15 OFFCURVE",
"283 -15 CURVE SMOOTH"
);
},
{
closed = 1;
nodes = (
"180 39 OFFCURVE",
"100 117 OFFCURVE",
"100 240 CURVE SMOOTH",
"100 363 OFFCURVE",
"180 441 OFFCURVE",
"293 441 CURVE SMOOTH",
"406 441 OFFCURVE",
"486 363 OFFCURVE",
"486 240 CURVE SMOOTH",
"486 117 OFFCURVE",
"406 39 OFFCURVE",
"293 39 CURVE SMOOTH"
);
}
);
width = 627;
}
);
leftKerningGroup = o;
leftMetricsKey = o;
rightKerningGroup = d;
rightMetricsKey = l;
unicode = 0064;
},
{
color = 4;
glyphname = eth;
lastChange = "2020-01-27 18:36:05 +0000";
layers = (
{
layerId = "38FA562F-EF2C-4367-983C-F15B205514DC";
paths = (
{
closed = 1;
nodes = (
"425 -15 OFFCURVE",
"531 99 OFFCURVE",
"531 245 CURVE SMOOTH",
"531 423 OFFCURVE",
"430 590 OFFCURVE",
"227 735 CURVE",
"178 701 LINE",
"305 617 OFFCURVE",
"393 517 OFFCURVE",
"442 408 CURVE",
"436 432 LINE",
"395 465 OFFCURVE",
"342 485 OFFCURVE",
"283 485 CURVE SMOOTH",
"144 485 OFFCURVE",
"40 371 OFFCURVE",
"40 235 CURVE SMOOTH",
"40 99 OFFCURVE",
"144 -15 OFFCURVE",
"283 -15 CURVE SMOOTH"
);
},
{
closed = 1;
nodes = (
"176 39 OFFCURVE",
"100 115 OFFCURVE",
"100 235 CURVE SMOOTH",
"100 355 OFFCURVE",
"176 431 OFFCURVE",
"283 431 CURVE SMOOTH",
"393 431 OFFCURVE",
"471 355 OFFCURVE",
"471 235 CURVE SMOOTH",
"471 115 OFFCURVE",
"393 39 OFFCURVE",
"283 39 CURVE SMOOTH"
);
},
{
closed = 1;
nodes = (
"302 616 LINE",
"302 617 LINE",
"429 678 LINE",
"429 727 LINE",
"302 666 LINE",
"302 665 LINE",
"167 602 LINE",
"167 553 LINE"
);
}
);
width = 576;
},
{
layerId = "E991CF0C-7E17-4C48-B08A-36C8E595ED17";
paths = (
{
closed = 1;
nodes = (
"479 -15 OFFCURVE",
"603 114 OFFCURVE",
"603 276 CURVE SMOOTH",
"603 464 OFFCURVE",
"461 633 OFFCURVE",
"260 733 CURVE",
"113 630 LINE",
"227 577 OFFCURVE",
"318 508 OFFCURVE",
"367 440 CURVE",
"420 418 LINE",
"383 458 OFFCURVE",
"326 465 OFFCURVE",
"287 465 CURVE SMOOTH",
"140 465 OFFCURVE",
"25 360 OFFCURVE",
"25 230 CURVE SMOOTH",
"25 90 OFFCURVE",
"143 -15 OFFCURVE",
"309 -15 CURVE SMOOTH"
);
},
{
closed = 1;
nodes = (
"256 150 OFFCURVE",
"219 187 OFFCURVE",
"219 240 CURVE SMOOTH",
"219 293 OFFCURVE",
"256 330 OFFCURVE",
"309 330 CURVE SMOOTH",
"362 330 OFFCURVE",
"399 293 OFFCURVE",
"399 240 CURVE SMOOTH",
"399 187 OFFCURVE",
"362 150 OFFCURVE",
"309 150 CURVE SMOOTH"
);
},
{
closed = 1;
nodes = (
"315 534 LINE",
"315 541 LINE",
"500 626 LINE",
"500 735 LINE",
"315 650 LINE",
"315 643 LINE",
"129 560 LINE",
"129 451 LINE"
);
}
);
width = 633;
}
);
leftMetricsKey = o;
rightMetricsKey = "=o+5";
unicode = 00F0;
},
{
color = 4;
glyphname = dcroat;
lastChange = "2019-12-20 09:13:02 +0000";
layers = (
{
components = (
{
name = d;
}
);
layerId = "38FA562F-EF2C-4367-983C-F15B205514DC";
paths = (
{
closed = 1;
nodes = (
"611 576 LINE",
"611 628 LINE",
"301 628 LINE",
"301 576 LINE"
);
}
);
width = 627;
},
{
components = (
{
name = d;
}
);
layerId = "E991CF0C-7E17-4C48-B08A-36C8E595ED17";
paths = (
{
closed = 1;
nodes = (
"679 559 LINE",
"679 665 LINE",
"279 665 LINE",
"279 559 LINE"
);
}
);
width = 682;
}
);
leftKerningGroup = o;
rightKerningGroup = d;
unicode = 0111;
},
{
color = 6;
glyphname = e;
lastChange = "2020-01-27 15:05:18 +0000";
layers = (
{
anchors = (
{
name = bottom;
position = "{298, 0}";
},
{
name = ogonek;
position = "{430, 0}";
},
{
name = top;
position = "{308, 520}";
}
);
layerId = "E991CF0C-7E17-4C48-B08A-36C8E595ED17";
paths = (
{
closed = 1;
nodes = (
"416 -15 OFFCURVE",
"556 30 OFFCURVE",
"570 76 CURVE",
"584 -33 LINE",
"490 181 LINE",
"436 149 OFFCURVE",
"383 135 OFFCURVE",
"320 135 CURVE SMOOTH",
"255 135 OFFCURVE",
"208 163 OFFCURVE",
"204 204 CURVE",
"579 204 LINE",
"617 393 OFFCURVE",
"503 535 OFFCURVE",
"314 535 CURVE SMOOTH",
"145 535 OFFCURVE",
"25 422 OFFCURVE",
"25 261 CURVE SMOOTH",
"25 95 OFFCURVE",
"141 -15 OFFCURVE",
"316 -15 CURVE SMOOTH"
);
},
{
closed = 1;
nodes = (
"220 370 OFFCURVE",
"257 395 OFFCURVE",
"308 395 CURVE SMOOTH",
"357 395 OFFCURVE",
"391 370 OFFCURVE",
"391 334 CURVE",
"217 334 LINE"
);
}
);
width = 611;
},
{
anchors = (
{
name = bottom;
position = "{278, 0}";
},
{
name = ogonek;
position = "{390, 0}";
},
{
name = top;
position = "{286, 480}";
}
);
layerId = "38FA562F-EF2C-4367-983C-F15B205514DC";
paths = (
{
closed = 1;
nodes = (
"363 -15 OFFCURVE",
"439 7 OFFCURVE",
"489 56 CURVE",
"491 24 LINE",
"444 92 LINE",
"408 58 OFFCURVE",
"353 39 OFFCURVE",
"302 39 CURVE SMOOTH",
"174 39 OFFCURVE",
"96 117 OFFCURVE",
"102 234 CURVE",
"509 234 LINE",
"523 382 OFFCURVE",
"434 495 OFFCURVE",
"286 495 CURVE SMOOTH",
"146 495 OFFCURVE",
"40 385 OFFCURVE",
"40 238 CURVE SMOOTH",
"40 87 OFFCURVE",
"145 -15 OFFCURVE",
"295 -15 CURVE SMOOTH"
);
},
{
closed = 1;
nodes = (
"110 384 OFFCURVE",
"185 441 OFFCURVE",
"286 441 CURVE SMOOTH",
"390 441 OFFCURVE",
"450 384 OFFCURVE",
"449 286 CURVE",
"104 286 LINE"
);
}
);
width = 550;
}
);
leftKerningGroup = o;
leftMetricsKey = o;
rightKerningGroup = e;
rightMetricsKey = o;
unicode = 0065;
},
{
color = 6;
glyphname = schwa;
lastChange = "2020-01-27 18:07:58 +0000";
layers = (
{
layerId = "38FA562F-EF2C-4367-983C-F15B205514DC";
paths = (
{
closed = 1;
nodes = (
"411 -15 OFFCURVE",
"510 93 OFFCURVE",
"510 249 CURVE SMOOTH",
"510 398 OFFCURVE",
"410 495 OFFCURVE",
"259 495 CURVE SMOOTH",
"183 495 OFFCURVE",
"112 468 OFFCURVE",
"63 420 CURVE",
"61 452 LINE",
"105 387 LINE",
"142 421 OFFCURVE",
"196 441 OFFCURVE",
"259 441 CURVE SMOOTH",
"369 441 OFFCURVE",
"448 364 OFFCURVE",
"448 249 CURVE SMOOTH",
"448 114 OFFCURVE",
"384 39 OFFCURVE",
"269 39 CURVE SMOOTH",
"171 39 OFFCURVE",
"102 106 OFFCURVE",
"102 219 CURVE",
"79 199 LINE",
"459 199 LINE",
"461 251 LINE",
"42 251 LINE",
"24 91 OFFCURVE",
"130 -15 OFFCURVE",
"269 -15 CURVE SMOOTH"
);
}
);
width = 550;
},
{
background = {
paths = (
{
closed = 1;
nodes = (
"468 -15 OFFCURVE",
"584 106 OFFCURVE",
"584 259 CURVE SMOOTH",
"584 429 OFFCURVE",
"468 535 OFFCURVE",
"293 535 CURVE SMOOTH",
"213 535 OFFCURVE",
"107 506 OFFCURVE",
"61 471 CURVE",
"119 339 LINE",
"173 371 OFFCURVE",
"226 385 OFFCURVE",
"289 385 CURVE SMOOTH",
"351 385 OFFCURVE",
"397 359 OFFCURVE",
"404 321 CURVE",
"31 321 LINE",
"-11 140 OFFCURVE",
"107 -15 OFFCURVE",
"305 -15 CURVE SMOOTH"
);
},
{
closed = 1;
nodes = (
"249 125 OFFCURVE",
"219 152 OFFCURVE",
"218 191 CURVE",
"392 191 LINE",
"392 152 OFFCURVE",
"358 125 OFFCURVE",
"301 125 CURVE SMOOTH"
);
}
);
};
layerId = "E991CF0C-7E17-4C48-B08A-36C8E595ED17";
paths = (
{
closed = 1;
nodes = (
"464 -15 OFFCURVE",
"586 104 OFFCURVE",
"586 263 CURVE SMOOTH",
"586 432 OFFCURVE",
"471 535 OFFCURVE",
"281 535 CURVE SMOOTH",
"187 535 OFFCURVE",
"53 486 OFFCURVE",
"39 438 CURVE",
"25 549 LINE",
"119 335 LINE",
"168 368 OFFCURVE",
"222 385 OFFCURVE",
"280 385 CURVE SMOOTH",
"370 385 OFFCURVE",
"415 345 OFFCURVE",
"415 263 CURVE SMOOTH",
"415 172 OFFCURVE",
"375 125 OFFCURVE",
"299 125 CURVE SMOOTH",
"230 125 OFFCURVE",
"194 169 OFFCURVE",
"194 253 CURVE",
"128 191 LINE",
"472 191 LINE",
"472 321 LINE",
"31 321 LINE",
"-3 131 OFFCURVE",
"115 -15 OFFCURVE",
"303 -15 CURVE SMOOTH"
);
}
);
width = 611;
}
);
leftMetricsKey = "=|e";
rightMetricsKey = o;
unicode = 0259;
},
{
color = 6;
glyphname = f;
lastChange = "2020-01-27 15:44:17 +0000";
layers = (
{
layerId = "E991CF0C-7E17-4C48-B08A-36C8E595ED17";
paths = (
{
closed = 1;
nodes = (
"302 0 LINE",
"302 364 LINE",
"423 364 LINE",
"423 520 LINE",
"302 520 LINE",
"302 532 LINE SMOOTH",
"302 557 OFFCURVE",
"320 572 OFFCURVE",
"353 572 CURVE SMOOTH",
"369 572 OFFCURVE",
"386 569 OFFCURVE",
"405 558 CURVE",
"432 708 LINE",
"390 728 OFFCURVE",
"349 735 OFFCURVE",
"308 735 CURVE SMOOTH",
"174 735 OFFCURVE",
"102 659 OFFCURVE",
"102 543 CURVE SMOOTH",
"102 0 LINE"
);
},
{
closed = 1;
nodes = (
"118 364 LINE",
"118 520 LINE",
"20 520 LINE",
"20 364 LINE"
);
}
);
width = 432;
},
{
layerId = "38FA562F-EF2C-4367-983C-F15B205514DC";
paths = (
{
closed = 1;
nodes = (
"205 0 LINE",
"205 428 LINE",
"340 428 LINE",
"340 480 LINE",
"205 480 LINE",
"205 595 LINE SMOOTH",
"205 660 OFFCURVE",
"239 681 OFFCURVE",
"285 681 CURVE SMOOTH",
"302 681 OFFCURVE",
"321 677 OFFCURVE",
"341 667 CURVE",
"357 716 LINE",
"341 726 OFFCURVE",
"317 735 OFFCURVE",
"284 735 CURVE SMOOTH",
"203 735 OFFCURVE",
"150 684 OFFCURVE",
"150 596 CURVE SMOOTH",
"150 0 LINE"
);
},
{
closed = 1;
nodes = (
"163 428 LINE",
"163 480 LINE",
"40 480 LINE",
"40 428 LINE"
);
}
);
width = 357;
}
);
leftKerningGroup = f;
rightKerningGroup = f;
unicode = 0066;
},
{
color = 6;
glyphname = g;
lastChange = "2020-01-27 19:49:48 +0000";
layers = (
{
anchors = (
{
name = top;
position = "{296, 480}";
}
);
background = {
paths = (
{
closed = 1;
nodes = (
"570 428 LINE",
"571 480 LINE",
"561 480 LINE",
"343 480 LINE",
"363 428 LINE"
);
}
);
};
guideLines = (
{
angle = 175.7636;
position = "{247, 60}";
}
);
layerId = "38FA562F-EF2C-4367-983C-F15B205514DC";
paths = (
{
closed = 1;
nodes = (
"431 -225 OFFCURVE",
"538 -155 OFFCURVE",
"538 -65 CURVE SMOOTH",
"538 15 OFFCURVE",
"472 55 OFFCURVE",
"348 64 CURVE SMOOTH",
"266 70 LINE SMOOTH",
"217 74 OFFCURVE",
"180 82 OFFCURVE",
"180 112 CURVE SMOOTH",
"180 145 OFFCURVE",
"228 165 OFFCURVE",
"295 165 CURVE",
"276 199 LINE",
"182 188 OFFCURVE",
"122 150 OFFCURVE",
"122 100 CURVE SMOOTH",
"122 69 OFFCURVE",
"142 47 OFFCURVE",
"182 29 CURVE",
"97 12 OFFCURVE",
"55 -30 OFFCURVE",
"55 -84 CURVE SMOOTH",
"55 -169 OFFCURVE",
"148 -225 OFFCURVE",
"286 -225 CURVE SMOOTH"
);
},
{
closed = 1;
nodes = (
"186 -176 OFFCURVE",
"117 -136 OFFCURVE",
"117 -78 CURVE SMOOTH",
"117 -28 OFFCURVE",
"165 7 OFFCURVE",
"246 12 CURVE",
"331 6 LINE SMOOTH",
"427 -1 OFFCURVE",
"476 -27 OFFCURVE",
"476 -73 CURVE SMOOTH",
"476 -133 OFFCURVE",
"400 -176 OFFCURVE",
"285 -176 CURVE SMOOTH"
);
},
{
closed = 1;
nodes = (
"398 155 OFFCURVE",
"490 230 OFFCURVE",
"490 325 CURVE SMOOTH",
"490 420 OFFCURVE",
"398 495 OFFCURVE",
"285 495 CURVE SMOOTH",
"172 495 OFFCURVE",
"80 420 OFFCURVE",
"80 325 CURVE SMOOTH",
"80 230 OFFCURVE",
"172 155 OFFCURVE",
"285 155 CURVE SMOOTH"
);
},
{
closed = 1;
nodes = (
"200 209 OFFCURVE",
"143 256 OFFCURVE",
"143 325 CURVE SMOOTH",
"143 394 OFFCURVE",
"200 441 OFFCURVE",
"285 441 CURVE SMOOTH",
"370 441 OFFCURVE",
"427 394 OFFCURVE",
"427 325 CURVE SMOOTH",
"427 256 OFFCURVE",
"370 209 OFFCURVE",
"285 209 CURVE SMOOTH"
);
},
{
closed = 1;
nodes = (
"570 428 LINE",
"571 480 LINE",
"343 475 LINE",
"363 428 LINE"
);
}
);
width = 594;
},
{
anchors = (
{
name = top;
position = "{297, 520}";
}
);
background = {
paths = (
{
closed = 1;
nodes = (
"614 364 LINE",
"614 520 LINE",
"584 520 LINE",
"287 520 LINE",
"363 364 LINE"
);
}
);
};
guideLines = (
{
angle = -5.7106;
position = "{217, -19}";
}
);
layerId = "E991CF0C-7E17-4C48-B08A-36C8E595ED17";
paths = (
{
closed = 1;
nodes = (
"458 -225 OFFCURVE",
"584 -146 OFFCURVE",
"584 -36 CURVE SMOOTH",
"584 60 OFFCURVE",
"498 97 OFFCURVE",
"371 109 CURVE SMOOTH",
"282 117 LINE SMOOTH",
"236 121 OFFCURVE",
"226 130 OFFCURVE",
"226 141 CURVE SMOOTH",
"226 155 OFFCURVE",
"243 165 OFFCURVE",
"296 164 CURVE",
"263 235 LINE",
"154 240 OFFCURVE",
"68 176 OFFCURVE",
"68 110 CURVE SMOOTH",
"68 74 OFFCURVE",
"85 45 OFFCURVE",
"123 22 CURVE",
"53 7 OFFCURVE",
"10 -38 OFFCURVE",
"10 -86 CURVE SMOOTH",
"10 -172 OFFCURVE",
"110 -225 OFFCURVE",
"265 -225 CURVE SMOOTH"
);
},
{
closed = 1;
nodes = (
"225 -104 OFFCURVE",
"179 -87 OFFCURVE",
"179 -61 CURVE SMOOTH",
"179 -43 OFFCURVE",
"200 -28 OFFCURVE",
"238 -23 CURVE",
"339 -31 LINE SMOOTH",
"386 -35 OFFCURVE",
"405 -43 OFFCURVE",
"405 -63 CURVE SMOOTH",
"405 -88 OFFCURVE",
"363 -104 OFFCURVE",
"297 -104 CURVE SMOOTH"
);
},
{
closed = 1;
nodes = (
"429 160 OFFCURVE",
"524 244 OFFCURVE",
"524 348 CURVE SMOOTH",
"524 454 OFFCURVE",
"426 535 OFFCURVE",
"287 535 CURVE SMOOTH",
"147 535 OFFCURVE",
"49 452 OFFCURVE",
"49 348 CURVE SMOOTH",
"49 241 OFFCURVE",
"144 160 OFFCURVE",
"287 160 CURVE SMOOTH"
);
},
{
closed = 1;
nodes = (
"245 290 OFFCURVE",
"212 314 OFFCURVE",
"212 348 CURVE SMOOTH",
"212 382 OFFCURVE",
"245 406 OFFCURVE",
"287 406 CURVE SMOOTH",
"328 406 OFFCURVE",
"362 382 OFFCURVE",
"362 348 CURVE SMOOTH",
"362 314 OFFCURVE",
"328 290 OFFCURVE",
"287 290 CURVE SMOOTH"
);
},
{
closed = 1;
nodes = (
"614 364 LINE",
"614 520 LINE",
"287 500 LINE",
"363 374 LINE"
);
}
);
width = 625;
}
);
unicode = 0067;
},
{
color = 6;
glyphname = h;
lastChange = "2019-12-20 09:37:56 +0000";
layers = (
{
anchors = (
{
name = bar;
position = "{183, 602}";
},
{
name = top;
position = "{164, 720}";
}
);
layerId = "E991CF0C-7E17-4C48-B08A-36C8E595ED17";
paths = (
{
closed = 1;
nodes = (
"264 0 LINE",
"264 267 LINE SMOOTH",
"264 322 OFFCURVE",
"289 356 OFFCURVE",
"343 355 CURVE SMOOTH",
"395 354 OFFCURVE",
"424 319 OFFCURVE",
"424 267 CURVE SMOOTH",
"424 0 LINE",
"624 0 LINE",
"624 323 LINE SMOOTH",
"624 437 OFFCURVE",
"551 535 OFFCURVE",
"402 535 CURVE SMOOTH",
"326 535 OFFCURVE",
"266 498 OFFCURVE",
"222 448 CURVE",
"264 397 LINE",
"264 720 LINE",
"64 720 LINE",
"64 0 LINE"
);
}
);
width = 684;
},
{
anchors = (
{
name = bar;
position = "{141, 602}";
},
{
name = top;
position = "{113, 720}";
}
);
layerId = "38FA562F-EF2C-4367-983C-F15B205514DC";
paths = (
{
closed = 1;
nodes = (
"141 0 LINE",
"141 285 LINE SMOOTH",
"141 378 OFFCURVE",
"210 441 OFFCURVE",
"296 441 CURVE SMOOTH",
"384 441 OFFCURVE",
"441 386 OFFCURVE",
"441 306 CURVE SMOOTH",
"441 0 LINE",
"497 0 LINE",
"497 323 LINE SMOOTH",
"497 404 OFFCURVE",
"433 495 OFFCURVE",
"306 495 CURVE SMOOTH",
"241 495 OFFCURVE",
"174 469 OFFCURVE",
"130 401 CURVE",
"141 392 LINE",
"141 720 LINE",
"85 720 LINE",
"85 0 LINE"
);
}
);
width = 578;
}
);
leftKerningGroup = h;
leftMetricsKey = l;
rightKerningGroup = n;
rightMetricsKey = n;
unicode = 0068;
},
{
color = 4;
glyphname = hbar;
lastChange = "2019-12-20 09:13:02 +0000";
layers = (
{
components = (
{
name = h;
}
);
layerId = "38FA562F-EF2C-4367-983C-F15B205514DC";
paths = (
{
closed = 1;
nodes = (
"326 576 LINE",
"326 628 LINE",
"16 628 LINE",
"16 576 LINE"
);
}
);
width = 578;
},
{
components = (
{
name = h;
}
);
layerId = "E991CF0C-7E17-4C48-B08A-36C8E595ED17";
paths = (
{
closed = 1;
nodes = (
"403 559 LINE",
"403 665 LINE",
"3 665 LINE",
"3 559 LINE"
);
}
);
width = 684;
}
);
leftKerningGroup = h;
rightKerningGroup = n;
unicode = 0127;
},
{
color = 6;
glyphname = idotless;
lastChange = "2020-01-27 18:17:26 +0000";
layers = (
{
anchors = (
{
name = bottom;
position = "{164, 0}";
},
{
name = ogonek;
position = "{264, 0}";
},
{
name = top;
position = "{164, 520}";
}
);
background = {
anchors = (
{
name = top;
position = "{164, 520}";
}
);
paths = (
{
closed = 1;
nodes = (
"264 0 LINE",
"264 520 LINE",
"64 520 LINE",
"64 0 LINE"
);
}
);
};
layerId = "E991CF0C-7E17-4C48-B08A-36C8E595ED17";
paths = (
{
closed = 1;
nodes = (
"264 0 LINE",
"264 520 LINE",
"64 520 LINE",
"64 0 LINE"
);
}
);
width = 328;
},
{
anchors = (
{
name = bottom;
position = "{113, 0}";
},
{
name = ogonek;
position = "{141, 0}";
},
{
name = top;
position = "{113, 480}";
}
);
background = {
anchors = (
{
name = top;
position = "{113, 500}";
}
);
paths = (
{
closed = 1;
nodes = (
"141 0 LINE",
"141 480 LINE",
"85 480 LINE",
"85 0 LINE"
);
}
);
};
layerId = "38FA562F-EF2C-4367-983C-F15B205514DC";
paths = (
{
closed = 1;
nodes = (
"141 0 LINE",
"141 480 LINE",
"85 480 LINE",
"85 0 LINE"
);
}
);
width = 226;
}
);
leftKerningGroup = idotless;
leftMetricsKey = n;
rightKerningGroup = idotless;
rightMetricsKey = "=|n";
unicode = 0131;
},
{
color = 6;
glyphname = jdotless;
lastChange = "2020-01-27 18:17:31 +0000";
layers = (
{
anchors = (
{
name = top;
position = "{164, 520}";
}
);
background = {
anchors = (
{
name = top;
position = "{164, 520}";
}
);
paths = (
{
closed = 1;
nodes = (
"180 -225 OFFCURVE",
"264 -140 OFFCURVE",
"264 -18 CURVE SMOOTH",
"264 520 LINE",
"64 520 LINE",
"64 -7 LINE SMOOTH",
"64 -45 OFFCURVE",
"47 -63 OFFCURVE",
"13 -63 CURVE SMOOTH",
"-6 -63 OFFCURVE",
"-22 -59 OFFCURVE",
"-39 -50 CURVE",
"-76 -195 LINE",
"-34 -218 OFFCURVE",
"-1 -225 OFFCURVE",
"58 -225 CURVE SMOOTH"
);
}
);
};
layerId = "E991CF0C-7E17-4C48-B08A-36C8E595ED17";
paths = (
{
closed = 1;
nodes = (
"180 -225 OFFCURVE",
"264 -140 OFFCURVE",
"264 -18 CURVE SMOOTH",
"264 520 LINE",
"64 520 LINE",
"64 -7 LINE SMOOTH",
"64 -45 OFFCURVE",
"47 -63 OFFCURVE",
"13 -63 CURVE SMOOTH",
"-6 -63 OFFCURVE",
"-22 -59 OFFCURVE",
"-39 -50 CURVE",
"-98 -282 LINE",
"-138 -156 LINE",
"-58 -211 OFFCURVE",
"-26 -225 OFFCURVE",
"58 -225 CURVE SMOOTH"
);
}
);
width = 328;
},
{
anchors = (
{
name = top;
position = "{113, 480}";
}
);
background = {
anchors = (
{
name = top;
position = "{113, 480}";
}
);
paths = (
{
closed = 1;
nodes = (
"98 -225 OFFCURVE",
"141 -178 OFFCURVE",
"141 -97 CURVE SMOOTH",
"141 481 LINE",
"85 481 LINE",
"85 -87 LINE SMOOTH",
"85 -142 OFFCURVE",
"69 -171 OFFCURVE",
"19 -171 CURVE SMOOTH",
"-8 -171 OFFCURVE",
"-22 -165 OFFCURVE",
"-38 -157 CURVE",
"-57 -205 LINE",
"-37 -215 OFFCURVE",
"-7 -225 OFFCURVE",
"27 -225 CURVE SMOOTH"
);
}
);
};
layerId = "38FA562F-EF2C-4367-983C-F15B205514DC";
paths = (
{
closed = 1;
nodes = (
"98 -225 OFFCURVE",
"141 -178 OFFCURVE",
"141 -97 CURVE SMOOTH",
"141 480 LINE",
"85 480 LINE",
"85 -87 LINE SMOOTH",
"85 -142 OFFCURVE",
"69 -171 OFFCURVE",
"19 -171 CURVE SMOOTH",
"-8 -171 OFFCURVE",
"-22 -165 OFFCURVE",
"-38 -157 CURVE",
"-66 -228 LINE",
"-67 -199 LINE",
"-48 -211 OFFCURVE",
"-14 -225 OFFCURVE",
"27 -225 CURVE SMOOTH"
);
}
);
width = 226;
}
);
leftKerningGroup = jdotless;
widthMetricsKey = idotless;
rightKerningGroup = jdotless;
rightMetricsKey = idotless;
unicode = 0237;
},
{
color = 6;
glyphname = k;
lastChange = "2019-12-20 09:38:23 +0000";
layers = (
{
anchors = (
{
name = bottom;
position = "{336, 0}";
}
);
layerId = "E991CF0C-7E17-4C48-B08A-36C8E595ED17";
paths = (
{
closed = 1;
nodes = (
"264 0 LINE",
"264 138 LINE",
"294 172 LINE",
"394 0 LINE",
"629 0 LINE",
"439 303 LINE",
"620 520 LINE",
"390 520 LINE",
"264 372 LINE",
"264 720 LINE",
"64 720 LINE",
"64 0 LINE"
);
}
);
width = 636;
},
{
anchors = (
{
name = bottom;
position = "{278, 0}";
}
);
layerId = "38FA562F-EF2C-4367-983C-F15B205514DC";
paths = (
{
closed = 1;
nodes = (
"141 0 LINE",
"141 178 LINE",
"235 271 LINE",
"413 0 LINE",
"483 0 LINE",
"276 307 LINE",
"447 480 LINE",
"377 480 LINE",
"141 247 LINE",
"141 720 LINE",
"85 720 LINE",
"85 0 LINE"
);
}
);
width = 513;
}
);
leftKerningGroup = h;
leftMetricsKey = l;
rightKerningGroup = k;
unicode = 006B;
},
{
color = 6;
glyphname = kgreenlandic;
lastChange = "2020-01-27 15:07:32 +0000";
layers = (
{
layerId = "38FA562F-EF2C-4367-983C-F15B205514DC";
paths = (
{
closed = 1;
nodes = (
"141 0 LINE",
"141 178 LINE",
"235 271 LINE",
"413 0 LINE",
"483 0 LINE",
"276 307 LINE",
"447 480 LINE",
"377 480 LINE",
"141 247 LINE",
"141 480 LINE",
"85 480 LINE",
"85 0 LINE"
);
}
);
width = 513;
},
{
layerId = "E991CF0C-7E17-4C48-B08A-36C8E595ED17";
paths = (
{
closed = 1;
nodes = (
"264 0 LINE",
"264 138 LINE",
"294 172 LINE",
"394 0 LINE",
"629 0 LINE",
"439 303 LINE",
"620 520 LINE",
"390 520 LINE",
"264 372 LINE",
"264 520 LINE",
"64 520 LINE",
"64 0 LINE"
);
}
);
width = 636;
}
);
leftKerningGroup = idotless;
leftMetricsKey = n;
rightKerningGroup = k;
rightMetricsKey = k;
unicode = 0138;
},
{
color = 6;
glyphname = l;
lastChange = "2019-12-20 11:28:18 +0000";
layers = (
{
anchors = (
{
name = bottom;
position = "{164, 0}";
},
{
name = caron;
position = "{264, 720}";
},
{
name = top;
position = "{164, 720}";
}
);
layerId = "E991CF0C-7E17-4C48-B08A-36C8E595ED17";
paths = (
{
closed = 1;
nodes = (
"264 0 LINE",
"264 720 LINE",
"64 720 LINE",
"64 0 LINE"
);
}
);
width = 328;
},
{
anchors = (
{
name = bottom;
position = "{113, 0}";
},
{
name = caron;
position = "{141, 720}";
},
{
name = top;
position = "{113, 720}";
}
);
layerId = "38FA562F-EF2C-4367-983C-F15B205514DC";
paths = (
{
closed = 1;
nodes = (
"141 0 LINE",
"141 720 LINE",
"85 720 LINE",
"85 0 LINE"
);
}
);
width = 226;
}
);
leftKerningGroup = h;
leftMetricsKey = h;
rightKerningGroup = d;
rightMetricsKey = "=|";
unicode = 006C;
},
{
color = 4;
glyphname = lslash;
lastChange = "2019-12-20 09:13:02 +0000";
layers = (
{
components = (
{
name = l;
transform = "{1, 0, 0, 1, 20, 0}";
}
);
layerId = "38FA562F-EF2C-4367-983C-F15B205514DC";
paths = (
{
closed = 1;
nodes = (
"133 301 LINE",
"133 296 LINE",
"248 350 LINE",
"248 399 LINE",
"133 345 LINE",
"133 350 LINE",
"18 296 LINE",
"18 247 LINE"
);
}
);
width = 266;
},
{
components = (
{
name = l;
transform = "{1, 0, 0, 1, 20, 0}";
}
);
layerId = "E991CF0C-7E17-4C48-B08A-36C8E595ED17";
paths = (
{
closed = 1;
nodes = (
"184 265 LINE",
"184 245 LINE",
"380 336 LINE",
"380 510 LINE",
"184 419 LINE",
"184 439 LINE",
"-12 344 LINE",
"-12 170 LINE"
);
}
);
width = 368;
}
);
rightMetricsKey = "=|";
unicode = 0142;
},
{
color = 6;
glyphname = m;
lastChange = "2020-01-27 18:17:36 +0000";
layers = (
{
layerId = "E991CF0C-7E17-4C48-B08A-36C8E595ED17";
paths = (
{
closed = 1;
nodes = (
"264 0 LINE",
"264 293 LINE SMOOTH",
"264 326 OFFCURVE",
"293 355 OFFCURVE",
"332 355 CURVE SMOOTH",
"384 355 OFFCURVE",
"409 323 OFFCURVE",
"409 274 CURVE SMOOTH",
"409 0 LINE",
"609 0 LINE",
"609 293 LINE SMOOTH",
"609 326 OFFCURVE",
"638 355 OFFCURVE",
"677 355 CURVE SMOOTH",
"729 355 OFFCURVE",
"754 323 OFFCURVE",
"754 274 CURVE SMOOTH",
"754 0 LINE",
"954 0 LINE",
"954 331 LINE SMOOTH",
"954 437 OFFCURVE",
"909 535 OFFCURVE",
"754 535 CURVE SMOOTH",
"672 535 OFFCURVE",
"598 502 OFFCURVE",
"564 443 CURVE",
"545 501 OFFCURVE",
"485 535 OFFCURVE",
"415 535 CURVE SMOOTH",
"358 535 OFFCURVE",
"298 508 OFFCURVE",
"264 460 CURVE",
"264 520 LINE",
"64 520 LINE",
"64 0 LINE"
);
}
);
width = 1014;
},
{
layerId = "38FA562F-EF2C-4367-983C-F15B205514DC";
paths = (
{
closed = 1;
nodes = (
"141 0 LINE",
"141 285 LINE SMOOTH",
"141 378 OFFCURVE",
"210 441 OFFCURVE",
"296 441 CURVE SMOOTH",
"384 441 OFFCURVE",
"429 386 OFFCURVE",
"429 306 CURVE SMOOTH",
"429 0 LINE",
"485 0 LINE",
"485 285 LINE SMOOTH",
"485 378 OFFCURVE",
"554 441 OFFCURVE",
"640 441 CURVE SMOOTH",
"728 441 OFFCURVE",
"773 386 OFFCURVE",
"773 306 CURVE SMOOTH",
"773 0 LINE",
"829 0 LINE",
"829 323 LINE SMOOTH",
"829 404 OFFCURVE",
"777 495 OFFCURVE",
"650 495 CURVE SMOOTH",
"593 495 OFFCURVE",
"527 478 OFFCURVE",
"469 399 CURVE",
"445 452 OFFCURVE",
"393 495 OFFCURVE",
"306 495 CURVE SMOOTH",
"245 495 OFFCURVE",
"185 471 OFFCURVE",
"141 407 CURVE",
"141 480 LINE",
"85 480 LINE",
"85 0 LINE"
);
}
);
width = 910;
}
);
leftKerningGroup = idotless;
leftMetricsKey = n;
rightKerningGroup = n;
rightMetricsKey = n;
unicode = 006D;
},
{
color = 6;
glyphname = n;
lastChange = "2020-01-27 18:17:17 +0000";
layers = (
{
anchors = (
{
name = bottom;
position = "{344, 0}";
},
{
name = top;
position = "{345, 520}";
}
);
layerId = "E991CF0C-7E17-4C48-B08A-36C8E595ED17";
paths = (
{
closed = 1;
nodes = (
"264 0 LINE",
"264 268 LINE SMOOTH",
"264 319 OFFCURVE",
"293 355 OFFCURVE",
"345 355 CURVE SMOOTH",
"399 355 OFFCURVE",
"424 323 OFFCURVE",
"424 268 CURVE SMOOTH",
"424 0 LINE",
"624 0 LINE",
"624 331 LINE SMOOTH",
"624 437 OFFCURVE",
"558 535 OFFCURVE",
"408 535 CURVE SMOOTH",
"351 535 OFFCURVE",
"300 515 OFFCURVE",
"264 472 CURVE",
"264 520 LINE",
"64 520 LINE",
"64 0 LINE"
);
}
);
width = 684;
},
{
anchors = (
{
name = bottom;
position = "{291, 0}";
},
{
name = top;
position = "{296, 480}";
}
);
layerId = "38FA562F-EF2C-4367-983C-F15B205514DC";
paths = (
{
closed = 1;
nodes = (
"141 0 LINE",
"141 285 LINE SMOOTH",
"141 378 OFFCURVE",
"210 441 OFFCURVE",
"296 441 CURVE SMOOTH",
"384 441 OFFCURVE",
"441 386 OFFCURVE",
"441 306 CURVE SMOOTH",
"441 0 LINE",
"497 0 LINE",
"497 323 LINE SMOOTH",
"497 404 OFFCURVE",
"433 495 OFFCURVE",
"306 495 CURVE SMOOTH",
"246 495 OFFCURVE",
"185 470 OFFCURVE",
"141 408 CURVE",
"141 480 LINE",
"85 480 LINE",
"85 0 LINE"
);
}
);
width = 578;
}
);
leftKerningGroup = idotless;
leftMetricsKey = l;
rightKerningGroup = n;
unicode = 006E;
},
{
color = 6;
glyphname = eng;
lastChange = "2020-01-27 15:07:41 +0000";
layers = (
{
layerId = "38FA562F-EF2C-4367-983C-F15B205514DC";
paths = (
{
closed = 1;
nodes = (
"450 -225 OFFCURVE",
"493 -178 OFFCURVE",
"493 -97 CURVE SMOOTH",
"493 323 LINE SMOOTH",
"493 404 OFFCURVE",
"430 495 OFFCURVE",
"304 495 CURVE SMOOTH",
"245 495 OFFCURVE",
"184 470 OFFCURVE",
"141 408 CURVE",
"141 480 LINE",
"85 480 LINE",
"85 0 LINE",
"141 0 LINE",
"141 285 LINE SMOOTH",
"141 378 OFFCURVE",
"209 441 OFFCURVE",
"294 441 CURVE SMOOTH",
"381 441 OFFCURVE",
"437 386 OFFCURVE",
"437 306 CURVE SMOOTH",
"437 -87 LINE SMOOTH",
"437 -142 OFFCURVE",
"421 -171 OFFCURVE",
"371 -171 CURVE SMOOTH",
"344 -171 OFFCURVE",
"330 -165 OFFCURVE",
"314 -157 CURVE",
"295 -205 LINE",
"315 -215 OFFCURVE",
"345 -225 OFFCURVE",
"379 -225 CURVE SMOOTH"
);
}
);
width = 574;
},
{
layerId = "E991CF0C-7E17-4C48-B08A-36C8E595ED17";
paths = (
{
closed = 1;
nodes = (
"536 -225 OFFCURVE",
"620 -140 OFFCURVE",
"620 -18 CURVE SMOOTH",
"620 331 LINE SMOOTH",
"620 437 OFFCURVE",
"555 535 OFFCURVE",
"406 535 CURVE SMOOTH",
"350 535 OFFCURVE",
"300 515 OFFCURVE",
"264 472 CURVE",
"264 520 LINE",
"64 520 LINE",
"64 0 LINE",
"264 0 LINE",
"264 268 LINE SMOOTH",
"264 319 OFFCURVE",
"292 355 OFFCURVE",
"343 355 CURVE SMOOTH",
"396 355 OFFCURVE",
"420 323 OFFCURVE",
"420 268 CURVE SMOOTH",
"420 -7 LINE SMOOTH",
"420 -45 OFFCURVE",
"403 -63 OFFCURVE",
"369 -63 CURVE SMOOTH",
"350 -63 OFFCURVE",
"334 -59 OFFCURVE",
"317 -50 CURVE",
"280 -195 LINE",
"322 -218 OFFCURVE",
"355 -225 OFFCURVE",
"414 -225 CURVE SMOOTH"
);
}
);
width = 680;
}
);
leftKerningGroup = idotless;
leftMetricsKey = n;
rightKerningGroup = n;
rightMetricsKey = n;
unicode = 014B;
},
{
color = 4;
glyphname = o;
lastChange = "2019-12-20 09:13:02 +0000";
layers = (
{
anchors = (
{
name = bottom;
position = "{319, 0}";
},
{
name = horn;
position = "{519, 520}";
},
{
name = ogonek;
position = "{418, 0}";
},
{
name = top;
position = "{319, 520}";
}
);
layerId = "E991CF0C-7E17-4C48-B08A-36C8E595ED17";
paths = (
{
closed = 1;
nodes = (
"493 -15 OFFCURVE",
"613 116 OFFCURVE",
"613 260 CURVE SMOOTH",
"613 410 OFFCURVE",
"493 535 OFFCURVE",
"319 535 CURVE SMOOTH",
"145 535 OFFCURVE",
"25 404 OFFCURVE",
"25 260 CURVE SMOOTH",
"25 110 OFFCURVE",
"145 -15 OFFCURVE",
"319 -15 CURVE SMOOTH"
);
},
{
closed = 1;
nodes = (
"263 155 OFFCURVE",
"219 195 OFFCURVE",
"219 260 CURVE SMOOTH",
"219 325 OFFCURVE",
"262 365 OFFCURVE",
"319 365 CURVE SMOOTH",
"376 365 OFFCURVE",
"419 325 OFFCURVE",
"419 260 CURVE SMOOTH",
"419 195 OFFCURVE",
"375 155 OFFCURVE",
"319 155 CURVE SMOOTH"
);
}
);
width = 638;
},
{
anchors = (
{
name = bottom;
position = "{293, 0}";
},
{
name = horn;
position = "{487, 480}";
},
{
name = ogonek;
position = "{381, 0}";
},
{
name = top;
position = "{293, 480}";
}
);
layerId = "38FA562F-EF2C-4367-983C-F15B205514DC";
paths = (
{
closed = 1;
nodes = (
"438 -15 OFFCURVE",
"546 101 OFFCURVE",
"546 240 CURVE SMOOTH",
"546 379 OFFCURVE",
"438 495 OFFCURVE",
"293 495 CURVE SMOOTH",
"148 495 OFFCURVE",
"40 379 OFFCURVE",
"40 240 CURVE SMOOTH",
"40 101 OFFCURVE",
"148 -15 OFFCURVE",
"293 -15 CURVE SMOOTH"
);
},
{
closed = 1;
nodes = (
"180 39 OFFCURVE",
"100 117 OFFCURVE",
"100 240 CURVE SMOOTH",
"100 363 OFFCURVE",
"180 441 OFFCURVE",
"293 441 CURVE SMOOTH",
"406 441 OFFCURVE",
"486 363 OFFCURVE",
"486 240 CURVE SMOOTH",
"486 117 OFFCURVE",
"406 39 OFFCURVE",
"293 39 CURVE SMOOTH"
);
}
);
width = 586;
}
);
leftKerningGroup = o;
rightKerningGroup = o;
rightMetricsKey = "=|";
unicode = 006F;
},
{
color = 4;
glyphname = oslash;
lastChange = "2019-12-20 10:36:32 +0000";
layers = (
{
anchors = (
{
name = top;
position = "{319, 520}";
}
);
layerId = "E991CF0C-7E17-4C48-B08A-36C8E595ED17";
paths = (
{
closed = 1;
nodes = (
"196 8 LINE",
"232 -7 OFFCURVE",
"274 -15 OFFCURVE",
"319 -15 CURVE SMOOTH",
"493 -15 OFFCURVE",
"613 116 OFFCURVE",
"613 260 CURVE SMOOTH",
"613 327 OFFCURVE",
"589 389 OFFCURVE",
"547 437 CURVE",
"602 504 LINE",
"505 590 LINE",
"441 512 LINE",
"405 527 OFFCURVE",
"364 535 OFFCURVE",
"319 535 CURVE SMOOTH",
"145 535 OFFCURVE",
"25 404 OFFCURVE",
"25 260 CURVE SMOOTH",
"25 193 OFFCURVE",
"49 132 OFFCURVE",
"90 84 CURVE",
"35 17 LINE",
"132 -69 LINE"
);
},
{
closed = 1;
nodes = (
"207 230 OFFCURVE",
"206 242 OFFCURVE",
"206 255 CURVE SMOOTH",
"206 331 OFFCURVE",
"257 379 OFFCURVE",
"325 379 CURVE SMOOTH",
"330 379 OFFCURVE",
"336 379 OFFCURVE",
"341 378 CURVE",
"210 219 LINE"
);
},
{
closed = 1;
nodes = (
"307 141 OFFCURVE",
"301 141 OFFCURVE",
"295 142 CURVE",
"428 303 LINE",
"431 291 OFFCURVE",
"432 278 OFFCURVE",
"432 265 CURVE SMOOTH",
"432 188 OFFCURVE",
"380 141 OFFCURVE",
"313 141 CURVE SMOOTH"
);
}
);
width = 638;
},
{
anchors = (
{
name = top;
position = "{293, 480}";
}
);
layerId = "38FA562F-EF2C-4367-983C-F15B205514DC";
paths = (
{
closed = 1;
nodes = (
"150 28 LINE",
"190 1 OFFCURVE",
"239 -15 OFFCURVE",
"293 -15 CURVE SMOOTH",
"438 -15 OFFCURVE",
"546 101 OFFCURVE",
"546 240 CURVE SMOOTH",
"546 311 OFFCURVE",
"518 375 OFFCURVE",
"472 422 CURVE",
"515 475 LINE",
"479 505 LINE",
"436 452 LINE",
"396 479 OFFCURVE",
"347 495 OFFCURVE",
"293 495 CURVE SMOOTH",
"148 495 OFFCURVE",
"40 379 OFFCURVE",
"40 240 CURVE SMOOTH",
"40 169 OFFCURVE",
"68 105 OFFCURVE",
"114 58 CURVE",
"71 5 LINE",
"107 -25 LINE"
);
},
{
closed = 1;
nodes = (
"118 134 OFFCURVE",
"100 182 OFFCURVE",
"100 240 CURVE SMOOTH",
"100 363 OFFCURVE",
"180 441 OFFCURVE",
"293 441 CURVE SMOOTH",
"335 441 OFFCURVE",
"372 430 OFFCURVE",
"402 411 CURVE",
"148 100 LINE"
);
},
{
closed = 1;
nodes = (
"251 39 OFFCURVE",
"214 50 OFFCURVE",
"184 69 CURVE",
"438 380 LINE",
"468 346 OFFCURVE",
"486 298 OFFCURVE",
"486 240 CURVE SMOOTH",
"486 117 OFFCURVE",
"406 39 OFFCURVE",
"293 39 CURVE SMOOTH"
);
}
);
width = 586;
}
);
leftKerningGroup = o;
widthMetricsKey = o;
rightKerningGroup = o;
unicode = 00F8;
},
{
color = 4;
glyphname = oe;
lastChange = "2019-12-20 10:33:38 +0000";
layers = (
{
layerId = "38FA562F-EF2C-4367-983C-F15B205514DC";
paths = (
{
closed = 1;
nodes = (
"438 -15 OFFCURVE",
"546 101 OFFCURVE",
"546 240 CURVE SMOOTH",
"546 379 OFFCURVE",
"438 495 OFFCURVE",
"293 495 CURVE SMOOTH",
"148 495 OFFCURVE",
"40 379 OFFCURVE",
"40 240 CURVE SMOOTH",
"40 101 OFFCURVE",
"148 -15 OFFCURVE",
"293 -15 CURVE SMOOTH"
);
},
{
closed = 1;
nodes = (
"180 39 OFFCURVE",
"100 117 OFFCURVE",
"100 240 CURVE SMOOTH",
"100 363 OFFCURVE",
"180 441 OFFCURVE",
"293 441 CURVE SMOOTH",
"406 441 OFFCURVE",
"486 363 OFFCURVE",
"486 240 CURVE SMOOTH",
"486 117 OFFCURVE",
"406 39 OFFCURVE",
"293 39 CURVE SMOOTH"
);
},
{
closed = 1;
nodes = (
"804 -15 OFFCURVE",
"873 4 OFFCURVE",
"923 45 CURVE",
"890 92 LINE",
"854 58 OFFCURVE",
"799 39 OFFCURVE",
"748 39 CURVE SMOOTH",
"620 39 OFFCURVE",
"542 117 OFFCURVE",
"548 234 CURVE",
"955 234 LINE",
"969 382 OFFCURVE",
"880 495 OFFCURVE",
"732 495 CURVE SMOOTH",
"592 495 OFFCURVE",
"486 385 OFFCURVE",
"486 238 CURVE SMOOTH",
"486 87 OFFCURVE",
"591 -15 OFFCURVE",
"741 -15 CURVE SMOOTH"
);
},
{
closed = 1;
nodes = (
"556 384 OFFCURVE",
"631 441 OFFCURVE",
"732 441 CURVE SMOOTH",
"836 441 OFFCURVE",
"896 384 OFFCURVE",
"895 286 CURVE",
"550 286 LINE"
);
}
);
width = 996;
},
{
layerId = "E991CF0C-7E17-4C48-B08A-36C8E595ED17";
paths = (
{
closed = 1;
nodes = (
"479 -15 OFFCURVE",
"593 116 OFFCURVE",
"593 260 CURVE SMOOTH",
"593 410 OFFCURVE",
"479 535 OFFCURVE",
"313 535 CURVE SMOOTH",
"143 535 OFFCURVE",
"25 404 OFFCURVE",
"25 260 CURVE SMOOTH",
"25 110 OFFCURVE",
"143 -15 OFFCURVE",
"313 -15 CURVE SMOOTH"
);
},
{
closed = 1;
nodes = (
"263 155 OFFCURVE",
"219 195 OFFCURVE",
"219 260 CURVE SMOOTH",
"219 325 OFFCURVE",
"262 365 OFFCURVE",
"319 365 CURVE SMOOTH",
"376 365 OFFCURVE",
"419 325 OFFCURVE",
"419 260 CURVE SMOOTH",
"419 195 OFFCURVE",
"375 155 OFFCURVE",
"319 155 CURVE SMOOTH"
);
},
{
closed = 1;
nodes = (
"794 -15 OFFCURVE",
"897 14 OFFCURVE",
"942 49 CURVE",
"884 181 LINE",
"830 149 OFFCURVE",
"777 135 OFFCURVE",
"714 135 CURVE SMOOTH",
"649 135 OFFCURVE",
"602 163 OFFCURVE",
"598 204 CURVE",
"973 204 LINE",
"1010 393 OFFCURVE",
"899 535 OFFCURVE",
"714 535 CURVE SMOOTH",
"553 535 OFFCURVE",
"439 422 OFFCURVE",
"439 261 CURVE SMOOTH",
"439 95 OFFCURVE",
"549 -15 OFFCURVE",
"716 -15 CURVE SMOOTH"
);
},
{
closed = 1;
nodes = (
"614 370 OFFCURVE",
"651 395 OFFCURVE",
"702 395 CURVE SMOOTH",
"751 395 OFFCURVE",
"785 370 OFFCURVE",
"785 334 CURVE",
"611 334 LINE"
);
}
);
width = 1005;
}
);
leftKerningGroup = o;
leftMetricsKey = o;
rightKerningGroup = e;
rightMetricsKey = e;
unicode = 0153;
},
{
color = 6;
glyphname = p;
lastChange = "2020-01-27 18:17:41 +0000";
layers = (
{
layerId = "E991CF0C-7E17-4C48-B08A-36C8E595ED17";
paths = (
{
closed = 1;
nodes = (
"263 -210 LINE",
"263 26 LINE",
"302 -2 OFFCURVE",
"347 -15 OFFCURVE",
"396 -15 CURVE SMOOTH",
"548 -15 OFFCURVE",
"657 103 OFFCURVE",
"657 260 CURVE SMOOTH",
"657 430 OFFCURVE",
"546 535 OFFCURVE",
"400 535 CURVE SMOOTH",
"330 535 OFFCURVE",
"270 510 OFFCURVE",
"234 469 CURVE",
"234 520 LINE",
"64 520 LINE",
"64 -210 LINE"
);
},
{
closed = 1;
nodes = (
"306 155 OFFCURVE",
"263 195 OFFCURVE",
"263 260 CURVE SMOOTH",
"263 325 OFFCURVE",
"307 365 OFFCURVE",
"363 365 CURVE SMOOTH",
"419 365 OFFCURVE",
"463 325 OFFCURVE",
"463 260 CURVE SMOOTH",
"463 195 OFFCURVE",
"420 155 OFFCURVE",
"363 155 CURVE SMOOTH"
);
}
);
width = 682;
},
{
layerId = "38FA562F-EF2C-4367-983C-F15B205514DC";
paths = (
{
closed = 1;
nodes = (
"141 -210 LINE",
"141 84 LINE",
"183 25 OFFCURVE",
"249 -15 OFFCURVE",
"344 -15 CURVE SMOOTH",
"489 -15 OFFCURVE",
"587 101 OFFCURVE",
"587 240 CURVE SMOOTH",
"587 379 OFFCURVE",
"489 495 OFFCURVE",
"344 495 CURVE SMOOTH",
"242 495 OFFCURVE",
"183 454 OFFCURVE",
"141 399 CURVE",
"141 480 LINE",
"85 480 LINE",
"85 -210 LINE"
);
},
{
closed = 1;
nodes = (
"221 39 OFFCURVE",
"141 117 OFFCURVE",
"141 240 CURVE SMOOTH",
"141 363 OFFCURVE",
"221 441 OFFCURVE",
"334 441 CURVE SMOOTH",
"447 441 OFFCURVE",
"527 363 OFFCURVE",
"527 240 CURVE SMOOTH",
"527 117 OFFCURVE",
"447 39 OFFCURVE",
"334 39 CURVE SMOOTH"
);
}
);
width = 627;
}
);
leftKerningGroup = idotless;
leftMetricsKey = n;
rightKerningGroup = o;
rightMetricsKey = o;
unicode = 0070;
},
{
color = 6;
glyphname = thorn;
lastChange = "2019-12-20 10:34:21 +0000";
layers = (
{
layerId = "38FA562F-EF2C-4367-983C-F15B205514DC";
paths = (
{
closed = 1;
nodes = (
"141 -210 LINE",
"141 84 LINE",
"183 25 OFFCURVE",
"249 -15 OFFCURVE",
"344 -15 CURVE SMOOTH",
"489 -15 OFFCURVE",
"587 101 OFFCURVE",
"587 240 CURVE SMOOTH",
"587 379 OFFCURVE",
"489 495 OFFCURVE",
"344 495 CURVE SMOOTH",
"249 495 OFFCURVE",
"183 451 OFFCURVE",
"141 392 CURVE",
"141 720 LINE",
"85 720 LINE",
"85 -210 LINE"
);
},
{
closed = 1;
nodes = (
"221 39 OFFCURVE",
"141 117 OFFCURVE",
"141 240 CURVE SMOOTH",
"141 363 OFFCURVE",
"221 441 OFFCURVE",
"334 441 CURVE SMOOTH",
"447 441 OFFCURVE",
"527 363 OFFCURVE",
"527 240 CURVE SMOOTH",
"527 117 OFFCURVE",
"447 39 OFFCURVE",
"334 39 CURVE SMOOTH"
);
}
);
width = 627;
},
{
layerId = "E991CF0C-7E17-4C48-B08A-36C8E595ED17";
paths = (
{
closed = 1;
nodes = (
"263 -210 LINE",
"263 26 LINE",
"302 -2 OFFCURVE",
"347 -15 OFFCURVE",
"396 -15 CURVE SMOOTH",
"548 -15 OFFCURVE",
"657 103 OFFCURVE",
"657 260 CURVE SMOOTH",
"657 417 OFFCURVE",
"548 535 OFFCURVE",
"396 535 CURVE SMOOTH",
"347 535 OFFCURVE",
"302 522 OFFCURVE",
"263 494 CURVE",
"263 720 LINE",
"64 720 LINE",
"64 -210 LINE"
);
},
{
closed = 1;
nodes = (
"306 155 OFFCURVE",
"263 195 OFFCURVE",
"263 260 CURVE SMOOTH",
"263 325 OFFCURVE",
"306 365 OFFCURVE",
"363 365 CURVE SMOOTH",
"420 365 OFFCURVE",
"463 325 OFFCURVE",
"463 260 CURVE SMOOTH",
"463 195 OFFCURVE",
"420 155 OFFCURVE",
"363 155 CURVE SMOOTH"
);
}
);
width = 682;
}
);
leftKerningGroup = h;
leftMetricsKey = h;
rightKerningGroup = o;
rightMetricsKey = o;
unicode = 00FE;
},
{
color = 6;
glyphname = q;
lastChange = "2020-01-27 18:17:44 +0000";
layers = (
{
layerId = "E991CF0C-7E17-4C48-B08A-36C8E595ED17";
paths = (
{
closed = 1;
nodes = (
"618 -210 LINE",
"618 520 LINE",
"448 520 LINE",
"448 379 LINE",
"475 424 LINE",
"450 491 OFFCURVE",
"375 535 OFFCURVE",
"282 535 CURVE SMOOTH",
"136 535 OFFCURVE",
"25 430 OFFCURVE",
"25 260 CURVE SMOOTH",
"25 103 OFFCURVE",
"134 -15 OFFCURVE",
"286 -15 CURVE SMOOTH",
"356 -15 OFFCURVE",
"417 11 OFFCURVE",
"465 70 CURVE",
"419 116 LINE",
"419 -210 LINE"
);
},
{
closed = 1;
nodes = (
"262 155 OFFCURVE",
"219 195 OFFCURVE",
"219 260 CURVE SMOOTH",
"219 325 OFFCURVE",
"263 365 OFFCURVE",
"319 365 CURVE SMOOTH",
"375 365 OFFCURVE",
"419 325 OFFCURVE",
"419 260 CURVE SMOOTH",
"419 195 OFFCURVE",
"376 155 OFFCURVE",
"319 155 CURVE SMOOTH"
);
}
);
width = 682;
},
{
layerId = "38FA562F-EF2C-4367-983C-F15B205514DC";
paths = (
{
closed = 1;
nodes = (
"542 -210 LINE",
"542 480 LINE",
"486 480 LINE",
"486 374 LINE",
"495 387 LINE",
"452 448 OFFCURVE",
"392 495 OFFCURVE",
"283 495 CURVE SMOOTH",
"138 495 OFFCURVE",
"40 379 OFFCURVE",
"40 240 CURVE SMOOTH",
"40 101 OFFCURVE",
"138 -15 OFFCURVE",
"283 -15 CURVE SMOOTH",
"385 -15 OFFCURVE",
"453 31 OFFCURVE",
"495 97 CURVE",
"486 109 LINE",
"486 -210 LINE"
);
},
{
closed = 1;
nodes = (
"180 39 OFFCURVE",
"100 117 OFFCURVE",
"100 240 CURVE SMOOTH",
"100 363 OFFCURVE",
"180 441 OFFCURVE",
"293 441 CURVE SMOOTH",
"406 441 OFFCURVE",
"486 363 OFFCURVE",
"486 240 CURVE SMOOTH",
"486 117 OFFCURVE",
"406 39 OFFCURVE",
"293 39 CURVE SMOOTH"
);
}
);
width = 627;
}
);
leftKerningGroup = o;
leftMetricsKey = o;
rightKerningGroup = idotless;
rightMetricsKey = l;
unicode = 0071;
},
{
color = 6;
glyphname = r;
lastChange = "2020-01-27 18:17:48 +0000";
layers = (
{
anchors = (
{
name = bottom;
position = "{164, 0}";
},
{
name = top;
position = "{264, 520}";
}
);
layerId = "E991CF0C-7E17-4C48-B08A-36C8E595ED17";
paths = (
{
closed = 1;
nodes = (
"264 0 LINE",
"264 253 LINE SMOOTH",
"264 313 OFFCURVE",
"302 340 OFFCURVE",
"354 340 CURVE SMOOTH",
"382 340 OFFCURVE",
"411 334 OFFCURVE",
"436 324 CURVE",
"468 620 LINE",
"532 521 LINE",
"454 529 OFFCURVE",
"454 536 OFFCURVE",
"394 536 CURVE SMOOTH",
"342 536 OFFCURVE",
"290 513 OFFCURVE",
"264 466 CURVE",
"264 520 LINE",
"64 520 LINE",
"64 0 LINE"
);
}
);
width = 468;
},
{
anchors = (
{
name = bottom;
position = "{141, 0}";
},
{
name = top;
position = "{221, 480}";
}
);
layerId = "38FA562F-EF2C-4367-983C-F15B205514DC";
paths = (
{
closed = 1;
nodes = (
"141 0 LINE",
"141 279 LINE SMOOTH",
"141 373 OFFCURVE",
"207 437 OFFCURVE",
"299 437 CURVE SMOOTH",
"315 437 OFFCURVE",
"331 435 OFFCURVE",
"348 431 CURVE",
"362 515 LINE",
"373 485 LINE",
"353 493 OFFCURVE",
"327 495 OFFCURVE",
"305 495 CURVE SMOOTH",
"242 495 OFFCURVE",
"185 473 OFFCURVE",
"141 403 CURVE",
"141 480 LINE",
"85 480 LINE",
"85 0 LINE"
);
}
);
width = 378;
}
);
leftKerningGroup = idotless;
leftMetricsKey = l;
rightKerningGroup = r;
unicode = 0072;
},
{
color = 6;
glyphname = s;
lastChange = "2020-01-27 11:58:37 +0000";
layers = (
{
anchors = (
{
name = bottom;
position = "{272, 0}";
},
{
name = top;
position = "{275, 520}";
}
);
layerId = "E991CF0C-7E17-4C48-B08A-36C8E595ED17";
paths = (
{
closed = 1;
nodes = (
"413 -14 OFFCURVE",
"510 58 OFFCURVE",
"510 167 CURVE SMOOTH",
"510 261 OFFCURVE",
"452 307 OFFCURVE",
"296 338 CURVE SMOOTH",
"230 351 OFFCURVE",
"220 355 OFFCURVE",
"220 370 CURVE SMOOTH",
"220 385 OFFCURVE",
"244 394 OFFCURVE",
"282 394 CURVE SMOOTH",
"335 394 OFFCURVE",
"401 373 OFFCURVE",
"446 342 CURVE",
"537 559 LINE",
"539 444 LINE",
"487 501 OFFCURVE",
"385 540 OFFCURVE",
"275 540 CURVE SMOOTH",
"139 540 OFFCURVE",
"44 471 OFFCURVE",
"44 364 CURVE SMOOTH",
"44 264 OFFCURVE",
"110 209 OFFCURVE",
"256 187 CURVE SMOOTH",
"329 176 OFFCURVE",
"335 174 OFFCURVE",
"335 159 CURVE SMOOTH",
"335 141 OFFCURVE",
"313 132 OFFCURVE",
"270 132 CURVE SMOOTH",
"213 132 OFFCURVE",
"142 154 OFFCURVE",
"81 189 CURVE",
"-13 -28 LINE",
"-17 89 LINE",
"49 22 OFFCURVE",
"145 -14 OFFCURVE",
"272 -14 CURVE SMOOTH"
);
}
);
width = 544;
},
{
anchors = (
{
name = bottom;
position = "{227, 0}";
},
{
name = top;
position = "{235, 480}";
}
);
layerId = "38FA562F-EF2C-4367-983C-F15B205514DC";
paths = (
{
closed = 1;
nodes = (
"337 -15 OFFCURVE",
"409 41 OFFCURVE",
"409 128 CURVE SMOOTH",
"409 204 OFFCURVE",
"362 243 OFFCURVE",
"251 270 CURVE SMOOTH",
"160 292 OFFCURVE",
"119 311 OFFCURVE",
"119 365 CURVE SMOOTH",
"119 417 OFFCURVE",
"166 448 OFFCURVE",
"233 448 CURVE SMOOTH",
"288 448 OFFCURVE",
"341 427 OFFCURVE",
"373 393 CURVE",
"415 464 LINE",
"414 431 LINE",
"370 476 OFFCURVE",
"307 500 OFFCURVE",
"235 500 CURVE SMOOTH",
"135 500 OFFCURVE",
"64 441 OFFCURVE",
"64 362 CURVE SMOOTH",
"64 287 OFFCURVE",
"110 250 OFFCURVE",
"222 221 CURVE SMOOTH",
"321 195 OFFCURVE",
"353 176 OFFCURVE",
"353 124 CURVE SMOOTH",
"353 69 OFFCURVE",
"305 37 OFFCURVE",
"228 37 CURVE SMOOTH",
"172 37 OFFCURVE",
"117 58 OFFCURVE",
"80 95 CURVE",
"35 26 LINE",
"39 57 LINE",
"77 15 OFFCURVE",
"152 -15 OFFCURVE",
"227 -15 CURVE SMOOTH"
);
}
);
width = 466;
}
);
leftKerningGroup = s;
rightKerningGroup = s;
unicode = 0073;
},
{
color = 4;
glyphname = germandbls;
lastChange = "2020-01-27 13:22:25 +0000";
layers = (
{
guideLines = (
{
angle = 90;
position = "{240, 307}";
}
);
layerId = "38FA562F-EF2C-4367-983C-F15B205514DC";
paths = (
{
closed = 1;
nodes = (
"466 -15 OFFCURVE",
"541 43 OFFCURVE",
"541 130 CURVE SMOOTH",
"541 216 OFFCURVE",
"486 252 OFFCURVE",
"429 285 CURVE SMOOTH",
"390 308 OFFCURVE",
"347 332 OFFCURVE",
"347 377 CURVE SMOOTH",
"347 408 OFFCURVE",
"376 432 OFFCURVE",
"401 458 CURVE SMOOTH",
"437 496 OFFCURVE",
"481 527 OFFCURVE",
"481 588 CURVE SMOOTH",
"481 677 OFFCURVE",
"400 735 OFFCURVE",
"285 735 CURVE SMOOTH",
"163 735 OFFCURVE",
"85 655 OFFCURVE",
"85 546 CURVE SMOOTH",
"85 0 LINE",
"141 0 LINE",
"141 530 LINE SMOOTH",
"141 625 OFFCURVE",
"191 681 OFFCURVE",
"287 681 CURVE SMOOTH",
"364 681 OFFCURVE",
"420 646 OFFCURVE",
"420 587 CURVE SMOOTH",
"420 545 OFFCURVE",
"387 520 OFFCURVE",
"354 486 CURVE SMOOTH",
"326 457 OFFCURVE",
"285 424 OFFCURVE",
"285 372 CURVE SMOOTH",
"285 306 OFFCURVE",
"348 268 OFFCURVE",
"393 240 CURVE SMOOTH",
"439 212 OFFCURVE",
"480 185 OFFCURVE",
"480 128 CURVE SMOOTH",
"480 71 OFFCURVE",
"433 37 OFFCURVE",
"358 37 CURVE SMOOTH",
"321 37 OFFCURVE",
"285 44 OFFCURVE",
"251 56 CURVE",
"251 -2 LINE",
"287 -11 OFFCURVE",
"329 -15 OFFCURVE",
"355 -15 CURVE SMOOTH"
);
}
);
width = 603;
},
{
guideLines = (
{
angle = 90;
position = "{391, 306}";
}
);
layerId = "E991CF0C-7E17-4C48-B08A-36C8E595ED17";
paths = (
{
closed = 1;
nodes = (
"596 -14 OFFCURVE",
"698 68 OFFCURVE",
"698 178 CURVE SMOOTH",
"698 249 OFFCURVE",
"649 294 OFFCURVE",
"611 329 CURVE SMOOTH",
"587 350 OFFCURVE",
"568 368 OFFCURVE",
"568 386 CURVE SMOOTH",
"568 402 OFFCURVE",
"578 420 OFFCURVE",
"590 441 CURVE SMOOTH",
"608 472 OFFCURVE",
"630 511 OFFCURVE",
"630 561 CURVE SMOOTH",
"630 664 OFFCURVE",
"524 735 OFFCURVE",
"368 735 CURVE SMOOTH",
"180 735 OFFCURVE",
"64 635 OFFCURVE",
"64 473 CURVE SMOOTH",
"64 0 LINE",
"264 0 LINE",
"264 462 LINE SMOOTH",
"264 531 OFFCURVE",
"300 572 OFFCURVE",
"362 572 CURVE SMOOTH",
"407 572 OFFCURVE",
"438 550 OFFCURVE",
"438 514 CURVE SMOOTH",
"438 492 OFFCURVE",
"423 468 OFFCURVE",
"407 443 CURVE SMOOTH",
"390 415 OFFCURVE",
"372 386 OFFCURVE",
"372 356 CURVE SMOOTH",
"372 309 OFFCURVE",
"409 278 OFFCURVE",
"442 250 CURVE SMOOTH",
"468 228 OFFCURVE",
"491 208 OFFCURVE",
"491 184 CURVE SMOOTH",
"491 152 OFFCURVE",
"464 132 OFFCURVE",
"422 132 CURVE SMOOTH",
"392 132 OFFCURVE",
"359 143 OFFCURVE",
"322 165 CURVE",
"322 3 LINE",
"382 -9 OFFCURVE",
"427 -14 OFFCURVE",
"461 -14 CURVE SMOOTH"
);
}
);
width = 737;
}
);
leftMetricsKey = n;
rightMetricsKey = "=s+5";
unicode = 00DF;
},
{
color = 6;
glyphname = t;
lastChange = "2020-01-27 15:44:24 +0000";
layers = (
{
anchors = (
{
name = bar;
position = "{210, 267}";
},
{
name = bottom;
position = "{279, 0}";
},
{
name = caron;
position = "{302, 720}";
}
);
guideLines = (
{
angle = 90;
position = "{210, 330}";
}
);
layerId = "E991CF0C-7E17-4C48-B08A-36C8E595ED17";
paths = (
{
closed = 1;
nodes = (
"355 -15 OFFCURVE",
"406 1 OFFCURVE",
"439 20 CURVE",
"417 175 LINE",
"399 165 OFFCURVE",
"378 160 OFFCURVE",
"359 160 CURVE SMOOTH",
"328 160 OFFCURVE",
"302 176 OFFCURVE",
"302 220 CURVE SMOOTH",
"302 364 LINE",
"410 364 LINE",
"410 520 LINE",
"302 520 LINE",
"302 667 LINE",
"102 667 LINE",
"102 189 LINE SMOOTH",
"102 55 OFFCURVE",
"175 -15 OFFCURVE",
"299 -15 CURVE SMOOTH"
);
},
{
closed = 1;
nodes = (
"118 364 LINE",
"118 520 LINE",
"10 520 LINE",
"10 364 LINE"
);
}
);
width = 465;
},
{
anchors = (
{
name = bar;
position = "{195, 260}";
},
{
name = bottom;
position = "{266, 0}";
},
{
name = caron;
position = "{205, 720}";
}
);
layerId = "38FA562F-EF2C-4367-983C-F15B205514DC";
paths = (
{
closed = 1;
nodes = (
"315 -15 OFFCURVE",
"346 -8 OFFCURVE",
"372 5 CURVE",
"354 54 LINE",
"338 46 OFFCURVE",
"317 40 OFFCURVE",
"296 40 CURVE SMOOTH",
"233 40 OFFCURVE",
"205 70 OFFCURVE",
"205 155 CURVE SMOOTH",
"205 428 LINE",
"360 428 LINE",
"360 480 LINE",
"205 480 LINE",
"205 623 LINE",
"149 623 LINE",
"149 135 LINE SMOOTH",
"149 31 OFFCURVE",
"205 -15 OFFCURVE",
"286 -15 CURVE SMOOTH"
);
},
{
closed = 1;
nodes = (
"162 428 LINE",
"162 480 LINE",
"30 480 LINE",
"30 428 LINE"
);
}
);
width = 414;
}
);
leftKerningGroup = t;
rightKerningGroup = t;
unicode = 0074;
},
{
color = 6;
glyphname = u;
lastChange = "2020-01-27 18:28:36 +0000";
layers = (
{
anchors = (
{
name = bottom;
position = "{329, 0}";
},
{
name = horn;
position = "{600, 520}";
},
{
name = ogonek;
position = "{600, 0}";
},
{
name = top;
position = "{335, 520}";
}
);
layerId = "E991CF0C-7E17-4C48-B08A-36C8E595ED17";
paths = (
{
closed = 1;
nodes = (
"358 -15 OFFCURVE",
"401 20 OFFCURVE",
"430 51 CURVE",
"430 0 LINE",
"600 0 LINE",
"600 520 LINE",
"400 520 LINE",
"400 241 LINE SMOOTH",
"400 196 OFFCURVE",
"374 165 OFFCURVE",
"329 165 CURVE SMOOTH",
"282 165 OFFCURVE",
"260 193 OFFCURVE",
"260 241 CURVE SMOOTH",
"260 520 LINE",
"60 520 LINE",
"60 214 LINE SMOOTH",
"60 71 OFFCURVE",
"127 -15 OFFCURVE",
"271 -15 CURVE SMOOTH"
);
}
);
width = 664;
},
{
anchors = (
{
name = bottom;
position = "{278, 0}";
},
{
name = horn;
position = "{487, 480}";
},
{
name = ogonek;
position = "{487, 0}";
},
{
name = top;
position = "{282, 480}";
}
);
layerId = "38FA562F-EF2C-4367-983C-F15B205514DC";
paths = (
{
closed = 1;
nodes = (
"328 -15 OFFCURVE",
"386 7 OFFCURVE",
"431 63 CURVE",
"431 0 LINE",
"487 0 LINE",
"487 480 LINE",
"431 480 LINE",
"431 195 LINE SMOOTH",
"431 102 OFFCURVE",
"362 39 OFFCURVE",
"278 39 CURVE SMOOTH",
"191 39 OFFCURVE",
"137 94 OFFCURVE",
"137 174 CURVE SMOOTH",
"137 480 LINE",
"81 480 LINE",
"81 157 LINE SMOOTH",
"81 76 OFFCURVE",
"142 -15 OFFCURVE",
"268 -15 CURVE SMOOTH"
);
}
);
width = 572;
}
);
leftKerningGroup = u;
leftMetricsKey = "=|n";
rightKerningGroup = idotless;
rightMetricsKey = l;
unicode = 0075;
},
{
color = 4;
glyphname = v;
lastChange = "2019-12-20 09:13:02 +0000";
layers = (
{
layerId = "E991CF0C-7E17-4C48-B08A-36C8E595ED17";
paths = (
{
closed = 1;
nodes = (
"416 0 LINE",
"584 520 LINE",
"376 520 LINE",
"289 173 LINE",
"308 173 LINE",
"218 520 LINE",
"5 520 LINE",
"182 0 LINE"
);
}
);
width = 589;
},
{
layerId = "38FA562F-EF2C-4367-983C-F15B205514DC";
paths = (
{
closed = 1;
nodes = (
"272 0 LINE",
"462 480 LINE",
"399 480 LINE",
"236 47 LINE",
"251 47 LINE",
"86 480 LINE",
"21 480 LINE",
"211 0 LINE"
);
}
);
width = 483;
}
);
leftKerningGroup = v;
rightKerningGroup = v;
rightMetricsKey = "=|";
unicode = 0076;
},
{
color = 4;
glyphname = w;
lastChange = "2020-01-27 18:36:27 +0000";
layers = (
{
anchors = (
{
name = top;
position = "{428, 517}";
}
);
layerId = "E991CF0C-7E17-4C48-B08A-36C8E595ED17";
paths = (
{
closed = 1;
nodes = (
"352 0 LINE",
"431 279 LINE",
"506 0 LINE",
"702 0 LINE",
"853 520 LINE",
"668 520 LINE",
"604 229 LINE",
"524 520 LINE",
"344 520 LINE",
"263 229 LINE",
"196 520 LINE",
"5 520 LINE",
"156 0 LINE"
);
}
);
width = 858;
},
{
anchors = (
{
name = top;
position = "{375, 480}";
}
);
layerId = "38FA562F-EF2C-4367-983C-F15B205514DC";
paths = (
{
closed = 1;
nodes = (
"243 0 LINE",
"377 401 LINE",
"506 0 LINE",
"570 0 LINE",
"728 480 LINE",
"672 480 LINE",
"538 66 LINE",
"412 480 LINE",
"348 480 LINE",
"211 66 LINE",
"82 480 LINE",
"21 480 LINE",
"179 0 LINE"
);
}
);
width = 749;
}
);
leftKerningGroup = v;
leftMetricsKey = v;
rightKerningGroup = v;
rightMetricsKey = v;
unicode = 0077;
},
{
color = 4;
glyphname = x;
lastChange = "2020-01-27 15:59:42 +0000";
layers = (
{
layerId = "E991CF0C-7E17-4C48-B08A-36C8E595ED17";
paths = (
{
closed = 1;
nodes = (
"256 2 LINE",
"330 124 LINE",
"404 0 LINE",
"660 0 LINE",
"476 256 LINE",
"649 520 LINE",
"401 520 LINE",
"337 388 LINE",
"271 520 LINE",
"19 520 LINE",
"196 253 LINE",
"10 -2 LINE"
);
}
);
width = 670;
},
{
layerId = "38FA562F-EF2C-4367-983C-F15B205514DC";
paths = (
{
closed = 1;
nodes = (
"77 0 LINE",
"218 204 LINE",
"356 0 LINE",
"428 0 LINE",
"254 249 LINE",
"412 480 LINE",
"345 480 LINE",
"220 291 LINE",
"91 480 LINE",
"20 480 LINE",
"184 246 LINE",
"9 0 LINE"
);
}
);
width = 437;
}
);
leftKerningGroup = x;
rightKerningGroup = x;
rightMetricsKey = "=|";
unicode = 0078;
},
{
color = 6;
glyphname = y;
lastChange = "2020-01-27 11:10:37 +0000";
layers = (
{
anchors = (
{
name = bottom;
position = "{553, 0}";
},
{
name = top;
position = "{304, 520}";
}
);
layerId = "E991CF0C-7E17-4C48-B08A-36C8E595ED17";
paths = (
{
closed = 1;
nodes = (
"257 -223 OFFCURVE",
"348 -174 OFFCURVE",
"403 -37 CURVE SMOOTH",
"613 520 LINE",
"402 520 LINE",
"308 193 LINE",
"211 520 LINE",
"-5 520 LINE",
"195 2 LINE",
"193 -6 LINE SMOOTH",
"185 -35 OFFCURVE",
"157 -44 OFFCURVE",
"127 -44 CURVE SMOOTH",
"102 -44 OFFCURVE",
"73 -37 OFFCURVE",
"51 -26 CURVE",
"-12 -279 LINE",
"-31 -162 LINE",
"8 -204 OFFCURVE",
"82 -223 OFFCURVE",
"157 -223 CURVE SMOOTH"
);
}
);
width = 618;
},
{
anchors = (
{
name = bottom;
position = "{361, 0}";
},
{
name = top;
position = "{236, 480}";
}
);
layerId = "38FA562F-EF2C-4367-983C-F15B205514DC";
paths = (
{
closed = 1;
nodes = (
"159 -225 OFFCURVE",
"204 -200 OFFCURVE",
"245 -92 CURVE SMOOTH",
"461 480 LINE",
"401 480 LINE",
"244 62 LINE",
"83 480 LINE",
"20 480 LINE",
"212 -14 LINE",
"187 -86 LINE SMOOTH",
"167 -143 OFFCURVE",
"144 -171 OFFCURVE",
"88 -171 CURVE SMOOTH",
"71 -171 OFFCURVE",
"46 -165 OFFCURVE",
"26 -150 CURVE",
"4 -225 LINE",
"-7 -188 LINE",
"30 -218 OFFCURVE",
"59 -225 OFFCURVE",
"89 -225 CURVE SMOOTH"
);
}
);
width = 482;
}
);
leftKerningGroup = v;
rightKerningGroup = v;
rightMetricsKey = v;
unicode = 0079;
},
{
color = 6;
glyphname = z;
lastChange = "2019-12-20 09:36:22 +0000";
layers = (
{
anchors = (
{
name = top;
position = "{263, 520}";
}
);
layerId = "E991CF0C-7E17-4C48-B08A-36C8E595ED17";
paths = (
{
closed = 1;
nodes = (
"490 0 LINE",
"490 175 LINE",
"298 175 LINE",
"486 390 LINE",
"486 520 LINE",
"44 520 LINE",
"44 345 LINE",
"238 345 LINE",
"35 130 LINE",
"35 0 LINE"
);
}
);
width = 525;
},
{
anchors = (
{
name = top;
position = "{230, 480}";
}
);
layerId = "38FA562F-EF2C-4367-983C-F15B205514DC";
paths = (
{
closed = 1;
nodes = (
"411 0 LINE",
"411 52 LINE",
"118 52 LINE",
"407 432 LINE",
"407 480 LINE",
"53 480 LINE",
"53 428 LINE",
"339 428 LINE",
"50 48 LINE",
"50 0 LINE"
);
}
);
width = 461;
}
);
leftKerningGroup = z;
rightKerningGroup = z;
unicode = 007A;
},
{
color = 6;
glyphname = a.ss01;
lastChange = "2020-01-27 15:07:54 +0000";
layers = (
{
anchors = (
{
name = bottom;
position = "{319, 0}";
},
{
name = ogonek;
position = "{608, 0}";
},
{
name = top;
position = "{319, 520}";
}
);
background = {
paths = (
{
closed = 1;
nodes = (
"310 135 OFFCURVE",
"295 153 OFFCURVE",
"295 173 CURVE SMOOTH",
"295 188 OFFCURVE",
"303 199 OFFCURVE",
"318 208 CURVE SMOOTH",
"407 261 LINE",
"407 208 LINE SMOOTH",
"407 162 OFFCURVE",
"380 135 OFFCURVE",
"342 135 CURVE SMOOTH"
);
},
{
closed = 1;
nodes = (
"116 520 LINE",
"116 364 LINE",
"352 364 LINE",
"200 289 LINE SMOOTH",
"121 247 OFFCURVE",
"91 196 OFFCURVE",
"91 139 CURVE SMOOTH",
"91 55 OFFCURVE",
"160 -11 OFFCURVE",
"272 -11 CURVE SMOOTH",
"346 -11 OFFCURVE",
"398 15 OFFCURVE",
"430 52 CURVE",
"430 0 LINE",
"607 0 LINE",
"607 309 LINE SMOOTH",
"607 447 OFFCURVE",
"520 520 OFFCURVE",
"359 520 CURVE SMOOTH"
);
}
);
};
layerId = "E991CF0C-7E17-4C48-B08A-36C8E595ED17";
paths = (
{
closed = 1;
nodes = (
"369 -15 OFFCURVE",
"441 29 OFFCURVE",
"466 99 CURVE",
"439 142 LINE",
"439 0 LINE",
"608 0 LINE",
"608 520 LINE",
"439 520 LINE",
"439 378 LINE",
"466 421 LINE",
"441 491 OFFCURVE",
"369 535 OFFCURVE",
"277 535 CURVE SMOOTH",
"134 535 OFFCURVE",
"25 430 OFFCURVE",
"25 260 CURVE SMOOTH",
"25 90 OFFCURVE",
"134 -15 OFFCURVE",
"277 -15 CURVE SMOOTH"
);
},
{
closed = 1;
nodes = (
"261 155 OFFCURVE",
"218 195 OFFCURVE",
"218 260 CURVE SMOOTH",
"218 325 OFFCURVE",
"261 365 OFFCURVE",
"314 365 CURVE SMOOTH",
"367 365 OFFCURVE",
"410 325 OFFCURVE",
"410 260 CURVE SMOOTH",
"410 195 OFFCURVE",
"367 155 OFFCURVE",
"314 155 CURVE SMOOTH"
);
}
);
width = 672;
},
{
anchors = (
{
name = bottom;
position = "{298, 0}";
},
{
name = ogonek;
position = "{542, 0}";
},
{
name = top;
position = "{298, 480}";
}
);
layerId = "38FA562F-EF2C-4367-983C-F15B205514DC";
paths = (
{
closed = 1;
nodes = (
"393 -15 OFFCURVE",
"454 32 OFFCURVE",
"495 94 CURVE",
"486 106 LINE",
"486 0 LINE",
"542 0 LINE",
"542 480 LINE",
"486 480 LINE",
"486 374 LINE",
"495 386 LINE",
"454 448 OFFCURVE",
"393 495 OFFCURVE",
"292 495 CURVE SMOOTH",
"142 495 OFFCURVE",
"40 379 OFFCURVE",
"40 240 CURVE SMOOTH",
"40 101 OFFCURVE",
"142 -15 OFFCURVE",
"292 -15 CURVE SMOOTH"
);
},
{
closed = 1;
nodes = (
"180 39 OFFCURVE",
"100 117 OFFCURVE",
"100 240 CURVE SMOOTH",
"100 363 OFFCURVE",
"180 441 OFFCURVE",
"293 441 CURVE SMOOTH",
"406 441 OFFCURVE",
"486 363 OFFCURVE",
"486 240 CURVE SMOOTH",
"486 117 OFFCURVE",
"406 39 OFFCURVE",
"293 39 CURVE SMOOTH"
);
}
);
width = 627;
}
);
leftKerningGroup = o;
leftMetricsKey = o;
rightKerningGroup = idotless;
rightMetricsKey = l;
},
{
color = 6;
glyphname = g.ss01;
lastChange = "2020-01-27 15:07:56 +0000";
layers = (
{
anchors = (
{
name = top;
position = "{309, 520}";
}
);
layerId = "E991CF0C-7E17-4C48-B08A-36C8E595ED17";
leftMetricsKey = "=o-5";
paths = (
{
closed = 1;
nodes = (
"493 -225 OFFCURVE",
"603 -116 OFFCURVE",
"603 82 CURVE SMOOTH",
"603 521 LINE",
"424 521 LINE",
"424 383 LINE",
"449 426 LINE",
"428 495 OFFCURVE",
"359 535 OFFCURVE",
"265 535 CURVE SMOOTH",
"118 535 OFFCURVE",
"20 431 OFFCURVE",
"20 275 CURVE SMOOTH",
"20 119 OFFCURVE",
"118 15 OFFCURVE",
"265 15 CURVE SMOOTH",
"359 15 OFFCURVE",
"428 55 OFFCURVE",
"449 124 CURVE",
"424 167 LINE",
"424 52 LINE SMOOTH",
"424 -20 OFFCURVE",
"374 -57 OFFCURVE",
"278 -57 CURVE SMOOTH",
"224 -57 OFFCURVE",
"177 -47 OFFCURVE",
"133 -25 CURVE",
"72 -267 LINE",
"50 -147 LINE",
"110 -203 OFFCURVE",
"192 -225 OFFCURVE",
"294 -225 CURVE SMOOTH"
);
},
{
closed = 1;
nodes = (
"253 180 OFFCURVE",
"213 219 OFFCURVE",
"213 275 CURVE SMOOTH",
"213 331 OFFCURVE",
"253 370 OFFCURVE",
"309 370 CURVE SMOOTH",
"365 370 OFFCURVE",
"405 331 OFFCURVE",
"405 275 CURVE SMOOTH",
"405 219 OFFCURVE",
"365 180 OFFCURVE",
"309 180 CURVE SMOOTH"
);
}
);
width = 667;
},
{
anchors = (
{
name = top;
position = "{293, 480}";
}
);
layerId = "38FA562F-EF2C-4367-983C-F15B205514DC";
paths = (
{
closed = 1;
nodes = (
"459 -225 OFFCURVE",
"542 -131 OFFCURVE",
"542 24 CURVE SMOOTH",
"542 480 LINE",
"486 480 LINE",
"486 373 LINE",
"495 385 LINE",
"454 448 OFFCURVE",
"393 495 OFFCURVE",
"293 495 CURVE SMOOTH",
"142 495 OFFCURVE",
"40 379 OFFCURVE",
"40 240 CURVE SMOOTH",
"40 101 OFFCURVE",
"142 -15 OFFCURVE",
"293 -15 CURVE SMOOTH",
"393 -15 OFFCURVE",
"454 32 OFFCURVE",
"495 95 CURVE",
"486 107 LINE",
"486 3 LINE SMOOTH",
"486 -99 OFFCURVE",
"417 -171 OFFCURVE",
"292 -171 CURVE SMOOTH",
"241 -171 OFFCURVE",
"183 -159 OFFCURVE",
"128 -133 CURVE",
"99 -210 LINE",
"92 -178 LINE",
"156 -212 OFFCURVE",
"228 -225 OFFCURVE",
"291 -225 CURVE SMOOTH"
);
},
{
closed = 1;
nodes = (
"180 39 OFFCURVE",
"100 117 OFFCURVE",
"100 240 CURVE SMOOTH",
"100 363 OFFCURVE",
"180 441 OFFCURVE",
"293 441 CURVE SMOOTH",
"406 441 OFFCURVE",
"486 363 OFFCURVE",
"486 240 CURVE SMOOTH",
"486 117 OFFCURVE",
"406 39 OFFCURVE",
"293 39 CURVE SMOOTH"
);
}
);
width = 627;
}
);
leftKerningGroup = o;
leftMetricsKey = o;
rightKerningGroup = jdotless;
rightMetricsKey = l;
},
{
color = 2;
glyphname = ordfeminine;
lastChange = "2020-01-27 15:14:36 +0000";
layers = (
{
anchors = (
{
name = bottom;
position = "{184, 361}";
},
{
name = ogonek;
position = "{323, 361}";
},
{
name = top;
position = "{184, 677}";
}
);
guideLines = (
{
position = "{211, 450}";
}
);
layerId = "38FA562F-EF2C-4367-983C-F15B205514DC";
paths = (
{
closed = 1;
nodes = (
"206 351 OFFCURVE",
"250 367 OFFCURVE",
"274 401 CURVE",
"274 361 LINE",
"323 361 LINE",
"323 569 LINE SMOOTH",
"323 648 OFFCURVE",
"275 690 OFFCURVE",
"185 690 CURVE SMOOTH",
"141 690 OFFCURVE",
"93 678 OFFCURVE",
"51 643 CURVE",
"56 675 LINE",
"81 613 LINE",
"110 634 OFFCURVE",
"143 645 OFFCURVE",
"180 645 CURVE SMOOTH",
"240 645 OFFCURVE",
"272 616 OFFCURVE",
"272 569 CURVE SMOOTH",
"272 477 LINE SMOOTH",
"272 430 OFFCURVE",
"228 395 OFFCURVE",
"170 395 CURVE SMOOTH",
"124 395 OFFCURVE",
"95 416 OFFCURVE",
"95 452 CURVE SMOOTH",
"95 496 OFFCURVE",
"150 525 OFFCURVE",
"290 507 CURVE",
"288 547 LINE",
"112 565 OFFCURVE",
"46 517 OFFCURVE",
"46 451 CURVE SMOOTH",
"46 390 OFFCURVE",
"91 351 OFFCURVE",
"159 351 CURVE SMOOTH"
);
}
);
userData = {
RMXScaler = {
adjustSpace = 10;
height = 65;
verticalShift = 361;
weight = -5;
width = 67;
};
};
width = 385;
},
{
anchors = (
{
name = bottom;
position = "{206, 361}";
},
{
name = ogonek;
position = "{378, 361}";
},
{
name = top;
position = "{206, 699}";
}
);
guideLines = (
{
position = "{211, 450}";
}
);
layerId = "E991CF0C-7E17-4C48-B08A-36C8E595ED17";
paths = (
{
closed = 1;
nodes = (
"206 351 OFFCURVE",
"246 367 OFFCURVE",
"267 394 CURVE",
"267 361 LINE",
"378 361 LINE",
"378 563 LINE SMOOTH",
"378 668 OFFCURVE",
"312 713 OFFCURVE",
"206 713 CURVE SMOOTH",
"141 713 OFFCURVE",
"72 690 OFFCURVE",
"23 644 CURVE",
"33 725 LINE",
"84 585 LINE",
"111 604 OFFCURVE",
"149 615 OFFCURVE",
"180 615 CURVE SMOOTH",
"243 615 OFFCURVE",
"254 589 OFFCURVE",
"254 561 CURVE SMOOTH",
"254 492 LINE SMOOTH",
"254 458 OFFCURVE",
"228 442 OFFCURVE",
"196 442 CURVE SMOOTH",
"170 442 OFFCURVE",
"153 451 OFFCURVE",
"153 468 CURVE SMOOTH",
"153 502 OFFCURVE",
"210 507 OFFCURVE",
"272 494 CURVE",
"272 572 LINE",
"117 584 OFFCURVE",
"36 541 OFFCURVE",
"36 461 CURVE SMOOTH",
"36 392 OFFCURVE",
"91 351 OFFCURVE",
"158 351 CURVE SMOOTH"
);
}
);
userData = {
RMXScaler = {
adjustSpace = 10;
height = 65;
verticalShift = 361;
weight = -70;
width = 67;
};
};
width = 429;
}
);
leftKerningGroup = asterisk;
rightKerningGroup = asterisk;
unicode = 00AA;
userData = {
RMXScaler = {
source = a;
};
};
},
{
color = 2;
glyphname = ordmasculine;
lastChange = "2020-01-27 10:26:23 +0000";
layers = (
{
anchors = (
{
name = bottom;
position = "{208, 361}";
},
{
name = horn;
position = "{339, 677}";
},
{
name = ogonek;
position = "{268, 361}";
},
{
name = top;
position = "{208, 677}";
}
);
layerId = "38FA562F-EF2C-4367-983C-F15B205514DC";
paths = (
{
closed = 1;
nodes = (
"308 351 OFFCURVE",
"382 428 OFFCURVE",
"382 519 CURVE SMOOTH",
"382 610 OFFCURVE",
"308 687 OFFCURVE",
"208 687 CURVE SMOOTH",
"109 687 OFFCURVE",
"35 610 OFFCURVE",
"35 519 CURVE SMOOTH",
"35 428 OFFCURVE",
"109 351 OFFCURVE",
"208 351 CURVE SMOOTH"
);
},
{
closed = 1;
nodes = (
"138 398 OFFCURVE",
"88 445 OFFCURVE",
"88 519 CURVE SMOOTH",
"88 593 OFFCURVE",
"138 640 OFFCURVE",
"208 640 CURVE SMOOTH",
"278 640 OFFCURVE",
"329 593 OFFCURVE",
"329 519 CURVE SMOOTH",
"329 445 OFFCURVE",
"278 398 OFFCURVE",
"208 398 CURVE SMOOTH"
);
}
);
userData = {
RMXScaler = {
adjustSpace = 10;
height = 65;
verticalShift = 361;
weight = -5;
width = 67;
};
};
width = 417;
},
{
anchors = (
{
name = bottom;
position = "{223, 361}";
},
{
name = horn;
position = "{357, 699}";
},
{
name = ogonek;
position = "{289, 361}";
},
{
name = top;
position = "{223, 699}";
}
);
layerId = "E991CF0C-7E17-4C48-B08A-36C8E595ED17";
paths = (
{
closed = 1;
nodes = (
"339 351 OFFCURVE",
"419 437 OFFCURVE",
"419 530 CURVE SMOOTH",
"419 627 OFFCURVE",
"339 709 OFFCURVE",
"223 709 CURVE SMOOTH",
"107 709 OFFCURVE",
"27 623 OFFCURVE",
"27 530 CURVE SMOOTH",
"27 433 OFFCURVE",
"107 351 OFFCURVE",
"223 351 CURVE SMOOTH"
);
},
{
closed = 1;
nodes = (
"184 462 OFFCURVE",
"153 488 OFFCURVE",
"153 530 CURVE SMOOTH",
"153 572 OFFCURVE",
"183 598 OFFCURVE",
"223 598 CURVE SMOOTH",
"262 598 OFFCURVE",
"292 572 OFFCURVE",
"292 530 CURVE SMOOTH",
"292 488 OFFCURVE",
"262 462 OFFCURVE",
"223 462 CURVE SMOOTH"
);
}
);
userData = {
RMXScaler = {
adjustSpace = 10;
height = 65;
verticalShift = 361;
weight = -70;
width = 67;
};
};
width = 446;
}
);
leftKerningGroup = asterisk;
rightKerningGroup = asterisk;
unicode = 00BA;
userData = {
RMXScaler = {
source = o;
};
};
},
{
color = 2;
glyphname = ordfeminine.ss01;
lastChange = "2020-01-27 15:14:41 +0000";
layers = (
{
anchors = (
{
name = bottom;
position = "{211, 361}";
},
{
name = ogonek;
position = "{379, 361}";
},
{
name = top;
position = "{211, 677}";
}
);
guideLines = (
{
position = "{211, 450}";
}
);
layerId = "38FA562F-EF2C-4367-983C-F15B205514DC";
paths = (
{
closed = 1;
nodes = (
"271 351 OFFCURVE",
"313 382 OFFCURVE",
"339 423 CURVE",
"331 434 LINE",
"331 361 LINE",
"379 361 LINE",
"379 677 LINE",
"331 677 LINE",
"331 605 LINE",
"339 615 LINE",
"313 656 OFFCURVE",
"271 687 OFFCURVE",
"204 687 CURVE SMOOTH",
"104 687 OFFCURVE",
"35 612 OFFCURVE",
"35 519 CURVE SMOOTH",
"35 426 OFFCURVE",
"104 351 OFFCURVE",
"204 351 CURVE SMOOTH"
);
},
{
closed = 1;
nodes = (
"138 398 OFFCURVE",
"88 445 OFFCURVE",
"88 519 CURVE SMOOTH",
"88 593 OFFCURVE",
"138 640 OFFCURVE",
"208 640 CURVE SMOOTH",
"278 640 OFFCURVE",
"328 593 OFFCURVE",
"328 519 CURVE SMOOTH",
"328 445 OFFCURVE",
"278 398 OFFCURVE",
"208 398 CURVE SMOOTH"
);
}
);
userData = {
RMXScaler = {
adjustSpace = 10;
height = 65;
verticalShift = 361;
weight = -5;
width = 67;
};
};
width = 444;
},
{
anchors = (
{
name = bottom;
position = "{223, 361}";
},
{
name = ogonek;
position = "{415, 361}";
},
{
name = top;
position = "{223, 699}";
}
);
guideLines = (
{
position = "{211, 450}";
}
);
layerId = "E991CF0C-7E17-4C48-B08A-36C8E595ED17";
paths = (
{
closed = 1;
nodes = (
"257 351 OFFCURVE",
"306 380 OFFCURVE",
"323 425 CURVE",
"305 453 LINE",
"305 361 LINE",
"415 361 LINE",
"415 699 LINE",
"305 699 LINE",
"305 607 LINE",
"323 635 LINE",
"306 680 OFFCURVE",
"257 709 OFFCURVE",
"196 709 CURVE SMOOTH",
"100 709 OFFCURVE",
"27 640 OFFCURVE",
"27 530 CURVE SMOOTH",
"27 420 OFFCURVE",
"100 351 OFFCURVE",
"196 351 CURVE SMOOTH"
);
},
{
closed = 1;
nodes = (
"183 462 OFFCURVE",
"153 488 OFFCURVE",
"153 530 CURVE SMOOTH",
"153 572 OFFCURVE",
"183 598 OFFCURVE",
"220 598 CURVE SMOOTH",
"257 598 OFFCURVE",
"287 572 OFFCURVE",
"287 530 CURVE SMOOTH",
"287 488 OFFCURVE",
"257 462 OFFCURVE",
"220 462 CURVE SMOOTH"
);
}
);
userData = {
RMXScaler = {
adjustSpace = 10;
height = 65;
verticalShift = 361;
weight = -70;
width = 67;
};
};
width = 468;
}
);
leftKerningGroup = asterisk;
rightKerningGroup = asterisk;
userData = {
RMXScaler = {
source = a.ss01;
};
};
},
{
glyphname = Gamma;
lastChange = "2020-02-06 12:59:35 +0000";
layers = (
{
layerId = "38FA562F-EF2C-4367-983C-F15B205514DC";
paths = (
{
closed = 1;
nodes = (
"158 0 LINE",
"158 646 LINE",
"482 646 LINE",
"482 700 LINE",
"100 700 LINE",
"100 0 LINE"
);
}
);
width = 517;
},
{
layerId = "E991CF0C-7E17-4C48-B08A-36C8E595ED17";
paths = (
{
closed = 1;
nodes = (
"280 0 LINE",
"280 516 LINE",
"539 516 LINE",
"539 700 LINE",
"78 700 LINE",
"78 0 LINE"
);
}
);
width = 567;
}
);
leftMetricsKey = I;
rightKerningGroup = Gamma;
unicode = 0393;
},
{
glyphname = Delta;
lastChange = "2020-02-06 12:59:30 +0000";
layers = (
{
layerId = "38FA562F-EF2C-4367-983C-F15B205514DC";
paths = (
{
closed = 1;
nodes = (
"641 0 LINE",
"641 49 LINE",
"350 700 LINE",
"300 700 LINE",
"21 49 LINE",
"21 0 LINE"
);
},
{
closed = 1;
nodes = (
"323 614 LINE",
"573 54 LINE",
"85 54 LINE"
);
}
);
width = 662;
},
{
layerId = "E991CF0C-7E17-4C48-B08A-36C8E595ED17";
paths = (
{
closed = 1;
nodes = (
"697 0 LINE",
"697 168 LINE",
"482 700 LINE",
"247 700 LINE",
"30 168 LINE",
"30 0 LINE"
);
},
{
closed = 1;
nodes = (
"362 473 LINE",
"477 184 LINE",
"247 184 LINE"
);
}
);
width = 727;
},
{
associatedMasterId = "38FA562F-EF2C-4367-983C-F15B205514DC";
layerId = "2DDC60D2-33DB-4ED3-9B6C-D1EA426BC43C";
name = "Jan 28 20, 12:19";
paths = (
{
closed = 1;
nodes = (
"631 0 LINE",
"631 49 LINE",
"350 700 LINE",
"300 700 LINE",
"31 49 LINE",
"31 0 LINE"
);
},
{
closed = 1;
nodes = (
"323 614 LINE",
"563 54 LINE",
"95 54 LINE"
);
}
);
width = 662;
}
);
leftKerningGroup = Delta;
rightKerningGroup = A;
rightMetricsKey = "=|";
unicode = 0394;
},
{
glyphname = Theta;
lastChange = "2020-02-06 13:06:33 +0000";
layers = (
{
layerId = "38FA562F-EF2C-4367-983C-F15B205514DC";
paths = (
{
closed = 1;
nodes = (
"623 -15 OFFCURVE",
"782 143 OFFCURVE",
"782 350 CURVE SMOOTH",
"782 554 OFFCURVE",
"623 715 OFFCURVE",
"419 715 CURVE SMOOTH",
"213 715 OFFCURVE",
"56 558 OFFCURVE",
"56 350 CURVE SMOOTH",
"56 143 OFFCURVE",
"213 -15 OFFCURVE",
"419 -15 CURVE SMOOTH"
);
},
{
closed = 1;
nodes = (
"251 41 OFFCURVE",
"116 164 OFFCURVE",
"116 350 CURVE SMOOTH",
"116 536 OFFCURVE",
"251 659 OFFCURVE",
"419 659 CURVE SMOOTH",
"587 659 OFFCURVE",
"722 536 OFFCURVE",
"722 350 CURVE SMOOTH",
"722 164 OFFCURVE",
"587 41 OFFCURVE",
"419 41 CURVE SMOOTH"
);
},
{
closed = 1;
nodes = (
"592 326 LINE",
"592 380 LINE",
"246 380 LINE",
"246 326 LINE"
);
}
);
width = 838;
},
{
layerId = "E991CF0C-7E17-4C48-B08A-36C8E595ED17";
paths = (
{
closed = 1;
nodes = (
"635 -15 OFFCURVE",
"794 143 OFFCURVE",
"794 350 CURVE SMOOTH",
"794 554 OFFCURVE",
"635 715 OFFCURVE",
"417 715 CURVE SMOOTH",
"198 715 OFFCURVE",
"40 558 OFFCURVE",
"40 350 CURVE SMOOTH",
"40 143 OFFCURVE",
"198 -15 OFFCURVE",
"417 -15 CURVE SMOOTH"
);
},
{
closed = 1;
nodes = (
"310 170 OFFCURVE",
"247 238 OFFCURVE",
"247 350 CURVE SMOOTH",
"247 462 OFFCURVE",
"310 530 OFFCURVE",
"417 530 CURVE SMOOTH",
"524 530 OFFCURVE",
"587 462 OFFCURVE",
"587 350 CURVE SMOOTH",
"587 238 OFFCURVE",
"524 170 OFFCURVE",
"417 170 CURVE SMOOTH"
);
},
{
closed = 1;
nodes = (
"517 278 LINE",
"517 418 LINE",
"317 418 LINE",
"317 278 LINE"
);
}
);
width = 834;
}
);
leftKerningGroup = O;
leftMetricsKey = O;
rightKerningGroup = O;
rightMetricsKey = O;
unicode = 0398;
},
{
glyphname = Lambda;
lastChange = "2020-02-06 13:06:43 +0000";
layers = (
{
layerId = "38FA562F-EF2C-4367-983C-F15B205514DC";
paths = (
{
closed = 1;
nodes = (
"90 0 LINE",
"317 609 LINE",
"556 0 LINE",
"623 0 LINE",
"343 700 LINE",
"293 700 LINE",
"25 0 LINE"
);
}
);
width = 648;
},
{
layerId = "E991CF0C-7E17-4C48-B08A-36C8E595ED17";
paths = (
{
closed = 1;
nodes = (
"222 0 LINE",
"360 445 LINE",
"498 0 LINE",
"727 0 LINE",
"480 700 LINE",
"245 700 LINE",
"-3 0 LINE"
);
}
);
width = 724;
}
);
leftKerningGroup = A;
rightKerningGroup = A;
unicode = 039B;
},
{
glyphname = Xi;
lastChange = "2020-02-06 13:06:17 +0000";
layers = (
{
layerId = "38FA562F-EF2C-4367-983C-F15B205514DC";
paths = (
{
closed = 1;
nodes = (
"541 0 LINE",
"541 54 LINE",
"75 54 LINE",
"75 0 LINE"
);
},
{
closed = 1;
nodes = (
"491 337 LINE",
"491 391 LINE",
"125 391 LINE",
"125 337 LINE"
);
},
{
closed = 1;
nodes = (
"536 646 LINE",
"536 700 LINE",
"80 700 LINE",
"80 646 LINE"
);
}
);
width = 616;
},
{
layerId = "E991CF0C-7E17-4C48-B08A-36C8E595ED17";
paths = (
{
closed = 1;
nodes = (
"595 0 LINE",
"595 176 LINE",
"50 176 LINE",
"50 0 LINE"
);
},
{
closed = 1;
nodes = (
"525 274 LINE",
"525 433 LINE",
"120 433 LINE",
"120 274 LINE"
);
},
{
closed = 1;
nodes = (
"585 526 LINE",
"585 700 LINE",
"60 700 LINE",
"60 526 LINE"
);
}
);
width = 645;
}
);
unicode = 039E;
},
{
glyphname = Pi;
lastChange = "2020-01-30 00:54:56 +0000";
layers = (
{
layerId = "38FA562F-EF2C-4367-983C-F15B205514DC";
paths = (
{
closed = 1;
nodes = (
"158 0 LINE",
"158 646 LINE",
"554 646 LINE",
"554 0 LINE",
"612 0 LINE",
"612 700 LINE",
"100 700 LINE",
"100 0 LINE"
);
}
);
width = 712;
},
{
layerId = "E991CF0C-7E17-4C48-B08A-36C8E595ED17";
paths = (
{
closed = 1;
nodes = (
"280 0 LINE",
"280 516 LINE",
"502 516 LINE",
"502 0 LINE",
"704 0 LINE",
"704 700 LINE",
"78 700 LINE",
"78 0 LINE"
);
}
);
width = 782;
}
);
leftMetricsKey = I;
rightMetricsKey = I;
unicode = 03A0;
},
{
glyphname = Sigma;
lastChange = "2020-02-06 13:06:24 +0000";
layers = (
{
layerId = "38FA562F-EF2C-4367-983C-F15B205514DC";
paths = (
{
closed = 1;
nodes = (
"518 0 LINE",
"518 54 LINE",
"130 54 LINE",
"348 362 LINE",
"138 646 LINE",
"506 646 LINE",
"506 700 LINE",
"65 700 LINE",
"65 651 LINE",
"280 359 LINE",
"60 49 LINE",
"60 0 LINE"
);
}
);
width = 578;
},
{
layerId = "E991CF0C-7E17-4C48-B08A-36C8E595ED17";
paths = (
{
closed = 1;
nodes = (
"566 0 LINE",
"566 178 LINE",
"282 178 LINE",
"433 354 LINE",
"289 522 LINE",
"558 522 LINE",
"558 700 LINE",
"44 700 LINE",
"44 537 LINE",
"205 355 LINE",
"35 164 LINE",
"35 0 LINE"
);
}
);
width = 601;
}
);
unicode = 03A3;
},
{
glyphname = Phi;
lastChange = "2020-02-06 13:06:27 +0000";
layers = (
{
layerId = "38FA562F-EF2C-4367-983C-F15B205514DC";
paths = (
{
closed = 1;
nodes = (
"429 -28 LINE",
"429 72 LINE",
"616 75 OFFCURVE",
"748 180 OFFCURVE",
"748 353 CURVE SMOOTH",
"748 526 OFFCURVE",
"616 632 OFFCURVE",
"429 635 CURVE",
"429 735 LINE",
"375 735 LINE",
"375 635 LINE",
"188 632 OFFCURVE",
"56 526 OFFCURVE",
"56 353 CURVE SMOOTH",
"56 180 OFFCURVE",
"188 75 OFFCURVE",
"375 72 CURVE",
"375 -28 LINE"
);
},
{
closed = 1;
nodes = (
"216 128 OFFCURVE",
"116 214 OFFCURVE",
"116 353 CURVE SMOOTH",
"116 492 OFFCURVE",
"216 579 OFFCURVE",
"375 581 CURVE",
"375 126 LINE"
);
},
{
closed = 1;
nodes = (
"429 581 LINE",
"588 579 OFFCURVE",
"688 492 OFFCURVE",
"688 353 CURVE SMOOTH",
"688 214 OFFCURVE",
"588 128 OFFCURVE",
"429 126 CURVE"
);
}
);
width = 804;
},
{
layerId = "E991CF0C-7E17-4C48-B08A-36C8E595ED17";
paths = (
{
closed = 1;
nodes = (
"540 -36 LINE",
"540 54 LINE",
"716 63 OFFCURVE",
"840 174 OFFCURVE",
"840 354 CURVE SMOOTH",
"840 534 OFFCURVE",
"716 645 OFFCURVE",
"540 654 CURVE",
"540 744 LINE",
"340 744 LINE",
"340 654 LINE",
"164 645 OFFCURVE",
"40 534 OFFCURVE",
"40 354 CURVE SMOOTH",
"40 174 OFFCURVE",
"164 63 OFFCURVE",
"340 54 CURVE",
"340 -36 LINE"
);
},
{
closed = 1;
nodes = (
"272 231 OFFCURVE",
"232 276 OFFCURVE",
"232 354 CURVE SMOOTH",
"232 432 OFFCURVE",
"272 477 OFFCURVE",
"340 484 CURVE",
"340 224 LINE"
);
},
{
closed = 1;
nodes = (
"540 484 LINE",
"608 477 OFFCURVE",
"648 432 OFFCURVE",
"648 354 CURVE SMOOTH",
"648 276 OFFCURVE",
"608 231 OFFCURVE",
"540 224 CURVE"
);
}
);
width = 880;
}
);
leftMetricsKey = O;
rightMetricsKey = O;
unicode = 03A6;
},
{
color = 0;
glyphname = Psi;
lastChange = "2020-02-10 08:34:13 +0000";
layers = (
{
layerId = "38FA562F-EF2C-4367-983C-F15B205514DC";
paths = (
{
closed = 1;
nodes = (
"404 0 LINE",
"404 178 LINE",
"566 184 OFFCURVE",
"665 287 OFFCURVE",
"665 439 CURVE SMOOTH",
"665 700 LINE",
"607 700 LINE",
"607 448 LINE SMOOTH",
"607 308 OFFCURVE",
"531 241 OFFCURVE",
"404 234 CURVE",
"404 700 LINE",
"346 700 LINE",
"346 234 LINE",
"219 241 OFFCURVE",
"143 308 OFFCURVE",
"143 448 CURVE SMOOTH",
"143 700 LINE",
"85 700 LINE",
"85 439 LINE SMOOTH",
"85 287 OFFCURVE",
"184 184 OFFCURVE",
"346 178 CURVE",
"346 0 LINE"
);
}
);
width = 750;
},
{
background = {
paths = (
{
closed = 1;
nodes = (
"404 0 LINE",
"404 178 LINE",
"566 184 OFFCURVE",
"665 287 OFFCURVE",
"665 439 CURVE SMOOTH",
"665 700 LINE",
"607 700 LINE",
"607 448 LINE SMOOTH",
"607 308 OFFCURVE",
"531 241 OFFCURVE",
"404 234 CURVE",
"404 700 LINE",
"346 700 LINE",
"346 234 LINE",
"219 241 OFFCURVE",
"143 308 OFFCURVE",
"143 448 CURVE SMOOTH",
"143 700 LINE",
"85 700 LINE",
"85 439 LINE SMOOTH",
"85 287 OFFCURVE",
"184 184 OFFCURVE",
"346 178 CURVE",
"346 0 LINE"
);
}
);
};
layerId = "E991CF0C-7E17-4C48-B08A-36C8E595ED17";
paths = (
{
closed = 1;
nodes = (
"527 0 LINE",
"527 132 LINE",
"689 145 OFFCURVE",
"809 250 OFFCURVE",
"809 434 CURVE SMOOTH",
"809 700 LINE",
"616 700 LINE",
"616 463 LINE SMOOTH",
"616 372 OFFCURVE",
"611 314 OFFCURVE",
"523 305 CURVE",
"523 700 LINE",
"331 700 LINE",
"331 305 LINE",
"245 314 OFFCURVE",
"238 372 OFFCURVE",
"238 463 CURVE SMOOTH",
"238 700 LINE",
"45 700 LINE",
"45 434 LINE SMOOTH",
"45 250 OFFCURVE",
"165 145 OFFCURVE",
"327 132 CURVE",
"327 0 LINE"
);
}
);
width = 854;
},
{
associatedMasterId = "38FA562F-EF2C-4367-983C-F15B205514DC";
layerId = "C7F53AD1-7251-4529-934C-765A091F9591";
name = "Feb 10 20, 10:29";
paths = (
{
closed = 1;
nodes = (
"404 0 LINE",
"404 198 LINE",
"566 204 OFFCURVE",
"665 307 OFFCURVE",
"665 459 CURVE SMOOTH",
"665 700 LINE",
"607 700 LINE",
"607 468 LINE SMOOTH",
"607 328 OFFCURVE",
"531 261 OFFCURVE",
"404 254 CURVE",
"404 700 LINE",
"346 700 LINE",
"346 254 LINE",
"219 261 OFFCURVE",
"143 328 OFFCURVE",
"143 468 CURVE SMOOTH",
"143 700 LINE",
"85 700 LINE",
"85 459 LINE SMOOTH",
"85 307 OFFCURVE",
"184 204 OFFCURVE",
"346 198 CURVE",
"346 0 LINE"
);
}
);
width = 750;
},
{
associatedMasterId = "E991CF0C-7E17-4C48-B08A-36C8E595ED17";
layerId = "9BE91A76-9169-4B7C-8F5B-7A8153D7C182";
name = "Feb 10 20, 10:31";
paths = (
{
closed = 1;
nodes = (
"542 0 LINE",
"542 132 LINE",
"714 145 OFFCURVE",
"839 262 OFFCURVE",
"839 434 CURVE SMOOTH",
"839 700 LINE",
"646 700 LINE",
"646 463 LINE SMOOTH",
"646 374 OFFCURVE",
"630 325 OFFCURVE",
"542 316 CURVE",
"542 700 LINE",
"342 700 LINE",
"342 316 LINE",
"254 325 OFFCURVE",
"238 374 OFFCURVE",
"238 463 CURVE SMOOTH",
"238 700 LINE",
"45 700 LINE",
"45 434 LINE SMOOTH",
"45 262 OFFCURVE",
"170 145 OFFCURVE",
"342 132 CURVE",
"342 0 LINE"
);
}
);
width = 884;
}
);
unicode = 03A8;
},
{
color = 0;
glyphname = Omega;
lastChange = "2020-02-10 08:40:29 +0000";
layers = (
{
anchors = (
{
name = bottom;
position = "{419, 0}";
},
{
name = topleft;
position = "{86, 700}";
}
);
layerId = "38FA562F-EF2C-4367-983C-F15B205514DC";
paths = (
{
closed = 1;
nodes = (
"338 0 LINE",
"338 54 LINE",
"223 92 OFFCURVE",
"126 213 OFFCURVE",
"126 364 CURVE SMOOTH",
"126 550 OFFCURVE",
"251 659 OFFCURVE",
"419 659 CURVE SMOOTH",
"587 659 OFFCURVE",
"712 550 OFFCURVE",
"712 364 CURVE SMOOTH",
"712 213 OFFCURVE",
"615 92 OFFCURVE",
"500 54 CURVE",
"500 0 LINE",
"797 0 LINE",
"797 54 LINE",
"593 52 LINE",
"716 120 OFFCURVE",
"772 240 OFFCURVE",
"772 364 CURVE SMOOTH",
"772 572 OFFCURVE",
"625 715 OFFCURVE",
"419 715 CURVE SMOOTH",
"213 715 OFFCURVE",
"66 572 OFFCURVE",
"66 364 CURVE SMOOTH",
"66 240 OFFCURVE",
"122 120 OFFCURVE",
"245 52 CURVE",
"41 54 LINE",
"41 0 LINE"
);
}
);
width = 838;
},
{
anchors = (
{
name = bottom;
position = "{427, 0}";
},
{
name = topleft;
position = "{57, 700}";
}
);
layerId = "E991CF0C-7E17-4C48-B08A-36C8E595ED17";
paths = (
{
closed = 1;
nodes = (
"392 0 LINE",
"392 172 LINE",
"304 222 OFFCURVE",
"267 276 OFFCURVE",
"267 364 CURVE SMOOTH",
"267 468 OFFCURVE",
"326 526 OFFCURVE",
"427 526 CURVE SMOOTH",
"528 526 OFFCURVE",
"587 468 OFFCURVE",
"587 364 CURVE SMOOTH",
"587 276 OFFCURVE",
"550 222 OFFCURVE",
"462 172 CURVE",
"462 0 LINE",
"819 0 LINE",
"819 175 LINE",
"657 175 LINE",
"737 224 OFFCURVE",
"799 280 OFFCURVE",
"799 414 CURVE SMOOTH",
"799 592 OFFCURVE",
"650 715 OFFCURVE",
"427 715 CURVE SMOOTH",
"204 715 OFFCURVE",
"55 592 OFFCURVE",
"55 414 CURVE SMOOTH",
"55 280 OFFCURVE",
"134 207 OFFCURVE",
"197 175 CURVE",
"35 175 LINE",
"35 0 LINE"
);
}
);
width = 854;
},
{
anchors = (
{
name = bottom;
position = "{419, 0}";
},
{
name = topleft;
position = "{86, 700}";
}
);
associatedMasterId = "38FA562F-EF2C-4367-983C-F15B205514DC";
layerId = "0F4BA03B-6180-47CA-9C11-9C4B42EE42B1";
name = "Feb 10 20, 10:25";
paths = (
{
closed = 1;
nodes = (
"338 0 LINE",
"338 54 LINE",
"223 92 OFFCURVE",
"126 213 OFFCURVE",
"126 364 CURVE SMOOTH",
"126 550 OFFCURVE",
"251 659 OFFCURVE",
"419 659 CURVE SMOOTH",
"587 659 OFFCURVE",
"712 550 OFFCURVE",
"712 364 CURVE SMOOTH",
"712 213 OFFCURVE",
"615 92 OFFCURVE",
"500 54 CURVE",
"500 0 LINE",
"812 0 LINE",
"812 54 LINE",
"593 52 LINE",
"716 120 OFFCURVE",
"772 240 OFFCURVE",
"772 364 CURVE SMOOTH",
"772 572 OFFCURVE",
"625 715 OFFCURVE",
"419 715 CURVE SMOOTH",
"213 715 OFFCURVE",
"66 572 OFFCURVE",
"66 364 CURVE SMOOTH",
"66 240 OFFCURVE",
"122 120 OFFCURVE",
"245 52 CURVE",
"26 54 LINE",
"26 0 LINE"
);
}
);
width = 838;
},
{
anchors = (
{
name = bottom;
position = "{437, 0}";
},
{
name = topleft;
position = "{75, 700}";
}
);
associatedMasterId = "E991CF0C-7E17-4C48-B08A-36C8E595ED17";
layerId = "73E23657-A8B4-4D4C-B3A3-F2FE6D722C8B";
name = "Feb 10 20, 10:34";
paths = (
{
closed = 1;
nodes = (
"387 0 LINE",
"387 172 LINE",
"323 212 OFFCURVE",
"282 276 OFFCURVE",
"282 364 CURVE SMOOTH",
"282 468 OFFCURVE",
"340 526 OFFCURVE",
"437 526 CURVE SMOOTH",
"534 526 OFFCURVE",
"592 468 OFFCURVE",
"592 364 CURVE SMOOTH",
"592 276 OFFCURVE",
"551 212 OFFCURVE",
"487 172 CURVE",
"487 0 LINE",
"854 0 LINE",
"854 175 LINE",
"693 175 LINE",
"742 237 OFFCURVE",
"794 308 OFFCURVE",
"794 413 CURVE SMOOTH",
"794 591 OFFCURVE",
"656 715 OFFCURVE",
"437 715 CURVE SMOOTH",
"218 715 OFFCURVE",
"80 591 OFFCURVE",
"80 413 CURVE SMOOTH",
"80 308 OFFCURVE",
"132 237 OFFCURVE",
"181 175 CURVE",
"20 175 LINE",
"20 0 LINE"
);
}
);
width = 874;
}
);
unicode = 03A9;
},
{
color = 0;
glyphname = alpha;
lastChange = "2020-02-10 09:12:01 +0000";
layers = (
{
anchors = (
{
name = top;
position = "{353, 520}";
}
);
background = {
anchors = (
{
name = top;
position = "{326, 520}";
}
);
paths = (
{
closed = 1;
nodes = (
"168 39 OFFCURVE",
"100 117 OFFCURVE",
"100 240 CURVE SMOOTH",
"100 363 OFFCURVE",
"168 441 OFFCURVE",
"274 441 CURVE SMOOTH",
"424 441 OFFCURVE",
"447 278 OFFCURVE",
"460 231 CURVE",
"461 255 LINE",
"440 160 OFFCURVE",
"414 39 OFFCURVE",
"274 39 CURVE SMOOTH"
);
},
{
closed = 1;
nodes = (
"437 36 OFFCURVE",
"499 -14 OFFCURVE",
"564 -14 CURVE SMOOTH",
"593 -14 OFFCURVE",
"615 -8 OFFCURVE",
"627 5 CURVE",
"614 55 LINE",
"606 45 OFFCURVE",
"585 40 OFFCURVE",
"572 40 CURVE SMOOTH",
"523 40 OFFCURVE",
"484 91 OFFCURVE",
"503 196 CURVE",
"526 306 OFFCURVE",
"546 404 OFFCURVE",
"561 480 CURVE",
"502 480 LINE",
"496 434 OFFCURVE",
"481 356 OFFCURVE",
"468 279 CURVE",
"495 246 LINE",
"486 355 OFFCURVE",
"430 495 OFFCURVE",
"274 495 CURVE SMOOTH",
"133 495 OFFCURVE",
"40 379 OFFCURVE",
"40 240 CURVE SMOOTH",
"40 101 OFFCURVE",
"133 -15 OFFCURVE",
"274 -15 CURVE SMOOTH",
"410 -15 OFFCURVE",
"480 82 OFFCURVE",
"496 240 CURVE",
"468 161 LINE"
);
}
);
};
layerId = "E991CF0C-7E17-4C48-B08A-36C8E595ED17";
paths = (
{
closed = 1;
nodes = (
"372 -15 OFFCURVE",
"436 39 OFFCURVE",
"486 146 CURVE",
"449 145 LINE",
"416 73 OFFCURVE",
"450 -14 OFFCURVE",
"570 -14 CURVE SMOOTH",
"596 -14 OFFCURVE",
"649 -8 OFFCURVE",
"678 7 CURVE",
"652 164 LINE",
"638 160 OFFCURVE",
"627 157 OFFCURVE",
"616 157 CURVE SMOOTH",
"590 157 OFFCURVE",
"572 180 OFFCURVE",
"590 260 CURVE",
"613 370 OFFCURVE",
"627 443 OFFCURVE",
"644 520 CURVE",
"457 520 LINE",
"450 472 OFFCURVE",
"445 428 OFFCURVE",
"439 376 CURVE",
"476 370 LINE",
"431 488 OFFCURVE",
"365 535 OFFCURVE",
"272 535 CURVE SMOOTH",
"139 535 OFFCURVE",
"25 435 OFFCURVE",
"25 260 CURVE SMOOTH",
"25 86 OFFCURVE",
"141 -15 OFFCURVE",
"274 -15 CURVE SMOOTH"
);
},
{
closed = 1;
nodes = (
"259 155 OFFCURVE",
"220 191 OFFCURVE",
"220 260 CURVE SMOOTH",
"220 329 OFFCURVE",
"259 365 OFFCURVE",
"298 365 CURVE SMOOTH",
"348 365 OFFCURVE",
"407 304 OFFCURVE",
"389 208 CURVE",
"391 362 LINE",
"409 216 OFFCURVE",
"350 155 OFFCURVE",
"298 155 CURVE SMOOTH"
);
}
);
width = 691;
},
{
anchors = (
{
name = top;
position = "{314, 480}";
}
);
associatedMasterId = "38FA562F-EF2C-4367-983C-F15B205514DC";
layerId = "04C103F1-87B8-4F82-938B-B469A420B97B";
name = "Feb 1 20, 16:05";
paths = (
{
closed = 1;
nodes = (
"180 39 OFFCURVE",
"100 117 OFFCURVE",
"100 240 CURVE SMOOTH",
"100 363 OFFCURVE",
"180 441 OFFCURVE",
"293 441 CURVE SMOOTH",
"406 441 OFFCURVE",
"486 363 OFFCURVE",
"486 240 CURVE SMOOTH",
"486 117 OFFCURVE",
"406 39 OFFCURVE",
"293 39 CURVE SMOOTH"
);
},
{
closed = 1;
nodes = (
"498 22 OFFCURVE",
"531 -14 OFFCURVE",
"586 -14 CURVE SMOOTH",
"606 -14 OFFCURVE",
"630 -9 OFFCURVE",
"651 0 CURVE",
"635 48 LINE",
"620 41 OFFCURVE",
"602 38 OFFCURVE",
"592 38 CURVE SMOOTH",
"545 38 OFFCURVE",
"541 104 OFFCURVE",
"541 190 CURVE SMOOTH",
"541 336 OFFCURVE",
"554 390 OFFCURVE",
"580 480 CURVE",
"523 480 LINE",
"512 447 OFFCURVE",
"500 399 OFFCURVE",
"497 361 CURVE",
"504 372 LINE",
"464 444 OFFCURVE",
"393 495 OFFCURVE",
"292 495 CURVE SMOOTH",
"142 495 OFFCURVE",
"40 379 OFFCURVE",
"40 240 CURVE SMOOTH",
"40 101 OFFCURVE",
"139 -15 OFFCURVE",
"290 -15 CURVE SMOOTH",
"390 -15 OFFCURVE",
"454 32 OFFCURVE",
"495 94 CURVE",
"486 90 LINE"
);
}
);
width = 676;
},
{
anchors = (
{
name = top;
position = "{304, 480}";
}
);
layerId = "38FA562F-EF2C-4367-983C-F15B205514DC";
paths = (
{
closed = 1;
nodes = (
"410 -15 OFFCURVE",
"480 82 OFFCURVE",
"496 240 CURVE",
"468 161 LINE",
"437 36 OFFCURVE",
"499 -14 OFFCURVE",
"564 -14 CURVE SMOOTH",
"593 -14 OFFCURVE",
"615 -8 OFFCURVE",
"627 5 CURVE",
"614 55 LINE",
"606 45 OFFCURVE",
"585 40 OFFCURVE",
"572 40 CURVE SMOOTH",
"523 40 OFFCURVE",
"484 91 OFFCURVE",
"503 196 CURVE",
"526 306 OFFCURVE",
"546 404 OFFCURVE",
"561 480 CURVE",
"502 480 LINE",
"496 434 OFFCURVE",
"481 356 OFFCURVE",
"468 279 CURVE",
"495 246 LINE",
"486 355 OFFCURVE",
"430 495 OFFCURVE",
"274 495 CURVE SMOOTH",
"133 495 OFFCURVE",
"40 379 OFFCURVE",
"40 240 CURVE SMOOTH",
"40 101 OFFCURVE",
"133 -15 OFFCURVE",
"274 -15 CURVE SMOOTH"
);
},
{
closed = 1;
nodes = (
"168 39 OFFCURVE",
"100 117 OFFCURVE",
"100 240 CURVE SMOOTH",
"100 363 OFFCURVE",
"168 441 OFFCURVE",
"274 441 CURVE SMOOTH",
"424 441 OFFCURVE",
"447 278 OFFCURVE",
"460 231 CURVE",
"461 255 LINE",
"440 160 OFFCURVE",
"414 39 OFFCURVE",
"274 39 CURVE SMOOTH"
);
}
);
width = 645;
},
{
anchors = (
{
name = top;
position = "{314, 480}";
}
);
associatedMasterId = "38FA562F-EF2C-4367-983C-F15B205514DC";
layerId = "DE0252F8-A871-4FA1-81F6-F8CE8A5FD6F8";
name = "Feb 9 20, 15:09";
paths = (
{
closed = 1;
nodes = (
"409 -15 OFFCURVE",
"500 82 OFFCURVE",
"506 240 CURVE",
"488 201 LINE",
"502 118 OFFCURVE",
"532 33 OFFCURVE",
"541 0 CURVE",
"601 0 LINE",
"576 65 OFFCURVE",
"552 140 OFFCURVE",
"526 240 CURVE",
"552 340 OFFCURVE",
"576 415 OFFCURVE",
"601 480 CURVE",
"541 480 LINE",
"532 447 OFFCURVE",
"502 362 OFFCURVE",
"488 279 CURVE",
"506 240 LINE",
"500 398 OFFCURVE",
"409 495 OFFCURVE",
"277 495 CURVE SMOOTH",
"132 495 OFFCURVE",
"40 379 OFFCURVE",
"40 240 CURVE SMOOTH",
"40 101 OFFCURVE",
"132 -15 OFFCURVE",
"277 -15 CURVE SMOOTH"
);
},
{
closed = 1;
nodes = (
"167 39 OFFCURVE",
"100 117 OFFCURVE",
"100 240 CURVE SMOOTH",
"100 363 OFFCURVE",
"167 441 OFFCURVE",
"277 441 CURVE SMOOTH",
"406 441 OFFCURVE",
"453 332 OFFCURVE",
"469 240 CURVE",
"453 148 OFFCURVE",
"406 39 OFFCURVE",
"277 39 CURVE SMOOTH"
);
}
);
width = 676;
},
{
anchors = (
{
name = top;
position = "{363, 520}";
}
);
associatedMasterId = "E991CF0C-7E17-4C48-B08A-36C8E595ED17";
background = {
anchors = (
{
name = top;
position = "{326, 520}";
}
);
paths = (
{
closed = 1;
nodes = (
"26 110 OFFCURVE",
"126 -15 OFFCURVE",
"289 -15 CURVE SMOOTH",
"386 -15 OFFCURVE",
"444 26 OFFCURVE",
"478 90 CURVE",
"489 45 OFFCURVE",
"503 17 OFFCURVE",
"507 0 CURVE",
"692 0 LINE",
"665 70 OFFCURVE",
"639 152 OFFCURVE",
"606 260 CURVE",
"639 368 OFFCURVE",
"665 449 OFFCURVE",
"692 520 CURVE",
"507 520 LINE",
"503 503 OFFCURVE",
"488 474 OFFCURVE",
"478 429 CURVE",
"443 493 OFFCURVE",
"385 535 OFFCURVE",
"289 535 CURVE SMOOTH",
"126 535 OFFCURVE",
"26 404 OFFCURVE",
"26 260 CURVE SMOOTH"
);
},
{
closed = 1;
nodes = (
"220 325 OFFCURVE",
"263 365 OFFCURVE",
"315 365 CURVE SMOOTH",
"367 365 OFFCURVE",
"410 325 OFFCURVE",
"420 260 CURVE",
"410 195 OFFCURVE",
"366 155 OFFCURVE",
"315 155 CURVE SMOOTH",
"264 155 OFFCURVE",
"220 195 OFFCURVE",
"220 260 CURVE SMOOTH"
);
}
);
};
layerId = "B32B9242-F3F4-4319-9075-46FDB21F5935";
name = "Feb 10 20, 10:52";
paths = (
{
closed = 1;
nodes = (
"387 -15 OFFCURVE",
"459 39 OFFCURVE",
"509 146 CURVE",
"466 145 LINE",
"470 97 OFFCURVE",
"489 48 OFFCURVE",
"508 0 CURVE",
"691 0 LINE",
"660 87 OFFCURVE",
"632 173 OFFCURVE",
"607 260 CURVE",
"632 347 OFFCURVE",
"660 433 OFFCURVE",
"691 520 CURVE",
"508 520 LINE",
"490 472 OFFCURVE",
"471 424 OFFCURVE",
"468 376 CURVE",
"513 370 LINE",
"458 488 OFFCURVE",
"383 535 OFFCURVE",
"282 535 CURVE SMOOTH",
"142 535 OFFCURVE",
"25 435 OFFCURVE",
"25 260 CURVE SMOOTH",
"25 86 OFFCURVE",
"143 -15 OFFCURVE",
"283 -15 CURVE SMOOTH"
);
},
{
closed = 1;
nodes = (
"262 155 OFFCURVE",
"220 190 OFFCURVE",
"220 260 CURVE SMOOTH",
"220 330 OFFCURVE",
"262 365 OFFCURVE",
"307 365 CURVE SMOOTH",
"350 365 OFFCURVE",
"393 333 OFFCURVE",
"407 260 CURVE",
"393 187 OFFCURVE",
"350 155 OFFCURVE",
"307 155 CURVE SMOOTH"
);
}
);
width = 726;
}
);
leftMetricsKey = o;
unicode = 03B1;
},
{
color = 0;
glyphname = beta;
lastChange = "2020-02-10 11:31:18 +0000";
layers = (
{
layerId = "38FA562F-EF2C-4367-983C-F15B205514DC";
paths = (
{
closed = 1;
nodes = (
"136 -210 LINE",
"136 87 LINE",
"171 25 OFFCURVE",
"243 -10 OFFCURVE",
"320 -10 CURVE SMOOTH",
"441 -10 OFFCURVE",
"531 79 OFFCURVE",
"531 200 CURVE SMOOTH",
"531 280 OFFCURVE",
"490 361 OFFCURVE",
"390 392 CURVE",
"457 422 OFFCURVE",
"496 480 OFFCURVE",
"496 550 CURVE SMOOTH",
"496 655 OFFCURVE",
"412 735 OFFCURVE",
"294 735 CURVE SMOOTH",
"167 735 OFFCURVE",
"80 649 OFFCURVE",
"80 515 CURVE SMOOTH",
"80 -210 LINE"
);
},
{
closed = 1;
nodes = (
"213 44 OFFCURVE",
"136 128 OFFCURVE",
"136 230 CURVE SMOOTH",
"136 515 LINE SMOOTH",
"136 619 OFFCURVE",
"196 681 OFFCURVE",
"289 681 CURVE SMOOTH",
"377 681 OFFCURVE",
"438 627 OFFCURVE",
"438 543 CURVE SMOOTH",
"438 468 OFFCURVE",
"390 412 OFFCURVE",
"307 412 CURVE SMOOTH",
"250 412 LINE",
"250 360 LINE",
"307 360 LINE SMOOTH",
"402 360 OFFCURVE",
"471 299 OFFCURVE",
"471 202 CURVE SMOOTH",
"471 107 OFFCURVE",
"408 44 OFFCURVE",
"317 44 CURVE SMOOTH"
);
}
);
width = 571;
},
{
layerId = "E991CF0C-7E17-4C48-B08A-36C8E595ED17";
paths = (
{
closed = 1;
nodes = (
"260 -210 LINE",
"260 37 LINE",
"300 1 OFFCURVE",
"354 -12 OFFCURVE",
"405 -12 CURVE SMOOTH",
"523 -12 OFFCURVE",
"634 58 OFFCURVE",
"634 199 CURVE SMOOTH",
"634 297 OFFCURVE",
"585 364 OFFCURVE",
"511 385 CURVE",
"562 407 OFFCURVE",
"597 449 OFFCURVE",
"597 527 CURVE SMOOTH",
"597 650 OFFCURVE",
"512 733 OFFCURVE",
"343 733 CURVE SMOOTH",
"127 733 OFFCURVE",
"60 589 OFFCURVE",
"60 468 CURVE SMOOTH",
"60 -210 LINE"
);
},
{
closed = 1;
nodes = (
"299 159 OFFCURVE",
"260 187 OFFCURVE",
"260 260 CURVE SMOOTH",
"260 479 LINE SMOOTH",
"260 551 OFFCURVE",
"298 571 OFFCURVE",
"341 571 CURVE SMOOTH",
"389 571 OFFCURVE",
"417 546 OFFCURVE",
"417 503 CURVE SMOOTH",
"417 469 OFFCURVE",
"400 446 OFFCURVE",
"361 446 CURVE SMOOTH",
"316 446 LINE",
"316 290 LINE",
"361 290 LINE SMOOTH",
"414 290 OFFCURVE",
"440 263 OFFCURVE",
"440 226 CURVE SMOOTH",
"440 183 OFFCURVE",
"405 159 OFFCURVE",
"357 159 CURVE"
);
}
);
width = 659;
}
);
unicode = 03B2;
},
{
color = 0;
glyphname = gamma;
lastChange = "2020-02-10 09:23:06 +0000";
layers = (
{
background = {
paths = (
{
closed = 1;
nodes = (
"279 0 LINE",
"375 130 OFFCURVE",
"440 288 OFFCURVE",
"475 480 CURVE",
"413 480 LINE",
"379 296 OFFCURVE",
"317 154 OFFCURVE",
"249 47 CURVE",
"264 47 LINE",
"98 480 LINE",
"32 480 LINE",
"221 0 LINE"
);
}
);
};
layerId = "38FA562F-EF2C-4367-983C-F15B205514DC";
paths = (
{
closed = 1;
nodes = (
"281 -210 LINE",
"283 4 LINE",
"376 124 OFFCURVE",
"445 284 OFFCURVE",
"474 480 CURVE",
"413 480 LINE",
"384 292 OFFCURVE",
"315 149 OFFCURVE",
"249 46 CURVE",
"264 47 LINE",
"87 480 LINE",
"22 480 LINE",
"227 -15 LINE",
"225 -210 LINE"
);
}
);
width = 498;
},
{
background = {
paths = (
{
closed = 1;
nodes = (
"403 0 LINE",
"513 162 OFFCURVE",
"574 347 OFFCURVE",
"597 520 CURVE",
"389 520 LINE",
"373 404 OFFCURVE",
"340 267 OFFCURVE",
"292 173 CURVE",
"311 173 LINE",
"221 520 LINE",
"8 520 LINE",
"180 0 LINE"
);
}
);
};
layerId = "E991CF0C-7E17-4C48-B08A-36C8E595ED17";
paths = (
{
closed = 1;
nodes = (
"399 -210 LINE",
"399 -10 LINE",
"520 152 OFFCURVE",
"569 346 OFFCURVE",
"597 520 CURVE",
"389 520 LINE",
"370 393 OFFCURVE",
"341 228 OFFCURVE",
"280 138 CURVE",
"336 95 LINE",
"218 520 LINE",
"5 520 LINE",
"199 -26 LINE",
"199 -210 LINE"
);
}
);
width = 602;
},
{
associatedMasterId = "38FA562F-EF2C-4367-983C-F15B205514DC";
layerId = "D0FD1C2B-4295-4263-88A8-E798C3D3C395";
name = "Feb 10 20, 09:56";
paths = (
{
closed = 1;
nodes = (
"263 -210 LINE",
"265 4 LINE",
"395 128 OFFCURVE",
"464 288 OFFCURVE",
"454 480 CURVE",
"395 480 LINE",
"406 296 OFFCURVE",
"334 153 OFFCURVE",
"231 47 CURVE",
"246 47 LINE",
"87 480 LINE",
"22 480 LINE",
"209 -15 LINE",
"207 -210 LINE"
);
}
);
width = 503;
},
{
associatedMasterId = "E991CF0C-7E17-4C48-B08A-36C8E595ED17";
layerId = "2B71A7C2-1870-49DC-9B81-6C5342042AA0";
name = "Feb 10 20, 11:22";
paths = (
{
closed = 1;
nodes = (
"399 -210 LINE",
"399 -10 LINE",
"539 152 OFFCURVE",
"588 347 OFFCURVE",
"584 520 CURVE",
"376 520 LINE",
"388 393 OFFCURVE",
"360 228 OFFCURVE",
"280 138 CURVE",
"336 95 LINE",
"218 520 LINE",
"5 520 LINE",
"199 -26 LINE",
"199 -210 LINE"
);
}
);
width = 599;
}
);
leftMetricsKey = nu;
rightMetricsKey = nu;
unicode = 03B3;
},
{
color = 0;
glyphname = delta;
lastChange = "2020-02-10 09:40:47 +0000";
layers = (
{
layerId = "38FA562F-EF2C-4367-983C-F15B205514DC";
paths = (
{
closed = 1;
nodes = (
"422 -15 OFFCURVE",
"521 94 OFFCURVE",
"521 231 CURVE SMOOTH",
"521 374 OFFCURVE",
"422 444 OFFCURVE",
"328 485 CURVE SMOOTH",
"225 530 OFFCURVE",
"175 553 OFFCURVE",
"175 608 CURVE SMOOTH",
"175 651 OFFCURVE",
"211 682 OFFCURVE",
"290 682 CURVE SMOOTH",
"341 682 OFFCURVE",
"393 667 OFFCURVE",
"447 633 CURVE",
"477 706 LINE",
"483 671 LINE",
"417 720 OFFCURVE",
"349 735 OFFCURVE",
"291 735 CURVE SMOOTH",
"187 735 OFFCURVE",
"118 685 OFFCURVE",
"118 606 CURVE SMOOTH",
"118 544 OFFCURVE",
"172 496 OFFCURVE",
"257 467 CURVE",
"257 480 LINE",
"109 449 OFFCURVE",
"40 352 OFFCURVE",
"40 236 CURVE SMOOTH",
"40 99 OFFCURVE",
"132 -15 OFFCURVE",
"279 -15 CURVE SMOOTH"
);
},
{
closed = 1;
nodes = (
"165 39 OFFCURVE",
"100 115 OFFCURVE",
"100 236 CURVE SMOOTH",
"100 362 OFFCURVE",
"175 430 OFFCURVE",
"288 443 CURVE",
"383 409 OFFCURVE",
"461 354 OFFCURVE",
"461 231 CURVE SMOOTH",
"461 110 OFFCURVE",
"391 39 OFFCURVE",
"280 39 CURVE SMOOTH"
);
}
);
width = 561;
},
{
layerId = "E991CF0C-7E17-4C48-B08A-36C8E595ED17";
paths = (
{
closed = 1;
nodes = (
"479 -15 OFFCURVE",
"586 97 OFFCURVE",
"586 228 CURVE SMOOTH",
"586 355 OFFCURVE",
"505 424 OFFCURVE",
"405 473 CURVE SMOOTH",
"325 512 OFFCURVE",
"273 523 OFFCURVE",
"273 552 CURVE SMOOTH",
"273 573 OFFCURVE",
"302 580 OFFCURVE",
"345 580 CURVE SMOOTH",
"372 580 OFFCURVE",
"413 578 OFFCURVE",
"482 548 CURVE",
"571 774 LINE",
"596 658 LINE",
"500 719 OFFCURVE",
"401 735 OFFCURVE",
"301 735 CURVE SMOOTH",
"193 735 OFFCURVE",
"84 692 OFFCURVE",
"84 578 CURVE SMOOTH",
"84 473 OFFCURVE",
"182 434 OFFCURVE",
"191 425 CURVE",
"260 449 LINE",
"116 433 OFFCURVE",
"25 349 OFFCURVE",
"25 231 CURVE SMOOTH",
"25 97 OFFCURVE",
"131 -15 OFFCURVE",
"305 -15 CURVE SMOOTH"
);
},
{
closed = 1;
nodes = (
"249 151 OFFCURVE",
"218 187 OFFCURVE",
"218 235 CURVE SMOOTH",
"218 282 OFFCURVE",
"248 315 OFFCURVE",
"305 331 CURVE",
"362 315 OFFCURVE",
"392 282 OFFCURVE",
"392 235 CURVE SMOOTH",
"392 187 OFFCURVE",
"361 151 OFFCURVE",
"305 151 CURVE SMOOTH"
);
}
);
width = 611;
},
{
associatedMasterId = "38FA562F-EF2C-4367-983C-F15B205514DC";
layerId = "3A2EA755-1D0B-4240-8D00-0F6C839D7993";
name = "Feb 10 20, 09:59";
paths = (
{
closed = 1;
nodes = (
"422 -15 OFFCURVE",
"521 94 OFFCURVE",
"521 231 CURVE SMOOTH",
"521 374 OFFCURVE",
"423 437 OFFCURVE",
"327 481 CURVE SMOOTH",
"252 515 OFFCURVE",
"186 549 OFFCURVE",
"186 608 CURVE SMOOTH",
"186 651 OFFCURVE",
"222 682 OFFCURVE",
"301 682 CURVE SMOOTH",
"349 682 OFFCURVE",
"394 672 OFFCURVE",
"433 653 CURVE",
"454 700 LINE",
"403 724 OFFCURVE",
"357 735 OFFCURVE",
"302 735 CURVE SMOOTH",
"198 735 OFFCURVE",
"129 683 OFFCURVE",
"129 604 CURVE SMOOTH",
"129 539 OFFCURVE",
"172 496 OFFCURVE",
"257 467 CURVE",
"257 480 LINE",
"109 449 OFFCURVE",
"40 352 OFFCURVE",
"40 236 CURVE SMOOTH",
"40 99 OFFCURVE",
"132 -15 OFFCURVE",
"279 -15 CURVE SMOOTH"
);
},
{
closed = 1;
nodes = (
"165 39 OFFCURVE",
"100 115 OFFCURVE",
"100 236 CURVE SMOOTH",
"100 362 OFFCURVE",
"175 430 OFFCURVE",
"288 443 CURVE",
"383 409 OFFCURVE",
"461 354 OFFCURVE",
"461 231 CURVE SMOOTH",
"461 110 OFFCURVE",
"391 39 OFFCURVE",
"280 39 CURVE SMOOTH"
);
}
);
width = 561;
}
);
leftMetricsKey = o;
rightMetricsKey = o;
unicode = 03B4;
},
{
glyphname = epsilon;
lastChange = "2020-02-10 09:57:11 +0000";
layers = (
{
anchors = (
{
name = top;
position = "{230, 480}";
}
);
background = {
paths = (
{
closed = 1;
nodes = (
"355 -15 OFFCURVE",
"414 11 OFFCURVE",
"467 55 CURVE",
"470 25 LINE",
"415 87 LINE",
"390 60 OFFCURVE",
"342 39 OFFCURVE",
"249 39 CURVE SMOOTH",
"163 39 OFFCURVE",
"110 65 OFFCURVE",
"110 124 CURVE SMOOTH",
"110 187 OFFCURVE",
"152 219 OFFCURVE",
"256 219 CURVE SMOOTH",
"340 219 LINE",
"340 271 LINE",
"256 271 LINE SMOOTH",
"178 271 OFFCURVE",
"120 297 OFFCURVE",
"120 362 CURVE SMOOTH",
"120 421 OFFCURVE",
"186 440 OFFCURVE",
"262 440 CURVE SMOOTH",
"321 440 OFFCURVE",
"361 429 OFFCURVE",
"397 410 CURVE",
"423 459 LINE",
"372 482 OFFCURVE",
"325 494 OFFCURVE",
"265 494 CURVE SMOOTH",
"156 494 OFFCURVE",
"62 452 OFFCURVE",
"62 362 CURVE SMOOTH",
"62 312 OFFCURVE",
"89 269 OFFCURVE",
"155 246 CURVE",
"84 234 OFFCURVE",
"50 178 OFFCURVE",
"50 127 CURVE SMOOTH",
"50 34 OFFCURVE",
"131 -15 OFFCURVE",
"246 -15 CURVE SMOOTH"
);
}
);
};
layerId = "38FA562F-EF2C-4367-983C-F15B205514DC";
paths = (
{
closed = 1;
nodes = (
"346 -15 OFFCURVE",
"403 7 OFFCURVE",
"453 44 CURVE",
"415 87 LINE",
"390 60 OFFCURVE",
"342 39 OFFCURVE",
"249 39 CURVE SMOOTH",
"163 39 OFFCURVE",
"110 65 OFFCURVE",
"110 125 CURVE SMOOTH",
"110 187 OFFCURVE",
"152 219 OFFCURVE",
"256 219 CURVE SMOOTH",
"340 219 LINE",
"340 271 LINE",
"248 271 LINE SMOOTH",
"170 271 OFFCURVE",
"120 297 OFFCURVE",
"120 355 CURVE SMOOTH",
"120 422 OFFCURVE",
"176 440 OFFCURVE",
"252 440 CURVE SMOOTH",
"311 440 OFFCURVE",
"361 429 OFFCURVE",
"397 410 CURVE",
"423 459 LINE",
"372 482 OFFCURVE",
"315 494 OFFCURVE",
"255 494 CURVE SMOOTH",
"147 494 OFFCURVE",
"62 457 OFFCURVE",
"62 360 CURVE SMOOTH",
"62 300 OFFCURVE",
"96 259 OFFCURVE",
"155 246 CURVE",
"84 234 OFFCURVE",
"50 178 OFFCURVE",
"50 122 CURVE SMOOTH",
"50 34 OFFCURVE",
"131 -15 OFFCURVE",
"246 -15 CURVE SMOOTH"
);
}
);
width = 482;
},
{
anchors = (
{
name = top;
position = "{281, 520}";
}
);
background = {
paths = (
{
closed = 1;
nodes = (
"271 326 LINE SMOOTH",
"227 326 OFFCURVE",
"217 336 OFFCURVE",
"217 355 CURVE SMOOTH",
"217 374 OFFCURVE",
"246 386 OFFCURVE",
"290 386 CURVE SMOOTH",
"342 386 OFFCURVE",
"401 369 OFFCURVE",
"455 338 CURVE",
"514 475 LINE",
"446 519 OFFCURVE",
"364 535 OFFCURVE",
"289 535 CURVE SMOOTH",
"148 535 OFFCURVE",
"44 484 OFFCURVE",
"44 381 CURVE SMOOTH",
"44 344 OFFCURVE",
"58 302 OFFCURVE",
"127 273 CURVE",
"50 244 OFFCURVE",
"33 197 OFFCURVE",
"33 154 CURVE SMOOTH",
"33 42 OFFCURVE",
"148 -15 OFFCURVE",
"289 -15 CURVE SMOOTH",
"372 -15 OFFCURVE",
"455 5 OFFCURVE",
"512 35 CURVE",
"458 195 LINE",
"394 155 OFFCURVE",
"346 138 OFFCURVE",
"286 138 CURVE SMOOTH",
"231 138 OFFCURVE",
"218 153 OFFCURVE",
"218 173 CURVE SMOOTH",
"218 197 OFFCURVE",
"237 202 OFFCURVE",
"281 202 CURVE SMOOTH",
"354 202 LINE",
"354 326 LINE"
);
}
);
};
layerId = "E991CF0C-7E17-4C48-B08A-36C8E595ED17";
paths = (
{
closed = 1;
nodes = (
"380 -15 OFFCURVE",
"466 5 OFFCURVE",
"529 35 CURVE",
"474 175 LINE",
"413 149 OFFCURVE",
"357 138 OFFCURVE",
"303 138 CURVE SMOOTH",
"242 138 OFFCURVE",
"228 153 OFFCURVE",
"228 173 CURVE SMOOTH",
"228 200 OFFCURVE",
"256 202 OFFCURVE",
"292 202 CURVE SMOOTH",
"370 202 LINE",
"370 326 LINE",
"283 326 LINE SMOOTH",
"243 326 OFFCURVE",
"227 334 OFFCURVE",
"227 355 CURVE SMOOTH",
"227 374 OFFCURVE",
"257 386 OFFCURVE",
"302 386 CURVE SMOOTH",
"352 386 OFFCURVE",
"409 375 OFFCURVE",
"462 349 CURVE",
"520 489 LINE",
"445 523 OFFCURVE",
"356 535 OFFCURVE",
"273 535 CURVE SMOOTH",
"133 535 OFFCURVE",
"40 493 OFFCURVE",
"40 389 CURVE SMOOTH",
"40 353 OFFCURVE",
"59 301 OFFCURVE",
"129 273 CURVE",
"51 239 OFFCURVE",
"30 178 OFFCURVE",
"30 138 CURVE SMOOTH",
"30 30 OFFCURVE",
"130 -15 OFFCURVE",
"284 -15 CURVE SMOOTH"
);
}
);
width = 545;
},
{
anchors = (
{
name = top;
position = "{230, 480}";
}
);
associatedMasterId = "38FA562F-EF2C-4367-983C-F15B205514DC";
layerId = "A4588283-CE85-4766-B762-5DD745138A31";
name = "Feb 9 20, 15:07";
paths = (
{
closed = 1;
nodes = (
"321 -15 OFFCURVE",
"387 3 OFFCURVE",
"437 28 CURVE",
"412 78 LINE",
"376 56 OFFCURVE",
"315 39 OFFCURVE",
"249 39 CURVE SMOOTH",
"163 39 OFFCURVE",
"110 65 OFFCURVE",
"110 124 CURVE SMOOTH",
"110 187 OFFCURVE",
"170 219 OFFCURVE",
"256 219 CURVE SMOOTH",
"340 219 LINE",
"340 271 LINE",
"256 271 LINE SMOOTH",
"178 271 OFFCURVE",
"120 307 OFFCURVE",
"120 362 CURVE SMOOTH",
"120 421 OFFCURVE",
"186 440 OFFCURVE",
"262 440 CURVE SMOOTH",
"321 440 OFFCURVE",
"361 429 OFFCURVE",
"397 410 CURVE",
"423 459 LINE",
"372 482 OFFCURVE",
"325 494 OFFCURVE",
"265 494 CURVE SMOOTH",
"156 494 OFFCURVE",
"62 452 OFFCURVE",
"62 363 CURVE SMOOTH",
"62 322 OFFCURVE",
"82 279 OFFCURVE",
"155 246 CURVE",
"74 214 OFFCURVE",
"50 178 OFFCURVE",
"50 127 CURVE SMOOTH",
"50 34 OFFCURVE",
"131 -15 OFFCURVE",
"246 -15 CURVE SMOOTH"
);
}
);
width = 482;
},
{
anchors = (
{
name = top;
position = "{278, 520}";
}
);
associatedMasterId = "E991CF0C-7E17-4C48-B08A-36C8E595ED17";
background = {
paths = (
{
closed = 1;
nodes = (
"271 326 LINE SMOOTH",
"227 326 OFFCURVE",
"217 336 OFFCURVE",
"217 355 CURVE SMOOTH",
"217 374 OFFCURVE",
"246 386 OFFCURVE",
"290 386 CURVE SMOOTH",
"342 386 OFFCURVE",
"401 369 OFFCURVE",
"455 338 CURVE",
"514 475 LINE",
"446 519 OFFCURVE",
"364 535 OFFCURVE",
"289 535 CURVE SMOOTH",
"148 535 OFFCURVE",
"44 484 OFFCURVE",
"44 381 CURVE SMOOTH",
"44 344 OFFCURVE",
"58 302 OFFCURVE",
"127 273 CURVE",
"50 244 OFFCURVE",
"33 197 OFFCURVE",
"33 154 CURVE SMOOTH",
"33 42 OFFCURVE",
"148 -15 OFFCURVE",
"289 -15 CURVE SMOOTH",
"372 -15 OFFCURVE",
"455 5 OFFCURVE",
"512 35 CURVE",
"458 195 LINE",
"394 155 OFFCURVE",
"346 138 OFFCURVE",
"286 138 CURVE SMOOTH",
"231 138 OFFCURVE",
"218 153 OFFCURVE",
"218 173 CURVE SMOOTH",
"218 197 OFFCURVE",
"237 202 OFFCURVE",
"281 202 CURVE SMOOTH",
"354 202 LINE",
"354 326 LINE"
);
}
);
};
layerId = "7DB81584-D979-4FC3-8C52-578CE857D86A";
name = "Feb 10 20, 10:59";
paths = (
{
closed = 1;
nodes = (
"363 -15 OFFCURVE",
"450 5 OFFCURVE",
"512 35 CURVE",
"458 175 LINE",
"394 149 OFFCURVE",
"346 138 OFFCURVE",
"292 138 CURVE SMOOTH",
"231 138 OFFCURVE",
"218 153 OFFCURVE",
"218 173 CURVE SMOOTH",
"218 197 OFFCURVE",
"237 202 OFFCURVE",
"281 202 CURVE SMOOTH",
"354 202 LINE",
"354 326 LINE",
"271 326 LINE SMOOTH",
"227 326 OFFCURVE",
"217 336 OFFCURVE",
"217 355 CURVE SMOOTH",
"217 374 OFFCURVE",
"246 386 OFFCURVE",
"291 386 CURVE SMOOTH",
"342 386 OFFCURVE",
"401 371 OFFCURVE",
"455 345 CURVE",
"514 475 LINE",
"440 519 OFFCURVE",
"361 535 OFFCURVE",
"279 535 CURVE SMOOTH",
"140 535 OFFCURVE",
"44 487 OFFCURVE",
"44 389 CURVE SMOOTH",
"44 352 OFFCURVE",
"58 301 OFFCURVE",
"127 273 CURVE",
"50 239 OFFCURVE",
"33 184 OFFCURVE",
"33 144 CURVE SMOOTH",
"33 45 OFFCURVE",
"138 -15 OFFCURVE",
"280 -15 CURVE SMOOTH"
);
}
);
width = 541;
}
);
unicode = 03B5;
},
{
color = 0;
glyphname = zeta;
lastChange = "2020-02-10 11:31:02 +0000";
layers = (
{
layerId = "38FA562F-EF2C-4367-983C-F15B205514DC";
paths = (
{
closed = 1;
nodes = (
"412 -159 OFFCURVE",
"425 -116 OFFCURVE",
"425 -80 CURVE SMOOTH",
"425 -9 OFFCURVE",
"374 34 OFFCURVE",
"265 59 CURVE SMOOTH",
"176 79 OFFCURVE",
"122 119 OFFCURVE",
"122 219 CURVE SMOOTH",
"122 361 OFFCURVE",
"282 526 OFFCURVE",
"445 672 CURVE",
"445 720 LINE",
"73 720 LINE",
"73 668 LINE",
"390 668 LINE",
"379 681 LINE",
"219 531 OFFCURVE",
"64 374 OFFCURVE",
"64 209 CURVE SMOOTH",
"64 85 OFFCURVE",
"133 32 OFFCURVE",
"256 5 CURVE SMOOTH",
"332 -12 OFFCURVE",
"368 -39 OFFCURVE",
"368 -89 CURVE SMOOTH",
"368 -120 OFFCURVE",
"356 -149 OFFCURVE",
"333 -200 CURVE",
"383 -218 LINE"
);
}
);
width = 487;
},
{
layerId = "E991CF0C-7E17-4C48-B08A-36C8E595ED17";
paths = (
{
closed = 1;
nodes = (
"502 -152 OFFCURVE",
"519 -95 OFFCURVE",
"519 -49 CURVE SMOOTH",
"519 53 OFFCURVE",
"440 108 OFFCURVE",
"333 150 CURVE SMOOTH",
"260 179 OFFCURVE",
"224 196 OFFCURVE",
"224 246 CURVE SMOOTH",
"224 347 OFFCURVE",
"280 431 OFFCURVE",
"506 590 CURVE",
"506 720 LINE",
"48 720 LINE",
"48 556 LINE",
"265 556 LINE",
"272 585 LINE",
"116 493 OFFCURVE",
"30 364 OFFCURVE",
"30 212 CURVE SMOOTH",
"30 85 OFFCURVE",
"104 37 OFFCURVE",
"199 1 CURVE SMOOTH",
"256 -21 OFFCURVE",
"323 -32 OFFCURVE",
"323 -98 CURVE SMOOTH",
"323 -123 OFFCURVE",
"313 -157 OFFCURVE",
"288 -203 CURVE",
"465 -225 LINE"
);
}
);
width = 535;
},
{
associatedMasterId = "E991CF0C-7E17-4C48-B08A-36C8E595ED17";
layerId = "A5E6A8E4-4231-47EA-8A30-3198C31939EF";
name = "Feb 10 20, 11:05";
paths = (
{
closed = 1;
nodes = (
"515 -152 OFFCURVE",
"532 -95 OFFCURVE",
"532 -49 CURVE SMOOTH",
"532 53 OFFCURVE",
"452 100 OFFCURVE",
"345 140 CURVE SMOOTH",
"253 175 OFFCURVE",
"229 197 OFFCURVE",
"229 266 CURVE SMOOTH",
"229 358 OFFCURVE",
"273 431 OFFCURVE",
"496 590 CURVE",
"496 720 LINE",
"24 720 LINE",
"24 556 LINE",
"248 556 LINE",
"285 585 LINE",
"139 493 OFFCURVE",
"35 375 OFFCURVE",
"35 232 CURVE SMOOTH",
"35 96 OFFCURVE",
"118 36 OFFCURVE",
"212 1 CURVE SMOOTH",
"269 -21 OFFCURVE",
"336 -32 OFFCURVE",
"336 -98 CURVE SMOOTH",
"336 -123 OFFCURVE",
"326 -157 OFFCURVE",
"301 -203 CURVE",
"478 -225 LINE"
);
}
);
width = 548;
}
);
rightMetricsKey = sigmafinal;
unicode = 03B6;
},
{
glyphname = eta;
lastChange = "2020-02-06 13:00:01 +0000";
layers = (
{
anchors = (
{
name = top;
position = "{289, 480}";
}
);
layerId = "38FA562F-EF2C-4367-983C-F15B205514DC";
paths = (
{
closed = 1;
nodes = (
"497 -210 LINE",
"497 323 LINE SMOOTH",
"497 404 OFFCURVE",
"433 495 OFFCURVE",
"306 495 CURVE SMOOTH",
"246 495 OFFCURVE",
"185 470 OFFCURVE",
"141 408 CURVE",
"141 480 LINE",
"85 480 LINE",
"85 0 LINE",
"141 0 LINE",
"141 285 LINE SMOOTH",
"141 378 OFFCURVE",
"210 441 OFFCURVE",
"296 441 CURVE SMOOTH",
"384 441 OFFCURVE",
"441 386 OFFCURVE",
"441 306 CURVE SMOOTH",
"441 -210 LINE"
);
}
);
width = 578;
},
{
anchors = (
{
name = top;
position = "{342, 520}";
}
);
layerId = "E991CF0C-7E17-4C48-B08A-36C8E595ED17";
paths = (
{
closed = 1;
nodes = (
"624 -210 LINE",
"624 331 LINE SMOOTH",
"624 437 OFFCURVE",
"558 535 OFFCURVE",
"408 535 CURVE SMOOTH",
"351 535 OFFCURVE",
"300 515 OFFCURVE",
"264 472 CURVE",
"264 520 LINE",
"64 520 LINE",
"64 0 LINE",
"264 0 LINE",
"264 268 LINE SMOOTH",
"264 319 OFFCURVE",
"293 355 OFFCURVE",
"345 355 CURVE SMOOTH",
"399 355 OFFCURVE",
"424 323 OFFCURVE",
"424 268 CURVE SMOOTH",
"424 -210 LINE"
);
}
);
width = 684;
}
);
leftMetricsKey = n;
rightMetricsKey = n;
unicode = 03B7;
},
{
color = 0;
glyphname = theta;
lastChange = "2020-02-10 11:31:15 +0000";
layers = (
{
layerId = "38FA562F-EF2C-4367-983C-F15B205514DC";
paths = (
{
closed = 1;
nodes = (
"428 -15 OFFCURVE",
"516 108 OFFCURVE",
"516 360 CURVE SMOOTH",
"516 613 OFFCURVE",
"428 735 OFFCURVE",
"283 735 CURVE SMOOTH",
"138 735 OFFCURVE",
"50 613 OFFCURVE",
"50 360 CURVE SMOOTH",
"50 108 OFFCURVE",
"138 -15 OFFCURVE",
"283 -15 CURVE SMOOTH"
);
},
{
closed = 1;
nodes = (
"172 39 OFFCURVE",
"114 133 OFFCURVE",
"110 334 CURVE",
"456 334 LINE",
"452 133 OFFCURVE",
"394 39 OFFCURVE",
"283 39 CURVE SMOOTH"
);
},
{
closed = 1;
nodes = (
"114 587 OFFCURVE",
"172 681 OFFCURVE",
"283 681 CURVE SMOOTH",
"394 681 OFFCURVE",
"452 587 OFFCURVE",
"456 386 CURVE",
"110 386 LINE"
);
}
);
width = 566;
},
{
layerId = "E991CF0C-7E17-4C48-B08A-36C8E595ED17";
paths = (
{
closed = 1;
nodes = (
"463 -15 OFFCURVE",
"586 88 OFFCURVE",
"586 360 CURVE SMOOTH",
"586 633 OFFCURVE",
"463 735 OFFCURVE",
"308 735 CURVE SMOOTH",
"153 735 OFFCURVE",
"30 633 OFFCURVE",
"30 360 CURVE SMOOTH",
"30 88 OFFCURVE",
"153 -15 OFFCURVE",
"308 -15 CURVE SMOOTH"
);
},
{
closed = 1;
nodes = (
"254 155 OFFCURVE",
"231 184 OFFCURVE",
"230 282 CURVE",
"386 282 LINE",
"385 184 OFFCURVE",
"362 155 OFFCURVE",
"308 155 CURVE SMOOTH"
);
},
{
closed = 1;
nodes = (
"231 527 OFFCURVE",
"254 565 OFFCURVE",
"308 565 CURVE SMOOTH",
"362 565 OFFCURVE",
"385 527 OFFCURVE",
"386 438 CURVE",
"230 438 LINE"
);
}
);
width = 616;
},
{
associatedMasterId = "E991CF0C-7E17-4C48-B08A-36C8E595ED17";
layerId = "3630C8AB-DE02-4D01-BC71-9D6561823B3B";
name = "Feb 10 20, 11:25";
paths = (
{
closed = 1;
nodes = (
"473 -15 OFFCURVE",
"596 108 OFFCURVE",
"596 360 CURVE SMOOTH",
"596 613 OFFCURVE",
"473 735 OFFCURVE",
"318 735 CURVE SMOOTH",
"163 735 OFFCURVE",
"40 613 OFFCURVE",
"40 360 CURVE SMOOTH",
"40 108 OFFCURVE",
"163 -15 OFFCURVE",
"318 -15 CURVE SMOOTH"
);
},
{
closed = 1;
nodes = (
"264 155 OFFCURVE",
"241 194 OFFCURVE",
"240 282 CURVE",
"396 282 LINE",
"395 194 OFFCURVE",
"372 155 OFFCURVE",
"318 155 CURVE SMOOTH"
);
},
{
closed = 1;
nodes = (
"241 526 OFFCURVE",
"264 565 OFFCURVE",
"318 565 CURVE SMOOTH",
"372 565 OFFCURVE",
"395 526 OFFCURVE",
"396 438 CURVE",
"240 438 LINE"
);
}
);
width = 636;
}
);
unicode = 03B8;
},
{
glyphname = iota;
lastChange = "2020-02-10 09:58:03 +0000";
layers = (
{
anchors = (
{
name = top;
position = "{110, 480}";
}
);
layerId = "38FA562F-EF2C-4367-983C-F15B205514DC";
paths = (
{
closed = 1;
nodes = (
"213 -14 OFFCURVE",
"240 -7 OFFCURVE",
"265 3 CURVE",
"249 53 LINE",
"230 45 OFFCURVE",
"212 40 OFFCURVE",
"197 40 CURVE SMOOTH",
"152 40 OFFCURVE",
"138 62 OFFCURVE",
"138 128 CURVE SMOOTH",
"138 480 LINE",
"82 480 LINE",
"82 90 LINE SMOOTH",
"82 18 OFFCURVE",
"128 -14 OFFCURVE",
"189 -14 CURVE SMOOTH"
);
}
);
width = 283;
},
{
anchors = (
{
name = top;
position = "{144, 520}";
}
);
layerId = "E991CF0C-7E17-4C48-B08A-36C8E595ED17";
paths = (
{
closed = 1;
nodes = (
"272 -14 OFFCURVE",
"311 -8 OFFCURVE",
"354 4 CURVE",
"330 161 LINE",
"315 156 OFFCURVE",
"301 153 OFFCURVE",
"289 153 CURVE SMOOTH",
"261 153 OFFCURVE",
"244 169 OFFCURVE",
"244 213 CURVE SMOOTH",
"244 520 LINE",
"44 520 LINE",
"44 192 LINE SMOOTH",
"44 49 OFFCURVE",
"120 -14 OFFCURVE",
"236 -14 CURVE SMOOTH"
);
}
);
width = 348;
}
);
unicode = 03B9;
},
{
color = 0;
glyphname = kappa;
lastChange = "2020-02-10 09:58:45 +0000";
layers = (
{
layerId = "38FA562F-EF2C-4367-983C-F15B205514DC";
paths = (
{
closed = 1;
nodes = (
"141 0 LINE",
"141 170 LINE",
"235 263 LINE",
"413 0 LINE",
"483 0 LINE",
"276 299 LINE",
"309 332 LINE SMOOTH",
"377 396 OFFCURVE",
"407 442 OFFCURVE",
"467 430 CURVE",
"457 483 LINE",
"391 496 OFFCURVE",
"348 441 OFFCURVE",
"268 363 CURVE SMOOTH",
"141 239 LINE",
"141 480 LINE",
"85 480 LINE",
"85 0 LINE"
);
}
);
width = 513;
},
{
layerId = "E991CF0C-7E17-4C48-B08A-36C8E595ED17";
paths = (
{
closed = 1;
nodes = (
"264 0 LINE",
"264 160 LINE",
"363 246 LINE",
"266 267 LINE",
"392 0 LINE",
"620 0 LINE",
"406 386 LINE",
"373 252 LINE",
"466 322 LINE SMOOTH",
"513 357 OFFCURVE",
"576 368 OFFCURVE",
"669 379 CURVE",
"610 269 LINE",
"544 627 LINE",
"657 527 LINE",
"496 552 OFFCURVE",
"418 527 OFFCURVE",
"350 454 CURVE SMOOTH",
"199 290 LINE",
"264 275 LINE",
"264 520 LINE",
"64 520 LINE",
"64 0 LINE"
);
}
);
width = 636;
},
{
associatedMasterId = "E991CF0C-7E17-4C48-B08A-36C8E595ED17";
layerId = "B669D1B3-2750-4478-A7B0-E312C7CE1C50";
name = "Feb 10 20, 11:13";
paths = (
{
closed = 1;
nodes = (
"264 0 LINE",
"264 160 LINE",
"363 246 LINE",
"254 267 LINE",
"390 0 LINE",
"618 0 LINE",
"395 386 LINE",
"373 247 LINE",
"466 322 LINE SMOOTH",
"497 347 OFFCURVE",
"537 357 OFFCURVE",
"589 358 CURVE",
"544 627 LINE",
"657 527 LINE",
"496 552 OFFCURVE",
"418 527 OFFCURVE",
"350 454 CURVE SMOOTH",
"199 290 LINE",
"264 275 LINE",
"264 520 LINE",
"64 520 LINE",
"64 0 LINE"
);
}
);
width = 636;
}
);
unicode = 03BA;
},
{
color = 0;
glyphname = lambda;
lastChange = "2020-02-10 08:51:07 +0000";
layers = (
{
layerId = "38FA562F-EF2C-4367-983C-F15B205514DC";
paths = (
{
closed = 1;
nodes = (
"86 0 LINE",
"275 423 LINE",
"437 0 LINE",
"500 0 LINE",
"253 646 LINE SMOOTH",
"230 706 OFFCURVE",
"192 735 OFFCURVE",
"135 735 CURVE SMOOTH",
"114 735 OFFCURVE",
"90 731 OFFCURVE",
"64 718 CURVE",
"75 668 LINE",
"97 678 OFFCURVE",
"116 681 OFFCURVE",
"129 681 CURVE SMOOTH",
"171 681 OFFCURVE",
"192 650 OFFCURVE",
"207 607 CURVE SMOOTH",
"254 474 LINE",
"253 515 LINE",
"25 0 LINE"
);
}
);
width = 515;
},
{
layerId = "E991CF0C-7E17-4C48-B08A-36C8E595ED17";
paths = (
{
closed = 1;
nodes = (
"210 0 LINE",
"345 405 LINE",
"284 405 LINE",
"406 0 LINE",
"623 0 LINE",
"413 549 LINE SMOOTH",
"361 684 OFFCURVE",
"287 735 OFFCURVE",
"175 735 CURVE SMOOTH",
"133 735 OFFCURVE",
"76 728 OFFCURVE",
"33 715 CURVE",
"62 549 LINE",
"84 555 OFFCURVE",
"113 560 OFFCURVE",
"137 560 CURVE SMOOTH",
"168 560 OFFCURVE",
"197 551 OFFCURVE",
"204 522 CURVE SMOOTH",
"228 427 LINE",
"240 587 LINE",
"0 0 LINE"
);
}
);
width = 628;
},
{
associatedMasterId = "38FA562F-EF2C-4367-983C-F15B205514DC";
layerId = "5547B552-5ED3-49B1-95BE-6A7DAE2E8AAD";
name = "Feb 10 20, 10:01";
paths = (
{
closed = 1;
nodes = (
"89 0 LINE",
"261 423 LINE",
"423 0 LINE",
"490 0 LINE",
"243 646 LINE SMOOTH",
"220 706 OFFCURVE",
"182 735 OFFCURVE",
"125 735 CURVE SMOOTH",
"104 735 OFFCURVE",
"80 731 OFFCURVE",
"54 718 CURVE",
"65 668 LINE",
"87 678 OFFCURVE",
"106 681 OFFCURVE",
"119 681 CURVE SMOOTH",
"161 681 OFFCURVE",
"175 650 OFFCURVE",
"191 607 CURVE SMOOTH",
"233 498 LINE",
"25 0 LINE"
);
}
);
width = 505;
},
{
associatedMasterId = "E991CF0C-7E17-4C48-B08A-36C8E595ED17";
layerId = "EAC78E7E-95EC-4255-AA67-98EEC2DB0359";
name = "Feb 10 20, 10:50";
paths = (
{
closed = 1;
nodes = (
"210 0 LINE",
"310 319 LINE",
"406 0 LINE",
"623 0 LINE",
"413 549 LINE SMOOTH",
"361 684 OFFCURVE",
"287 735 OFFCURVE",
"175 735 CURVE SMOOTH",
"133 735 OFFCURVE",
"76 728 OFFCURVE",
"33 715 CURVE",
"62 539 LINE",
"84 545 OFFCURVE",
"113 550 OFFCURVE",
"137 550 CURVE SMOOTH",
"168 550 OFFCURVE",
"197 541 OFFCURVE",
"204 512 CURVE SMOOTH",
"206 504 LINE",
"0 0 LINE"
);
}
);
width = 628;
}
);
unicode = 03BB;
},
{
glyphname = mu;
lastChange = "2020-02-06 13:01:40 +0000";
layers = (
{
layerId = "38FA562F-EF2C-4367-983C-F15B205514DC";
paths = (
{
closed = 1;
nodes = (
"141 -210 LINE",
"141 49 LINE",
"171 2 OFFCURVE",
"222 -15 OFFCURVE",
"282 -15 CURVE SMOOTH",
"342 -15 OFFCURVE",
"396 10 OFFCURVE",
"440 63 CURVE",
"440 0 LINE",
"496 0 LINE",
"496 480 LINE",
"440 480 LINE",
"440 195 LINE SMOOTH",
"440 102 OFFCURVE",
"368 39 OFFCURVE",
"291 39 CURVE SMOOTH",
"207 39 OFFCURVE",
"141 88 OFFCURVE",
"141 185 CURVE SMOOTH",
"141 480 LINE",
"85 480 LINE",
"85 -210 LINE"
);
}
);
width = 588;
},
{
layerId = "E991CF0C-7E17-4C48-B08A-36C8E595ED17";
paths = (
{
closed = 1;
nodes = (
"248 -210 LINE",
"248 -2 LINE",
"271 -10 OFFCURVE",
"295 -15 OFFCURVE",
"317 -15 CURVE SMOOTH",
"363 -15 OFFCURVE",
"406 4 OFFCURVE",
"436 51 CURVE",
"436 0 LINE",
"606 0 LINE",
"606 520 LINE",
"406 520 LINE",
"406 241 LINE SMOOTH",
"406 196 OFFCURVE",
"380 165 OFFCURVE",
"335 165 CURVE SMOOTH",
"290 165 OFFCURVE",
"264 196 OFFCURVE",
"264 241 CURVE SMOOTH",
"264 520 LINE",
"64 520 LINE",
"64 -210 LINE"
);
}
);
width = 670;
}
);
unicode = 03BC;
},
{
color = 0;
glyphname = nu;
lastChange = "2020-02-10 09:33:57 +0000";
layers = (
{
layerId = "38FA562F-EF2C-4367-983C-F15B205514DC";
paths = (
{
closed = 1;
nodes = (
"269 0 LINE",
"369 123 OFFCURVE",
"434 281 OFFCURVE",
"465 480 CURVE",
"403 480 LINE",
"373 289 OFFCURVE",
"311 147 OFFCURVE",
"239 47 CURVE",
"254 47 LINE",
"88 480 LINE",
"22 480 LINE",
"211 0 LINE"
);
}
);
width = 489;
},
{
background = {
paths = (
{
closed = 1;
nodes = (
"416 0 LINE",
"584 520 LINE",
"376 520 LINE",
"289 173 LINE",
"308 173 LINE",
"218 520 LINE",
"5 520 LINE",
"182 0 LINE"
);
}
);
};
layerId = "E991CF0C-7E17-4C48-B08A-36C8E595ED17";
paths = (
{
closed = 1;
nodes = (
"399 0 LINE",
"508 162 OFFCURVE",
"571 347 OFFCURVE",
"594 520 CURVE",
"386 520 LINE",
"370 404 OFFCURVE",
"337 263 OFFCURVE",
"289 169 CURVE",
"308 173 LINE",
"218 520 LINE",
"5 520 LINE",
"179 0 LINE"
);
}
);
width = 599;
},
{
associatedMasterId = "38FA562F-EF2C-4367-983C-F15B205514DC";
layerId = "07EB1A61-25AE-4C61-BCC7-16879A493AAC";
name = "Feb 9 20, 15:22";
paths = (
{
closed = 1;
nodes = (
"253 0 LINE",
"388 130 OFFCURVE",
"451 288 OFFCURVE",
"440 480 CURVE",
"381 480 LINE",
"393 296 OFFCURVE",
"326 153 OFFCURVE",
"223 47 CURVE",
"238 47 LINE",
"87 480 LINE",
"22 480 LINE",
"195 0 LINE"
);
}
);
width = 489;
},
{
associatedMasterId = "E991CF0C-7E17-4C48-B08A-36C8E595ED17";
layerId = "218A200E-9B9B-4FAD-AFF2-D1E71C68720E";
name = "Feb 10 20, 11:20";
paths = (
{
closed = 1;
nodes = (
"398 0 LINE",
"538 162 OFFCURVE",
"588 347 OFFCURVE",
"584 520 CURVE",
"376 520 LINE",
"387 404 OFFCURVE",
"354 267 OFFCURVE",
"289 173 CURVE",
"308 173 LINE",
"218 520 LINE",
"5 520 LINE",
"174 0 LINE"
);
}
);
width = 599;
}
);
leftKerningGroup = v;
unicode = 03BD;
},
{
color = 0;
glyphname = xi;
lastChange = "2020-02-10 11:31:10 +0000";
layers = (
{
layerId = "38FA562F-EF2C-4367-983C-F15B205514DC";
paths = (
{
closed = 1;
nodes = (
"409 -159 OFFCURVE",
"422 -116 OFFCURVE",
"422 -78 CURVE SMOOTH",
"422 -9 OFFCURVE",
"380 29 OFFCURVE",
"255 62 CURVE SMOOTH",
"165 86 OFFCURVE",
"112 120 OFFCURVE",
"112 215 CURVE SMOOTH",
"112 354 OFFCURVE",
"230 383 OFFCURVE",
"313 383 CURVE SMOOTH",
"381 383 LINE",
"381 435 LINE",
"313 435 LINE SMOOTH",
"232 435 OFFCURVE",
"141 478 OFFCURVE",
"141 572 CURVE SMOOTH",
"141 650 OFFCURVE",
"203 682 OFFCURVE",
"291 682 CURVE SMOOTH",
"341 682 OFFCURVE",
"386 672 OFFCURVE",
"422 653 CURVE",
"444 701 LINE",
"395 724 OFFCURVE",
"343 735 OFFCURVE",
"293 735 CURVE SMOOTH",
"168 735 OFFCURVE",
"83 666 OFFCURVE",
"83 566 CURVE SMOOTH",
"83 492 OFFCURVE",
"129 430 OFFCURVE",
"211 404 CURVE",
"212 418 LINE",
"105 381 OFFCURVE",
"50 318 OFFCURVE",
"50 213 CURVE SMOOTH",
"50 89 OFFCURVE",
"123 41 OFFCURVE",
"246 8 CURVE SMOOTH",
"330 -15 OFFCURVE",
"366 -39 OFFCURVE",
"366 -90 CURVE SMOOTH",
"366 -120 OFFCURVE",
"353 -149 OFFCURVE",
"330 -200 CURVE",
"380 -218 LINE"
);
}
);
width = 467;
},
{
layerId = "E991CF0C-7E17-4C48-B08A-36C8E595ED17";
paths = (
{
closed = 1;
nodes = (
"516 -153 OFFCURVE",
"534 -94 OFFCURVE",
"534 -45 CURVE SMOOTH",
"534 58 OFFCURVE",
"459 117 OFFCURVE",
"335 148 CURVE SMOOTH",
"264 166 OFFCURVE",
"219 193 OFFCURVE",
"219 230 CURVE SMOOTH",
"219 262 OFFCURVE",
"242 274 OFFCURVE",
"303 274 CURVE SMOOTH",
"454 274 LINE",
"454 444 LINE",
"325 445 LINE SMOOTH",
"271 445 OFFCURVE",
"242 470 OFFCURVE",
"242 504 CURVE SMOOTH",
"242 534 OFFCURVE",
"266 562 OFFCURVE",
"330 562 CURVE SMOOTH",
"379 562 OFFCURVE",
"427 546 OFFCURVE",
"481 519 CURVE",
"540 675 LINE",
"472 719 OFFCURVE",
"384 735 OFFCURVE",
"314 735 CURVE SMOOTH",
"162 735 OFFCURVE",
"62 663 OFFCURVE",
"62 553 CURVE SMOOTH",
"62 495 OFFCURVE",
"89 424 OFFCURVE",
"177 393 CURVE",
"214 426 LINE",
"100 403 OFFCURVE",
"25 354 OFFCURVE",
"25 230 CURVE SMOOTH",
"25 90 OFFCURVE",
"109 37 OFFCURVE",
"210 2 CURVE SMOOTH",
"269 -18 OFFCURVE",
"336 -31 OFFCURVE",
"336 -97 CURVE SMOOTH",
"336 -123 OFFCURVE",
"326 -157 OFFCURVE",
"301 -203 CURVE",
"478 -225 LINE"
);
}
);
width = 544;
},
{
associatedMasterId = "E991CF0C-7E17-4C48-B08A-36C8E595ED17";
layerId = "139FBD28-0FA4-4B6D-B4DF-F2C7DF49D06F";
name = "Feb 10 20, 11:27";
paths = (
{
closed = 1;
nodes = (
"516 -153 OFFCURVE",
"534 -94 OFFCURVE",
"534 -45 CURVE SMOOTH",
"534 58 OFFCURVE",
"456 114 OFFCURVE",
"332 145 CURVE SMOOTH",
"261 163 OFFCURVE",
"219 184 OFFCURVE",
"219 235 CURVE SMOOTH",
"219 271 OFFCURVE",
"240 284 OFFCURVE",
"303 284 CURVE SMOOTH",
"454 284 LINE",
"454 444 LINE",
"321 445 LINE SMOOTH",
"267 445 OFFCURVE",
"238 474 OFFCURVE",
"238 514 CURVE SMOOTH",
"238 550 OFFCURVE",
"262 580 OFFCURVE",
"326 580 CURVE SMOOTH",
"375 580 OFFCURVE",
"427 563 OFFCURVE",
"481 532 CURVE",
"540 675 LINE",
"472 719 OFFCURVE",
"380 735 OFFCURVE",
"310 735 CURVE SMOOTH",
"164 735 OFFCURVE",
"68 663 OFFCURVE",
"68 553 CURVE SMOOTH",
"68 495 OFFCURVE",
"94 424 OFFCURVE",
"178 393 CURVE",
"214 426 LINE",
"100 403 OFFCURVE",
"25 354 OFFCURVE",
"25 230 CURVE SMOOTH",
"25 90 OFFCURVE",
"109 37 OFFCURVE",
"210 2 CURVE SMOOTH",
"269 -18 OFFCURVE",
"336 -31 OFFCURVE",
"336 -97 CURVE SMOOTH",
"336 -123 OFFCURVE",
"326 -157 OFFCURVE",
"301 -203 CURVE",
"478 -225 LINE"
);
}
);
width = 544;
}
);
unicode = 03BE;
},
{
color = 0;
glyphname = pi;
lastChange = "2020-02-10 10:00:28 +0000";
layers = (
{
background = {
paths = (
{
closed = 1;
nodes = (
"495 -14 OFFCURVE",
"519 -10 OFFCURVE",
"540 -2 CURVE",
"524 46 LINE",
"509 40 OFFCURVE",
"494 38 OFFCURVE",
"482 38 CURVE SMOOTH",
"437 38 OFFCURVE",
"436 66 OFFCURVE",
"436 154 CURVE SMOOTH",
"436 480 LINE",
"379 480 LINE",
"380 90 LINE SMOOTH",
"380 20 OFFCURVE",
"413 -14 OFFCURVE",
"474 -14 CURVE SMOOTH"
);
},
{
closed = 1;
nodes = (
"173 0 LINE",
"173 480 LINE",
"117 480 LINE",
"117 0 LINE"
);
},
{
closed = 1;
nodes = (
"541 426 LINE",
"541 480 LINE",
"20 480 LINE",
"20 426 LINE"
);
}
);
};
layerId = "38FA562F-EF2C-4367-983C-F15B205514DC";
paths = (
{
closed = 1;
nodes = (
"163 0 LINE",
"173 480 LINE",
"117 480 LINE",
"107 0 LINE"
);
},
{
closed = 1;
nodes = (
"541 426 LINE",
"541 480 LINE",
"20 480 LINE",
"20 426 LINE"
);
},
{
closed = 1;
nodes = (
"506 -14 OFFCURVE",
"534 -7 OFFCURVE",
"557 3 CURVE",
"542 53 LINE",
"525 45 OFFCURVE",
"505 40 OFFCURVE",
"491 40 CURVE SMOOTH",
"446 40 OFFCURVE",
"436 62 OFFCURVE",
"436 128 CURVE SMOOTH",
"436 480 LINE",
"380 480 LINE",
"380 90 LINE SMOOTH",
"380 18 OFFCURVE",
"423 -14 OFFCURVE",
"484 -14 CURVE SMOOTH"
);
}
);
width = 587;
},
{
layerId = "E991CF0C-7E17-4C48-B08A-36C8E595ED17";
paths = (
{
closed = 1;
nodes = (
"588 -15 OFFCURVE",
"625 -10 OFFCURVE",
"665 0 CURVE",
"646 158 LINE",
"632 154 OFFCURVE",
"620 151 OFFCURVE",
"609 151 CURVE SMOOTH",
"582 151 OFFCURVE",
"561 167 OFFCURVE",
"561 204 CURVE SMOOTH",
"561 520 LINE",
"370 520 LINE",
"370 189 LINE SMOOTH",
"370 45 OFFCURVE",
"442 -15 OFFCURVE",
"555 -15 CURVE SMOOTH"
);
},
{
closed = 1;
nodes = (
"281 0 LINE",
"291 520 LINE",
"93 520 LINE",
"83 0 LINE"
);
},
{
closed = 1;
nodes = (
"654 356 LINE",
"654 520 LINE",
"10 520 LINE",
"10 356 LINE"
);
}
);
width = 689;
},
{
associatedMasterId = "38FA562F-EF2C-4367-983C-F15B205514DC";
layerId = "5A8D5029-F164-4257-BDCB-53D05356D04B";
name = "Feb 9 20, 15:19";
paths = (
{
closed = 1;
nodes = (
"490 -14 OFFCURVE",
"514 -10 OFFCURVE",
"535 -2 CURVE",
"519 46 LINE",
"504 40 OFFCURVE",
"489 38 OFFCURVE",
"477 38 CURVE SMOOTH",
"432 38 OFFCURVE",
"431 66 OFFCURVE",
"431 154 CURVE SMOOTH",
"431 480 LINE",
"374 480 LINE",
"375 90 LINE SMOOTH",
"375 20 OFFCURVE",
"408 -14 OFFCURVE",
"469 -14 CURVE SMOOTH"
);
},
{
closed = 1;
nodes = (
"168 0 LINE",
"168 480 LINE",
"112 480 LINE",
"112 0 LINE"
);
},
{
closed = 1;
nodes = (
"536 426 LINE",
"536 480 LINE",
"15 480 LINE",
"15 426 LINE"
);
}
);
width = 566;
},
{
associatedMasterId = "E991CF0C-7E17-4C48-B08A-36C8E595ED17";
layerId = "97F2885A-538D-4DED-AF3C-519C50B41895";
name = "Feb 10 20, 10:44";
paths = (
{
closed = 1;
nodes = (
"598 -16 OFFCURVE",
"635 -11 OFFCURVE",
"675 -1 CURVE",
"656 157 LINE",
"642 153 OFFCURVE",
"630 150 OFFCURVE",
"619 150 CURVE SMOOTH",
"592 150 OFFCURVE",
"578 166 OFFCURVE",
"578 203 CURVE SMOOTH",
"578 520 LINE",
"380 520 LINE",
"380 188 LINE SMOOTH",
"380 44 OFFCURVE",
"452 -16 OFFCURVE",
"565 -16 CURVE SMOOTH"
);
},
{
closed = 1;
nodes = (
"291 0 LINE",
"291 520 LINE",
"93 520 LINE",
"93 0 LINE"
);
},
{
closed = 1;
nodes = (
"664 356 LINE",
"664 520 LINE",
"10 520 LINE",
"10 356 LINE"
);
}
);
width = 685;
}
);
unicode = 03C0;
},
{
glyphname = rho;
lastChange = "2020-02-10 09:59:36 +0000";
layers = (
{
layerId = "38FA562F-EF2C-4367-983C-F15B205514DC";
paths = (
{
closed = 1;
nodes = (
"130 -210 LINE",
"130 85 LINE",
"168 25 OFFCURVE",
"245 -15 OFFCURVE",
"329 -15 CURVE SMOOTH",
"474 -15 OFFCURVE",
"576 101 OFFCURVE",
"576 240 CURVE SMOOTH",
"576 381 OFFCURVE",
"477 495 OFFCURVE",
"323 495 CURVE SMOOTH",
"178 495 OFFCURVE",
"74 379 OFFCURVE",
"74 240 CURVE SMOOTH",
"74 -210 LINE"
);
},
{
closed = 1;
nodes = (
"210 39 OFFCURVE",
"130 117 OFFCURVE",
"130 240 CURVE SMOOTH",
"130 363 OFFCURVE",
"210 441 OFFCURVE",
"323 441 CURVE SMOOTH",
"436 441 OFFCURVE",
"516 363 OFFCURVE",
"516 240 CURVE SMOOTH",
"516 117 OFFCURVE",
"436 39 OFFCURVE",
"323 39 CURVE SMOOTH"
);
}
);
width = 616;
},
{
layerId = "E991CF0C-7E17-4C48-B08A-36C8E595ED17";
paths = (
{
closed = 1;
nodes = (
"253 -210 LINE",
"253 26 LINE",
"292 -2 OFFCURVE",
"337 -15 OFFCURVE",
"386 -15 CURVE SMOOTH",
"538 -15 OFFCURVE",
"647 103 OFFCURVE",
"647 260 CURVE SMOOTH",
"647 410 OFFCURVE",
"527 535 OFFCURVE",
"353 535 CURVE SMOOTH",
"174 535 OFFCURVE",
"54 413 OFFCURVE",
"54 247 CURVE SMOOTH",
"54 -210 LINE"
);
},
{
closed = 1;
nodes = (
"296 155 OFFCURVE",
"253 195 OFFCURVE",
"253 260 CURVE SMOOTH",
"253 325 OFFCURVE",
"297 365 OFFCURVE",
"353 365 CURVE SMOOTH",
"409 365 OFFCURVE",
"453 325 OFFCURVE",
"453 260 CURVE SMOOTH",
"453 195 OFFCURVE",
"410 155 OFFCURVE",
"353 155 CURVE SMOOTH"
);
}
);
width = 672;
}
);
rightMetricsKey = o;
unicode = 03C1;
},
{
color = 0;
glyphname = sigmafinal;
lastChange = "2020-02-10 09:32:29 +0000";
layers = (
{
layerId = "38FA562F-EF2C-4367-983C-F15B205514DC";
paths = (
{
closed = 1;
nodes = (
"411 -159 OFFCURVE",
"424 -116 OFFCURVE",
"424 -80 CURVE SMOOTH",
"424 -9 OFFCURVE",
"373 28 OFFCURVE",
"264 59 CURVE SMOOTH",
"142 94 OFFCURVE",
"100 145 OFFCURVE",
"100 246 CURVE SMOOTH",
"100 383 OFFCURVE",
"183 441 OFFCURVE",
"292 441 CURVE SMOOTH",
"340 441 OFFCURVE",
"382 428 OFFCURVE",
"411 404 CURVE",
"445 450 LINE",
"402 481 OFFCURVE",
"352 495 OFFCURVE",
"295 495 CURVE SMOOTH",
"153 495 OFFCURVE",
"40 410 OFFCURVE",
"40 245 CURVE SMOOTH",
"40 128 OFFCURVE",
"86 49 OFFCURVE",
"255 5 CURVE SMOOTH",
"331 -15 OFFCURVE",
"367 -39 OFFCURVE",
"367 -89 CURVE SMOOTH",
"367 -117 OFFCURVE",
"356 -150 OFFCURVE",
"332 -200 CURVE",
"382 -218 LINE"
);
}
);
width = 487;
},
{
layerId = "E991CF0C-7E17-4C48-B08A-36C8E595ED17";
paths = (
{
closed = 1;
nodes = (
"516 -153 OFFCURVE",
"532 -95 OFFCURVE",
"532 -49 CURVE SMOOTH",
"532 50 OFFCURVE",
"459 96 OFFCURVE",
"362 131 CURVE SMOOTH",
"263 167 OFFCURVE",
"219 197 OFFCURVE",
"219 259 CURVE SMOOTH",
"219 322 OFFCURVE",
"253 358 OFFCURVE",
"325 358 CURVE SMOOTH",
"369 358 OFFCURVE",
"428 345 OFFCURVE",
"479 309 CURVE",
"540 466 LINE",
"473 511 OFFCURVE",
"397 535 OFFCURVE",
"317 535 CURVE SMOOTH",
"149 535 OFFCURVE",
"25 415 OFFCURVE",
"25 259 CURVE SMOOTH",
"25 116 OFFCURVE",
"130 32 OFFCURVE",
"223 -3 CURVE SMOOTH",
"272 -22 OFFCURVE",
"337 -33 OFFCURVE",
"337 -97 CURVE SMOOTH",
"337 -122 OFFCURVE",
"326 -157 OFFCURVE",
"301 -203 CURVE",
"478 -225 LINE"
);
}
);
width = 556;
}
);
leftMetricsKey = o;
rightMetricsKey = c;
unicode = 03C2;
},
{
glyphname = sigma;
lastChange = "2020-02-06 13:07:48 +0000";
layers = (
{
layerId = "38FA562F-EF2C-4367-983C-F15B205514DC";
paths = (
{
closed = 1;
nodes = (
"432 -15 OFFCURVE",
"532 95 OFFCURVE",
"532 234 CURVE SMOOTH",
"532 311 OFFCURVE",
"502 385 OFFCURVE",
"430 428 CURVE",
"593 428 LINE",
"593 480 LINE",
"288 480 LINE SMOOTH",
"145 480 OFFCURVE",
"40 378 OFFCURVE",
"40 240 CURVE SMOOTH",
"40 101 OFFCURVE",
"145 -15 OFFCURVE",
"290 -15 CURVE SMOOTH"
);
},
{
closed = 1;
nodes = (
"178 39 OFFCURVE",
"100 117 OFFCURVE",
"100 240 CURVE SMOOTH",
"100 363 OFFCURVE",
"181 426 OFFCURVE",
"287 426 CURVE SMOOTH",
"399 426 OFFCURVE",
"473 355 OFFCURVE",
"473 232 CURVE SMOOTH",
"473 109 OFFCURVE",
"401 39 OFFCURVE",
"292 39 CURVE SMOOTH"
);
}
);
width = 623;
},
{
background = {
paths = (
{
closed = 1;
nodes = (
"25 108 OFFCURVE",
"145 -15 OFFCURVE",
"319 -15 CURVE SMOOTH",
"485 -15 OFFCURVE",
"588 90 OFFCURVE",
"588 227 CURVE SMOOTH",
"588 263 OFFCURVE",
"581 320 OFFCURVE",
"556 352 CURVE",
"677 352 LINE",
"677 520 LINE",
"319 520 LINE SMOOTH",
"145 520 OFFCURVE",
"25 402 OFFCURVE",
"25 254 CURVE SMOOTH"
);
},
{
closed = 1;
nodes = (
"219 319 OFFCURVE",
"263 359 OFFCURVE",
"319 359 CURVE SMOOTH",
"375 359 OFFCURVE",
"419 319 OFFCURVE",
"419 257 CURVE SMOOTH",
"419 195 OFFCURVE",
"375 155 OFFCURVE",
"319 155 CURVE SMOOTH",
"263 155 OFFCURVE",
"219 195 OFFCURVE",
"219 257 CURVE SMOOTH"
);
}
);
};
layerId = "E991CF0C-7E17-4C48-B08A-36C8E595ED17";
paths = (
{
closed = 1;
nodes = (
"494 -15 OFFCURVE",
"603 84 OFFCURVE",
"603 216 CURVE SMOOTH",
"603 266 OFFCURVE",
"587 317 OFFCURVE",
"551 358 CURVE",
"677 358 LINE",
"677 520 LINE",
"359 520 LINE SMOOTH",
"127 520 OFFCURVE",
"25 400 OFFCURVE",
"25 251 CURVE SMOOTH",
"25 89 OFFCURVE",
"152 -15 OFFCURVE",
"319 -15 CURVE SMOOTH"
);
},
{
closed = 1;
nodes = (
"261 155 OFFCURVE",
"219 195 OFFCURVE",
"219 255 CURVE SMOOTH",
"219 315 OFFCURVE",
"261 355 OFFCURVE",
"319 355 CURVE SMOOTH",
"377 355 OFFCURVE",
"419 315 OFFCURVE",
"419 255 CURVE SMOOTH",
"419 195 OFFCURVE",
"377 155 OFFCURVE",
"319 155 CURVE SMOOTH"
);
}
);
width = 692;
}
);
leftKerningGroup = o;
leftMetricsKey = o;
unicode = 03C3;
},
{
color = 0;
glyphname = tau;
lastChange = "2020-02-10 10:00:37 +0000";
layers = (
{
layerId = "38FA562F-EF2C-4367-983C-F15B205514DC";
paths = (
{
closed = 1;
nodes = (
"289 -14 OFFCURVE",
"320 -7 OFFCURVE",
"345 3 CURVE",
"329 53 LINE",
"310 45 OFFCURVE",
"288 40 OFFCURVE",
"273 40 CURVE SMOOTH",
"228 40 OFFCURVE",
"214 62 OFFCURVE",
"214 128 CURVE SMOOTH",
"214 480 LINE",
"158 480 LINE",
"158 90 LINE SMOOTH",
"158 18 OFFCURVE",
"204 -14 OFFCURVE",
"265 -14 CURVE SMOOTH"
);
},
{
closed = 1;
nodes = (
"383 426 LINE",
"383 480 LINE",
"20 480 LINE",
"20 426 LINE"
);
}
);
width = 413;
},
{
layerId = "E991CF0C-7E17-4C48-B08A-36C8E595ED17";
paths = (
{
closed = 1;
nodes = (
"364 -14 OFFCURVE",
"405 -7 OFFCURVE",
"447 7 CURVE",
"421 164 LINE",
"407 160 OFFCURVE",
"394 157 OFFCURVE",
"383 157 CURVE SMOOTH",
"353 157 OFFCURVE",
"333 174 OFFCURVE",
"333 218 CURVE SMOOTH",
"333 520 LINE",
"133 520 LINE",
"133 191 LINE SMOOTH",
"133 52 OFFCURVE",
"214 -14 OFFCURVE",
"327 -14 CURVE SMOOTH"
);
},
{
closed = 1;
nodes = (
"479 352 LINE",
"479 520 LINE",
"10 520 LINE",
"10 352 LINE"
);
}
);
width = 499;
},
{
associatedMasterId = "38FA562F-EF2C-4367-983C-F15B205514DC";
layerId = "7675F50B-0F86-4B91-B7B0-780CDBB09F50";
name = "Feb 9 20, 15:08";
paths = (
{
closed = 1;
nodes = (
"269 -14 OFFCURVE",
"300 -7 OFFCURVE",
"325 3 CURVE",
"309 53 LINE",
"290 45 OFFCURVE",
"268 40 OFFCURVE",
"253 40 CURVE SMOOTH",
"208 40 OFFCURVE",
"194 62 OFFCURVE",
"194 128 CURVE SMOOTH",
"194 480 LINE",
"138 480 LINE",
"138 90 LINE SMOOTH",
"138 18 OFFCURVE",
"184 -14 OFFCURVE",
"245 -14 CURVE SMOOTH"
);
},
{
closed = 1;
nodes = (
"373 426 LINE",
"373 480 LINE",
"10 480 LINE",
"10 426 LINE"
);
}
);
width = 403;
}
);
unicode = 03C4;
},
{
color = 0;
glyphname = upsilon;
lastChange = "2020-02-10 11:31:21 +0000";
layers = (
{
anchors = (
{
name = top;
position = "{255, 480}";
}
);
layerId = "38FA562F-EF2C-4367-983C-F15B205514DC";
paths = (
{
closed = 1;
nodes = (
"415 -15 OFFCURVE",
"476 101 OFFCURVE",
"476 251 CURVE SMOOTH",
"476 322 OFFCURVE",
"462 402 OFFCURVE",
"438 480 CURVE",
"381 480 LINE",
"406 395 OFFCURVE",
"420 316 OFFCURVE",
"420 249 CURVE SMOOTH",
"420 123 OFFCURVE",
"371 40 OFFCURVE",
"261 40 CURVE SMOOTH",
"185 40 OFFCURVE",
"137 83 OFFCURVE",
"137 174 CURVE SMOOTH",
"137 480 LINE",
"81 480 LINE",
"81 157 LINE SMOOTH",
"81 64 OFFCURVE",
"142 -15 OFFCURVE",
"262 -15 CURVE SMOOTH"
);
}
);
width = 550;
},
{
anchors = (
{
name = top;
position = "{296, 520}";
}
);
layerId = "E991CF0C-7E17-4C48-B08A-36C8E595ED17";
paths = (
{
closed = 1;
nodes = (
"466 -15 OFFCURVE",
"588 46 OFFCURVE",
"588 265 CURVE SMOOTH",
"588 336 OFFCURVE",
"575 416 OFFCURVE",
"548 520 CURVE",
"343 520 LINE",
"370 414 OFFCURVE",
"387 333 OFFCURVE",
"387 271 CURVE SMOOTH",
"387 198 OFFCURVE",
"367 155 OFFCURVE",
"313 155 CURVE SMOOTH",
"268 155 OFFCURVE",
"244 185 OFFCURVE",
"244 237 CURVE SMOOTH",
"244 520 LINE",
"44 520 LINE",
"44 234 LINE SMOOTH",
"44 91 OFFCURVE",
"115 -15 OFFCURVE",
"312 -15 CURVE SMOOTH"
);
}
);
width = 623;
}
);
unicode = 03C5;
},
